SplineFontDB: 3.0
FontName: HM_FTXelham_ShadowItalic
FullName: HM_FTXelham_ShadowItalic
FamilyName: HM_FTXelham_ShadowItalic
Weight: Shadow
Copyright: Copyright (c) Hossein, 2013. All rights reserved.
Version: 0.1
ItalicAngle: 0
UnderlinePosition: -540
UnderlineWidth: 60
Ascent: 1638
Descent: 410
sfntRevision: 0x00010000
LayerCount: 2
Layer: 0 1 "Back"  1
Layer: 1 1 "Fore"  0
XUID: [1021 102 1371595031 6992056]
FSType: 0
OS2Version: 2
OS2_WeightWidthSlopeOnly: 0
OS2_UseTypoMetrics: 1
CreationTime: 1194658560
ModificationTime: 1360912337
PfmFamily: 17
TTFWeight: 400
TTFWidth: 5
LineGap: 0
VLineGap: 0
Panose: 2 0 5 3 8 0 0 2 0 3
OS2TypoAscent: 2100
OS2TypoAOffset: 0
OS2TypoDescent: -1000
OS2TypoDOffset: 0
OS2TypoLinegap: 0
OS2WinAscent: 2100
OS2WinAOffset: 0
OS2WinDescent: 1000
OS2WinDOffset: 0
HheadAscent: 2100
HheadAOffset: 0
HheadDescent: -1000
HheadDOffset: 0
OS2SubXSize: 1434
OS2SubYSize: 1331
OS2SubXOff: 0
OS2SubYOff: 293
OS2SupXSize: 1434
OS2SupYSize: 1331
OS2SupXOff: 0
OS2SupYOff: 928
OS2StrikeYSize: 102
OS2StrikeYPos: 512
OS2Vendor: 'pars'
OS2CodePages: 20000051.41000000
OS2UnicodeRanges: 00002003.80000000.00000008.00000000
Lookup: 4 0 1 "gsub_ligature_dfl_liga_arab_FAR_Lookup_01"  {"gsub_ligature_dfl_liga_arab_FAR_Lookup_01_Subtable_01"  } ['liga' ('arab' <'FAR ' > ) ]
Lookup: 4 0 1 "gsub_ligature_dfl_liga_arab_FAR_Lookup_02"  {"gsub_ligature_dfl_liga_arab_FAR_Lookup_02_Subtable_01"  } ['liga' ('arab' <'FAR ' > ) ]
Lookup: 3 0 0 "gsub_alternate_dfl_aalt_arab_FAR_Lookup_01"  {"gsub_alternate_dfl_aalt_arab_FAR_Lookup_01_Subtable_01"  } ['aalt' ('arab' <'FAR ' > ) ]
Lookup: 1 1 0 "gsub_single_rtl_fina_arab_FAR_Lookup_01"  {"gsub_single_rtl_fina_arab_FAR_Lookup_01_Subtable_01"  } ['fina' ('arab' <'FAR ' > ) ]
Lookup: 1 1 0 "gsub_single_rtl_init_arab_FAR_Lookup_01"  {"gsub_single_rtl_init_arab_FAR_Lookup_01_Subtable_01"  } ['init' ('arab' <'FAR ' > ) ]

StartChar: .notdef
Encoding: 65536 -1 0
Width: 1039
GlyphClass: 2
Flags: W
LayerCount: 2
Fore
SplineSet
647 299 m 0,0,1
 640 269 640 269 614.5 246.5 c 128,-1,2
 589 224 589 224 559 224 c 0,3,4
 531 224 531 224 516.5 246.5 c 128,-1,5
 502 269 502 269 509 299 c 0,6,7
 516 331 516 331 541 352.5 c 128,-1,8
 566 374 566 374 597 374 c 0,9,10
 625 374 625 374 639.5 352.5 c 128,-1,11
 654 331 654 331 647 299 c 0,0,1
859 780 m 0,12,13
 849 737 849 737 821 710 c 128,-1,14
 793 683 793 683 758 683 c 0,15,16
 728 683 728 683 715 701.5 c 128,-1,17
 702 720 702 720 708 749 c 0,18,19
 713 770 713 770 726 785 c 128,-1,20
 739 800 739 800 753 810.5 c 128,-1,21
 767 821 767 821 778 829 c 128,-1,22
 789 837 789 837 791 843 c 0,23,24
 796 863 796 863 780 875 c 128,-1,25
 764 887 764 887 737 887 c 0,26,27
 702 887 702 887 674.5 866 c 128,-1,28
 647 845 647 845 640 813 c 0,29,30
 636 795 636 795 639.5 769 c 128,-1,31
 643 743 643 743 649 718 c 128,-1,32
 655 693 655 693 661 673 c 128,-1,33
 667 653 667 653 667 648 c 0,34,35
 671 619 671 619 669 583.5 c 128,-1,36
 667 548 667 548 659 513 c 0,37,38
 654 492 654 492 647.5 470.5 c 128,-1,39
 641 449 641 449 633 424 c 1,40,-1
 597 424 l 1,41,-1
 601 442 l 1,42,-1
 612 472 l 1,43,44
 620 505 620 505 587 544 c 0,45,46
 534 609 534 609 528 620 c 0,47,48
 498 673 498 673 514 740 c 0,49,50
 523 781 523 781 545 815.5 c 128,-1,51
 567 850 567 850 596.5 875.5 c 128,-1,52
 626 901 626 901 661.5 915 c 128,-1,53
 697 929 697 929 733 929 c 0,54,55
 766 929 766 929 793 918.5 c 128,-1,56
 820 908 820 908 837 888.5 c 128,-1,57
 854 869 854 869 860.5 841.5 c 128,-1,58
 867 814 867 814 859 780 c 0,12,13
128 31 m 1,59,-1
 928 31 l 1,60,-1
 1180 1122 l 1,61,-1
 380 1122 l 1,62,-1
 128 31 l 1,59,-1
91 0 m 1,63,-1
 357 1154 l 1,64,-1
 1215 1154 l 1,65,-1
 948 0 l 1,66,-1
 91 0 l 1,63,-1
EndSplineSet
EndChar

StartChar: exclam
Encoding: 33 33 4
Width: 601
VWidth: 1639
GlyphClass: 2
Flags: W
LayerCount: 2
Fore
SplineSet
422 1432 m 1,0,-1
 717 1432 l 1,1,-1
 697 1343 l 1,2,-1
 729 1343 l 1,3,-1
 497 336 l 1,4,-1
 243 336 l 1,5,-1
 253 379 l 1,6,-1
 178 379 l 1,7,-1
 422 1432 l 1,0,-1
664 1386 m 1,8,-1
 454 1386 l 1,9,-1
 232 425 l 1,10,-1
 442 425 l 1,11,-1
 664 1386 l 1,8,-1
282 292 m 0,12,13
 399 299 399 299 423 223 c 0,14,15
 424 219 424 219 424 171 c 0,16,17
 424 164 424 164 425 159 c 0,18,19
 427 150 427 150 431 134 c 0,20,21
 440 100 440 100 437 79 c 0,22,23
 425 0 425 0 352 -46 c 0,24,25
 317 -66 317 -66 283 -69 c 0,26,27
 244 -71 244 -71 214 -48 c 0,28,29
 210 -46 210 -46 204 -37 c 0,30,31
 197 -29 197 -29 193 -26 c 0,32,33
 189 -24 189 -24 179 -21 c 0,34,35
 169 -18 169 -18 165 -16 c 0,36,37
 122 13 122 13 113 61 c 1,38,39
 111 86 111 86 121 130 c 0,40,41
 133 180 133 180 141 195 c 0,42,43
 182 274 182 274 263 290 c 0,44,45
 273 291 273 291 282 292 c 0,12,13
289 244 m 0,46,47
 237 235 237 235 193 183 c 0,48,49
 173 158 173 158 166 134 c 0,50,51
 154 83 154 83 198 44 c 0,52,53
 205 38 205 38 212 34 c 0,54,55
 232 21 232 21 247 23 c 0,56,57
 297 28 297 28 344 81 c 0,58,59
 368 109 368 109 374 134 c 0,60,61
 384 183 384 183 344 223 c 0,62,63
 318 248 318 248 289 244 c 0,46,47
EndSplineSet
EndChar

StartChar: percent
Encoding: 37 37 8
Width: 1042
VWidth: 1639
GlyphClass: 2
Flags: W
LayerCount: 2
Fore
SplineSet
1048 1266 m 1,0,-1
 1063 1256 l 1,1,-1
 1070 1266 l 1,2,-1
 1084 1256 l 1,3,-1
 1091 1266 l 1,4,-1
 1149 1220 l 1,5,-1
 1169 1202 l 1,6,-1
 1162 1186 l 1,7,-1
 1165 1176 l 1,8,-1
 1157 1163 l 1,9,-1
 1150 1138 l 1,10,11
 1180 1122 1180 1122 1181 1110 c 0,12,13
 1181 1108 1181 1108 1179 1105 c 128,-1,14
 1177 1102 1177 1102 1174.5 1099.5 c 128,-1,15
 1172 1097 1172 1097 1169 1093 c 2,16,-1
 1166 1089 l 1,17,-1
 1127 1040 l 2,18,19
 1075 973 1075 973 973 843 c 0,20,21
 899 749 899 749 752 559 c 0,22,23
 604 369 604 369 530 276 c 0,24,25
 500 238 500 238 439 161 c 0,26,27
 322 14 322 14 268 -61 c 1,28,-1
 208 -10 l 1,29,-1
 203 -18 l 1,30,31
 187 -11 187 -11 135 40 c 0,32,33
 129 45 129 45 125 49 c 1,34,-1
 138 67 l 1,35,-1
 130 72 l 1,36,-1
 144 90 l 1,37,-1
 136 95 l 1,38,39
 156 127 156 127 244 235 c 1,40,-1
 439 485 l 2,41,42
 524 595 524 595 1048 1266 c 1,0,-1
1103 1168 m 1,43,-1
 1063 1199 l 1,44,-1
 976 1087 l 1,45,-1
 835 905 l 1,46,-1
 396 343 l 1,47,-1
 248 154 l 1,48,-1
 210 105 l 1,49,-1
 196 84 l 1,50,-1
 204 72 l 1,51,-1
 230 49 l 1,52,53
 236 58 236 58 302 143 c 0,54,55
 370 228 370 228 443 321 c 0,56,57
 585 505 585 505 869 868 c 0,58,59
 895 901 895 901 946 965 c 0,60,61
 997 1030 997 1030 1023 1063 c 0,62,63
 1031 1073 1031 1073 1047 1092 c 0,64,65
 1088 1142 1088 1142 1103 1168 c 1,43,-1
499 1168 m 0,66,67
 623 1185 623 1185 653 1100 c 0,68,69
 654 1095 654 1095 654 1048 c 0,70,71
 654 1040 654 1040 655 1035 c 0,72,73
 657 1026 657 1026 661 1011 c 0,74,75
 670 983 670 983 669 966 c 0,76,77
 662 887 662 887 592 836 c 0,78,79
 560 812 560 812 524 807 c 1,80,81
 479 803 479 803 446 825 c 0,82,83
 442 828 442 828 436 836 c 0,84,85
 427 846 427 846 423 850 c 0,86,87
 418 854 418 854 404 856 c 0,88,89
 394 859 394 859 390 861 c 0,90,91
 354 886 354 886 345 928 c 0,92,93
 340 954 340 954 352 1005 c 0,94,95
 364 1057 364 1057 372 1074 c 0,96,97
 409 1144 409 1144 484 1164 c 0,98,99
 492 1167 492 1167 499 1168 c 0,66,67
523 1120 m 1,100,101
 473 1115 473 1115 427 1062 c 0,102,103
 403 1034 403 1034 397 1009 c 0,104,105
 385 958 385 958 430 918 c 0,106,107
 438 911 438 911 445 907 c 0,108,109
 461 898 461 898 476 897 c 1,110,111
 526 902 526 902 573 955 c 0,112,113
 597 983 597 983 603 1009 c 0,114,115
 615 1060 615 1060 572 1097 c 0,116,117
 562 1105 562 1105 553 1110 c 0,118,119
 536 1119 536 1119 523 1120 c 1,100,101
794 356 m 0,120,121
 921 373 921 373 949 287 c 0,122,123
 950 283 950 283 950 235 c 0,124,125
 950 228 950 228 951 223 c 0,126,127
 952 213 952 213 957 197 c 0,128,129
 964 173 964 173 963 159 c 0,130,131
 959 79 959 79 890 27 c 0,132,133
 855 2 855 2 819 -5 c 1,134,135
 774 -9 774 -9 741 13 c 0,136,137
 737 16 737 16 731 24 c 0,138,139
 722 34 722 34 717 38 c 0,140,141
 713 40 713 40 703 43 c 0,142,143
 693 46 693 46 689 48 c 0,144,145
 647 74 647 74 639 120 c 1,146,147
 636 146 636 146 646 194 c 0,148,149
 658 246 658 246 667 261 c 0,150,151
 703 329 703 329 775 351 c 0,152,153
 785 354 785 354 794 356 c 0,120,121
818 308 m 0,154,155
 765 301 765 301 720 248 c 0,156,157
 698 221 698 221 691 197 c 0,158,159
 679 145 679 145 726 106 c 0,160,161
 733 101 733 101 739 97 c 0,162,163
 758 84 758 84 772 85 c 0,164,165
 825 92 825 92 871 145 c 0,166,167
 893 172 893 172 899 197 c 0,168,169
 911 249 911 249 864 288 c 0,170,171
 857 293 857 293 852 297 c 0,172,173
 833 309 833 309 818 308 c 0,154,155
EndSplineSet
EndChar

StartChar: parenleft
Encoding: 40 40 11
Width: 656
VWidth: 1639
GlyphClass: 2
Flags: W
LayerCount: 2
Fore
SplineSet
504 -266 m 1,0,-1
 341 -266 l 2,1,2
 251 -265 251 -265 217 -253 c 0,3,4
 207 -249 207 -249 169 -219 c 0,5,6
 166 -216 166 -216 163 -215 c 0,7,8
 155 -209 155 -209 138 -200 c 0,9,10
 104 -181 104 -181 93 -162 c 1,11,12
 66 -106 66 -106 95 16 c 2,13,-1
 134 185 l 1,14,-1
 333 1048 l 2,15,16
 380 1249 380 1249 386 1273 c 0,17,18
 413 1362 413 1362 462 1407 c 1,19,20
 523 1461 523 1461 642 1461 c 2,21,-1
 871 1461 l 1,22,-1
 850 1373 l 1,23,-1
 882 1373 l 1,24,-1
 835 1168 l 1,25,26
 729 1168 729 1168 708 1166 c 0,27,28
 661 1161 661 1161 643 1141 c 0,29,30
 622 1117 622 1117 608 1056 c 2,31,-1
 573 904 l 1,32,-1
 431 290 l 1,33,-1
 389 108 l 1,34,-1
 378 61 l 2,35,36
 374 42 374 42 375 39 c 0,37,38
 380 29 380 29 417 30 c 0,39,40
 438 30 438 30 478 28 c 0,41,42
 519 26 519 26 539 26 c 1,43,-1
 519 -62 l 1,44,-1
 551 -62 l 1,45,-1
 504 -266 l 1,0,-1
817 1415 m 1,46,47
 798 1415 798 1415 759 1417 c 0,48,49
 654 1420 654 1420 601 1410 c 0,50,51
 530 1397 530 1397 486 1353 c 1,52,53
 433 1295 433 1295 405 1176 c 2,54,-1
 370 1022 l 1,55,-1
 184 220 l 1,56,-1
 148 61 l 2,57,58
 120 -62 120 -62 145 -113 c 0,59,60
 147 -117 147 -117 148 -118 c 0,61,62
 182 -176 182 -176 302 -177 c 0,63,64
 310 -177 310 -177 320 -177 c 2,65,-1
 450 -177 l 1,66,-1
 486 -20 l 1,67,68
 465 -20 465 -20 425 -18 c 0,69,70
 384 -16 384 -16 365 -16 c 0,71,72
 316 -14 316 -14 304 11 c 1,73,74
 297 35 297 35 314 105 c 2,75,-1
 354 279 l 1,76,-1
 508 948 l 1,77,-1
 551 1135 l 1,78,79
 570 1207 570 1207 588 1230 c 1,80,81
 609 1252 609 1252 654 1255 c 0,82,83
 679 1257 679 1257 781 1256 c 1,84,-1
 817 1415 l 1,46,47
EndSplineSet
EndChar

StartChar: parenright
Encoding: 41 41 12
Width: 746
VWidth: 1639
GlyphClass: 2
Flags: W
LayerCount: 2
Fore
SplineSet
428 1461 m 1,0,-1
 651 1461 l 2,1,2
 769 1461 769 1461 807 1413 c 0,3,4
 809 1410 809 1410 810 1409 c 0,5,6
 826 1386 826 1386 829 1322 c 0,7,8
 830 1313 830 1313 830 1307 c 0,9,10
 831 1299 831 1299 836 1284 c 0,11,12
 842 1255 842 1255 842 1240 c 0,13,14
 842 1193 842 1193 808 1056 c 0,15,16
 805 1042 805 1042 802 1032 c 2,17,-1
 604 174 l 1,18,-1
 557 -30 l 1,19,20
 527 -153 527 -153 479 -203 c 1,21,22
 412 -265 412 -265 284 -266 c 2,23,-1
 104 -266 l 1,24,-1
 114 -223 l 1,25,-1
 40 -223 l 1,26,-1
 97 26 l 1,27,28
 140 26 140 26 218 30 c 0,29,30
 266 32 266 32 290 56 c 1,31,32
 309 79 309 79 324 144 c 2,33,-1
 363 313 l 1,34,-1
 504 925 l 1,35,-1
 543 1091 l 2,36,37
 556 1147 556 1147 555 1156 c 0,38,39
 554 1161 554 1161 553 1163 c 0,40,41
 550 1169 550 1169 525 1168 c 2,42,-1
 435 1168 l 1,43,-1
 445 1210 l 1,44,-1
 370 1210 l 1,45,-1
 428 1461 l 1,0,-1
93 -177 m 1,46,-1
 219 -177 l 2,47,48
 338 -177 338 -177 395 -139 c 0,49,50
 410 -128 410 -128 423 -116 c 0,51,52
 475 -62 475 -62 502 56 c 2,53,-1
 540 221 l 1,54,-1
 725 1022 l 1,55,-1
 762 1181 l 2,56,57
 789 1300 789 1300 764 1350 c 0,58,59
 733 1413 733 1413 611 1415 c 0,60,61
 600 1415 600 1415 576 1415 c 2,62,-1
 460 1415 l 1,63,-1
 424 1256 l 1,64,65
 529 1256 529 1256 548 1255 c 0,66,67
 593 1250 593 1250 603 1228 c 1,68,69
 612 1205 612 1205 596 1137 c 2,70,-1
 552 948 l 1,71,-1
 397 276 l 1,72,-1
 357 102 l 2,73,74
 340 33 340 33 324 11 c 1,75,76
 299 -17 299 -17 250 -16 c 1,77,78
 169 -19 169 -19 129 -20 c 1,79,-1
 93 -177 l 1,46,-1
EndSplineSet
EndChar

StartChar: plus
Encoding: 43 43 14
Width: 781
VWidth: 1639
GlyphClass: 2
Flags: W
LayerCount: 2
Fore
SplineSet
468 818 m 1,0,-1
 661 818 l 1,1,-1
 641 730 l 1,2,-1
 673 730 l 1,3,-1
 626 525 l 1,4,-1
 864 525 l 1,5,-1
 843 436 l 1,6,-1
 875 436 l 1,7,-1
 840 282 l 1,8,-1
 570 282 l 1,9,-1
 500 -18 l 1,10,-1
 349 -18 l 1,11,-1
 359 25 l 1,12,-1
 284 25 l 1,13,-1
 344 282 l 1,14,-1
 147 282 l 1,15,-1
 157 325 l 1,16,-1
 82 325 l 1,17,-1
 128 525 l 1,18,-1
 400 525 l 1,19,-1
 468 818 l 1,0,-1
608 772 m 1,20,-1
 500 772 l 1,21,-1
 432 479 l 1,22,-1
 161 479 l 1,23,-1
 136 371 l 1,24,-1
 407 371 l 1,25,-1
 338 71 l 1,26,-1
 446 71 l 1,27,-1
 515 371 l 1,28,-1
 785 371 l 1,29,-1
 810 479 l 1,30,-1
 540 479 l 1,31,-1
 608 772 l 1,20,-1
EndSplineSet
EndChar

StartChar: hyphen
Encoding: 45 45 16
AltUni2: 002212.ffffffff.0 0000ad.ffffffff.0
Width: 985
VWidth: 1639
GlyphClass: 2
Flags: W
LayerCount: 2
Fore
SplineSet
230 525 m 1,0,-1
 966 525 l 1,1,-1
 945 436 l 1,2,-1
 977 436 l 1,3,-1
 941 282 l 1,4,-1
 249 282 l 1,5,-1
 259 325 l 1,6,-1
 184 325 l 1,7,-1
 230 525 l 1,0,-1
912 479 m 1,8,-1
 262 479 l 1,9,-1
 237 371 l 1,10,-1
 887 371 l 1,11,-1
 912 479 l 1,8,-1
EndSplineSet
EndChar

StartChar: period
Encoding: 46 46 17
Width: 600
VWidth: 1639
GlyphClass: 2
Flags: W
LayerCount: 2
Fore
SplineSet
266 289 m 0,0,1
 393 306 393 306 421 221 c 0,2,3
 423 214 423 214 424 167 c 0,4,5
 424 160 424 160 424 156 c 0,6,7
 425 146 425 146 431 130 c 0,8,9
 438 106 438 106 437 92 c 0,10,11
 432 10 432 10 361 -42 c 0,12,13
 327 -66 327 -66 291 -72 c 1,14,15
 247 -76 247 -76 216 -54 c 0,16,17
 211 -51 211 -51 203 -42 c 0,18,19
 195 -33 195 -33 191 -30 c 0,20,21
 186 -26 186 -26 173 -23 c 0,22,23
 163 -20 163 -20 160 -18 c 0,24,25
 121 8 121 8 112 52 c 1,26,27
 109 78 109 78 120 126 c 0,28,29
 132 174 132 174 143 197 c 0,30,31
 175 259 175 259 242 282 c 0,32,33
 255 287 255 287 266 289 c 0,0,1
290 241 m 0,34,35
 240 234 240 234 194 182 c 0,36,37
 170 155 170 155 165 130 c 0,38,39
 155 78 155 78 198 40 c 0,40,41
 206 34 206 34 212 30 c 0,42,43
 231 17 231 17 246 18 c 0,44,45
 298 25 298 25 344 78 c 0,46,47
 366 105 366 105 373 130 c 0,48,49
 385 182 385 182 338 221 c 0,50,51
 331 226 331 226 326 230 c 0,52,53
 306 242 306 242 290 241 c 0,34,35
EndSplineSet
EndChar

StartChar: slash
Encoding: 47 47 18
Width: 821
VWidth: 1639
GlyphClass: 2
Flags: W
LayerCount: 2
Fore
SplineSet
937 1266 m 1,0,-1
 952 1256 l 1,1,-1
 958 1266 l 1,2,-1
 973 1256 l 1,3,-1
 980 1266 l 1,4,-1
 1038 1220 l 1,5,-1
 1058 1202 l 1,6,-1
 1051 1186 l 1,7,-1
 1054 1176 l 1,8,-1
 1046 1163 l 1,9,-1
 1039 1138 l 1,10,11
 1069 1122 1069 1122 1070 1110 c 0,12,13
 1070 1108 1070 1108 1068 1105 c 128,-1,14
 1066 1102 1066 1102 1063.5 1099.5 c 128,-1,15
 1061 1097 1061 1097 1058 1093 c 2,16,-1
 1055 1089 l 1,17,-1
 1016 1040 l 2,18,19
 964 973 964 973 862 843 c 0,20,21
 788 749 788 749 640 559 c 0,22,23
 492 369 492 369 419 276 c 0,24,25
 389 238 389 238 328 161 c 0,26,27
 211 14 211 14 156 -61 c 1,28,-1
 97 -10 l 1,29,-1
 92 -18 l 1,30,31
 76 -11 76 -11 24 40 c 0,32,33
 18 45 18 45 14 49 c 1,34,-1
 27 67 l 1,35,-1
 19 72 l 1,36,-1
 33 90 l 1,37,-1
 25 95 l 1,38,39
 45 127 45 127 133 235 c 1,40,-1
 328 485 l 2,41,42
 413 595 413 595 937 1266 c 1,0,-1
992 1168 m 1,43,-1
 952 1199 l 1,44,-1
 865 1087 l 1,45,-1
 724 905 l 1,46,-1
 285 343 l 1,47,-1
 137 154 l 1,48,-1
 99 105 l 1,49,-1
 85 84 l 1,50,-1
 93 72 l 1,51,-1
 119 49 l 1,52,53
 125 58 125 58 191 143 c 0,54,55
 259 228 259 228 332 321 c 0,56,57
 474 505 474 505 758 868 c 0,58,59
 784 901 784 901 835 965 c 0,60,61
 886 1030 886 1030 912 1063 c 0,62,63
 920 1073 920 1073 936 1092 c 0,64,65
 977 1142 977 1142 992 1168 c 1,43,-1
EndSplineSet
EndChar

StartChar: colon
Encoding: 58 58 29
Width: 610
VWidth: 1639
GlyphClass: 2
Flags: W
LayerCount: 2
Fore
SplineSet
323 297 m 1,0,1
 314 299 314 299 292 322 c 0,2,3
 287 327 287 327 283 330 c 0,4,5
 278 334 278 334 265 337 c 0,6,7
 255 340 255 340 251 341 c 0,8,9
 214 366 214 366 204 412 c 1,10,11
 201 438 201 438 212 485 c 0,12,13
 224 536 224 536 234 554 c 0,14,15
 268 619 268 619 334 641 c 0,16,17
 351 646 351 646 366 648 c 0,18,19
 451 654 451 654 484 625 c 0,20,21
 516 598 516 598 518 553 c 0,22,23
 519 547 519 547 517 534 c 0,24,25
 516 521 516 521 516 515 c 0,26,27
 517 505 517 505 523 488 c 0,28,29
 531 463 531 463 530 449 c 0,30,31
 524 370 524 370 457 318 c 0,32,33
 445 309 445 309 434 303 c 0,34,35
 427 299 427 299 379 287 c 0,36,37
 375 286 375 286 372 285 c 1,38,39
 413 274 413 274 426 218 c 0,40,41
 428 210 428 210 428 203 c 0,42,43
 428 198 428 198 427 187 c 0,44,45
 426 170 426 170 426 162 c 0,46,47
 426 156 426 156 431 145 c 0,48,49
 435 136 435 136 436 133 c 0,50,51
 441 108 441 108 437 79 c 0,52,53
 423 -1 423 -1 349 -45 c 0,54,55
 304 -70 304 -70 262 -66 c 0,56,57
 232 -63 232 -63 211 -43 c 0,58,59
 209 -41 209 -41 205 -36 c 0,60,61
 197 -26 197 -26 192 -23 c 0,62,63
 187 -21 187 -21 177 -17 c 0,64,65
 166 -13 166 -13 162 -11 c 0,66,67
 132 8 132 8 118 43 c 1,68,69
 109 75 109 75 121 131 c 0,70,71
 150 248 150 248 233 285 c 0,72,73
 258 295 258 295 322 295 c 1,74,-1
 323 297 l 1,0,1
385 600 m 1,75,76
 337 597 337 597 290 544 c 0,77,78
 264 515 264 515 257 489 c 0,79,80
 246 441 246 441 286 401 c 0,81,82
 311 377 311 377 337 377 c 1,83,84
 385 380 385 380 432 433 c 0,85,86
 458 462 458 462 465 489 c 0,87,88
 476 537 476 537 436 577 c 0,89,90
 411 600 411 600 385 600 c 1,75,76
293 248 m 1,91,92
 243 243 243 243 197 189 c 0,93,94
 173 161 173 161 167 136 c 0,95,96
 156 86 156 86 198 47 c 0,97,98
 208 39 208 39 216 34 c 0,99,100
 233 25 233 25 246 25 c 1,101,102
 296 30 296 30 342 82 c 0,103,104
 366 110 366 110 373 136 c 0,105,106
 385 187 385 187 342 225 c 0,107,108
 332 233 332 233 323 238 c 0,109,110
 306 247 306 247 293 248 c 1,91,92
EndSplineSet
EndChar

StartChar: equal
Encoding: 61 61 32
Width: 783
VWidth: 1639
GlyphClass: 2
Flags: W
LayerCount: 2
Fore
SplineSet
156 636 m 1,0,-1
 891 636 l 1,1,-1
 870 548 l 1,2,-1
 902 548 l 1,3,-1
 867 394 l 1,4,-1
 174 394 l 1,5,-1
 184 436 l 1,6,-1
 110 436 l 1,7,-1
 156 636 l 1,0,-1
838 590 m 1,8,-1
 188 590 l 1,9,-1
 163 482 l 1,10,-1
 813 482 l 1,11,-1
 838 590 l 1,8,-1
97 387 m 1,12,-1
 833 387 l 1,13,-1
 813 298 l 1,14,-1
 845 298 l 1,15,-1
 809 144 l 1,16,-1
 115 144 l 1,17,-1
 125 187 l 1,18,-1
 50 187 l 1,19,-1
 97 387 l 1,12,-1
780 341 m 1,20,-1
 129 341 l 1,21,-1
 104 233 l 1,22,-1
 755 233 l 1,23,-1
 780 341 l 1,20,-1
EndSplineSet
EndChar

StartChar: bracketleft
Encoding: 91 91 62
Width: 632
VWidth: 1639
GlyphClass: 2
Flags: W
LayerCount: 2
Fore
SplineSet
539 1938 m 1,0,-1
 956 1938 l 1,1,-1
 936 1850 l 1,2,-1
 968 1850 l 1,3,-1
 950 1773 l 1,4,-1
 740 1773 l 1,5,-1
 324 -28 l 1,6,-1
 502 -28 l 1,7,-1
 482 -116 l 1,8,-1
 514 -116 l 1,9,-1
 497 -192 l 1,10,-1
 121 -192 l 1,11,-1
 131 -149 l 1,12,-1
 57 -149 l 1,13,-1
 539 1938 l 1,0,-1
903 1893 m 1,14,-1
 571 1893 l 1,15,-1
 110 -103 l 1,16,-1
 442 -103 l 1,17,-1
 449 -74 l 1,18,-1
 239 -74 l 1,19,-1
 685 1861 l 1,20,-1
 896 1861 l 1,21,-1
 903 1893 l 1,14,-1
EndSplineSet
EndChar

StartChar: bracketright
Encoding: 93 93 64
Width: 675
VWidth: 1639
GlyphClass: 2
Flags: W
LayerCount: 2
Fore
SplineSet
538 1935 m 1,0,-1
 908 1935 l 1,1,-1
 888 1847 l 1,2,-1
 920 1847 l 1,3,-1
 449 -192 l 1,4,-1
 121 -192 l 1,5,-1
 131 -149 l 1,6,-1
 57 -149 l 1,7,-1
 85 -28 l 1,8,-1
 248 -28 l 1,9,-1
 663 1771 l 1,10,-1
 575 1771 l 1,11,-1
 584 1814 l 1,12,-1
 510 1814 l 1,13,-1
 538 1935 l 1,0,-1
855 1889 m 1,14,-1
 570 1889 l 1,15,-1
 563 1860 l 1,16,-1
 726 1860 l 1,17,-1
 280 -74 l 1,18,-1
 117 -74 l 1,19,-1
 110 -103 l 1,20,-1
 395 -103 l 1,21,-1
 855 1889 l 1,14,-1
EndSplineSet
EndChar

StartChar: guillemotleft
Encoding: 171 171 175
Width: 941
VWidth: 1639
GlyphClass: 2
Flags: W
LayerCount: 2
Fore
SplineSet
412 -59 m 1,0,1
 397 -59 397 -59 365 -61 c 0,2,3
 265 -65 265 -65 226 -49 c 0,4,5
 208 -43 208 -43 196 -31 c 0,6,7
 194 -29 194 -29 191 -24 c 0,8,9
 186 -17 186 -17 183 -15 c 0,10,11
 176 -11 176 -11 162 -5 c 0,12,13
 133 8 133 8 123 23 c 0,14,15
 101 59 101 59 129 162 c 0,16,17
 135 185 135 185 137 195 c 2,18,-1
 233 610 l 2,19,20
 255 706 255 706 259 717 c 0,21,22
 276 760 276 760 304 784 c 1,23,24
 345 817 345 817 424 817 c 2,25,-1
 583 817 l 1,26,-1
 562 728 l 1,27,-1
 594 728 l 1,28,-1
 590 708 l 1,29,-1
 591 708 l 1,30,31
 606 772 606 772 667 801 c 0,32,33
 680 807 680 807 691 810 c 0,34,35
 718 817 718 817 782 817 c 2,36,-1
 917 817 l 1,37,-1
 896 728 l 1,38,-1
 928 728 l 1,39,-1
 898 599 l 1,40,41
 847 599 847 599 822 597 c 0,42,43
 794 596 794 596 781 587 c 1,44,45
 752 550 752 550 738 472 c 1,46,-1
 668 169 l 1,47,-1
 766 162 l 1,48,-1
 746 75 l 1,49,-1
 777 74 l 1,50,-1
 747 -59 l 1,51,-1
 640 -59 l 2,52,53
 583 -58 583 -58 558 -49 c 0,54,55
 551 -46 551 -46 528 -23 c 0,56,57
 522 -17 522 -17 517 -15 c 0,58,59
 511 -12 511 -12 496 -8 c 1,60,61
 469 5 469 5 457 23 c 0,62,63
 436 62 436 62 463 164 c 0,64,65
 469 187 469 187 472 197 c 2,66,-1
 564 599 l 1,67,68
 513 599 513 599 488 597 c 0,69,70
 460 596 460 596 447 587 c 1,71,72
 420 552 420 552 406 474 c 1,73,-1
 335 169 l 1,74,-1
 432 162 l 1,75,-1
 412 75 l 1,76,-1
 443 74 l 1,77,-1
 412 -59 l 1,0,1
529 771 m 1,78,79
 518 771 518 771 495 772 c 0,80,81
 390 776 390 776 345 745 c 0,82,83
 338 740 338 740 334 736 c 0,84,85
 295 701 295 701 275 608 c 0,86,87
 271 588 271 588 269 581 c 2,88,-1
 186 223 l 2,89,90
 165 133 165 133 166 112 c 0,91,92
 167 86 167 86 177 69 c 0,93,94
 204 25 204 25 312 28 c 0,95,96
 352 29 352 29 358 30 c 1,97,-1
 378 116 l 1,98,99
 346 116 346 116 294 123 c 1,100,101
 269 128 269 128 264 136 c 0,102,103
 257 151 257 151 264 184 c 2,104,-1
 281 257 l 1,105,-1
 350 558 l 2,106,107
 352 565 352 565 355 581 c 0,108,109
 368 651 368 651 389 672 c 1,110,111
 404 685 404 685 433 686 c 0,112,113
 461 688 461 688 510 687 c 1,114,-1
 529 771 l 1,78,79
863 771 m 1,115,116
 852 771 852 771 829 772 c 0,117,118
 724 777 724 777 679 745 c 0,119,120
 672 740 672 740 668 736 c 0,121,122
 628 700 628 700 608 606 c 0,123,124
 604 586 604 586 602 579 c 2,125,-1
 520 220 l 2,126,127
 499 130 499 130 500 109 c 0,128,129
 502 83 502 83 511 66 c 0,130,131
 539 24 539 24 651 28 c 0,132,133
 684 29 684 29 692 30 c 1,134,-1
 712 116 l 1,135,136
 663 116 663 116 628 123 c 0,137,138
 602 128 602 128 596 136 c 0,139,140
 585 157 585 157 609 239 c 0,141,142
 612 251 612 251 614 257 c 2,143,-1
 682 554 l 2,144,145
 684 561 684 561 687 578 c 0,146,147
 701 649 701 649 721 671 c 1,148,149
 738 686 738 686 767 686 c 0,150,151
 795 688 795 688 844 687 c 1,152,-1
 863 771 l 1,115,116
EndSplineSet
EndChar

StartChar: guillemotright
Encoding: 187 187 176
Width: 943
VWidth: 1639
GlyphClass: 2
Flags: W
LayerCount: 2
Fore
SplineSet
280 817 m 1,0,-1
 431 817 l 2,1,2
 508 816 508 816 532 795 c 0,3,4
 556 773 556 773 557 731 c 0,5,6
 557 727 557 727 556 718 c 0,7,8
 555 702 555 702 557 695 c 0,9,10
 558 689 558 689 562 679 c 0,11,12
 568 659 568 659 568 648 c 0,13,14
 569 614 569 614 541 501 c 0,15,16
 538 490 538 490 536 482 c 2,17,-1
 463 162 l 1,18,19
 495 162 495 162 549 169 c 1,20,21
 577 174 577 174 586 182 c 1,22,23
 606 211 606 211 618 276 c 1,24,-1
 670 500 l 1,25,-1
 686 567 l 2,26,27
 691 593 691 593 691 595 c 0,28,29
 688 599 688 599 676 599 c 2,30,-1
 638 599 l 1,31,-1
 647 640 l 1,32,-1
 573 641 l 1,33,-1
 614 817 l 1,34,-1
 775 817 l 2,35,36
 849 816 849 816 874 787 c 1,37,38
 892 760 892 760 891 730 c 0,39,40
 891 725 891 725 890 715 c 0,41,42
 889 701 889 701 889 695 c 0,43,44
 891 689 891 689 895 678 c 0,45,46
 902 657 902 657 903 645 c 0,47,48
 904 611 904 611 874 496 c 0,49,50
 870 482 870 482 868 472 c 2,51,-1
 801 180 l 2,52,53
 798 168 798 168 793 140 c 0,54,55
 771 24 771 24 733 -15 c 0,56,57
 729 -19 729 -19 727 -21 c 0,58,59
 685 -59 685 -59 599 -59 c 2,60,-1
 486 -59 l 1,61,-1
 496 -16 l 1,62,-1
 421 -16 l 1,63,-1
 436 49 l 1,64,-1
 435 49 l 1,65,66
 432 36 432 36 421 15 c 0,67,68
 381 -60 381 -60 264 -60 c 0,69,70
 252 -60 252 -60 230 -60 c 0,71,72
 211 -59 211 -59 202 -59 c 2,73,-1
 152 -59 l 1,74,-1
 162 -16 l 1,75,-1
 87 -16 l 1,76,-1
 128 162 l 1,77,78
 177 162 177 162 215 169 c 0,79,80
 243 174 243 174 250 179 c 0,81,82
 272 198 272 198 285 275 c 0,83,84
 287 286 287 286 288 292 c 2,85,-1
 359 599 l 1,86,-1
 304 599 l 1,87,-1
 313 640 l 1,88,-1
 239 641 l 1,89,-1
 280 817 l 1,0,-1
141 30 m 1,90,91
 151 30 151 30 173 29 c 0,92,93
 279 25 279 25 325 56 c 0,94,95
 334 63 334 63 340 69 c 0,96,97
 377 103 377 103 396 196 c 0,98,99
 400 216 400 216 402 225 c 2,100,-1
 485 584 l 2,101,102
 505 672 505 672 504 693 c 0,103,104
 502 719 502 719 491 736 c 0,105,106
 463 776 463 776 353 772 c 0,107,108
 320 771 320 771 312 771 c 1,109,-1
 292 687 l 1,110,111
 343 687 343 687 368 686 c 0,112,113
 398 685 398 685 406 672 c 0,114,115
 419 651 419 651 395 569 c 0,116,117
 392 557 392 557 391 551 c 2,118,-1
 321 251 l 2,119,120
 319 243 319 243 316 225 c 0,121,122
 304 157 304 157 284 136 c 0,123,124
 273 126 273 126 248 123 c 0,125,126
 209 117 209 117 161 116 c 1,127,-1
 141 30 l 1,90,91
475 30 m 1,128,129
 485 30 485 30 507 29 c 0,130,131
 614 25 614 25 659 56 c 0,132,133
 668 63 668 63 674 69 c 0,134,135
 710 104 710 104 731 200 c 0,136,137
 735 218 735 218 736 225 c 2,138,-1
 818 579 l 2,139,140
 839 669 839 669 838 690 c 0,141,142
 836 715 836 715 827 731 c 0,143,144
 799 775 799 775 693 772 c 0,145,146
 650 771 650 771 646 771 c 1,147,-1
 626 687 l 1,148,149
 677 687 677 687 702 686 c 0,150,151
 732 685 732 685 740 672 c 0,152,153
 753 651 753 651 729 568 c 0,154,155
 726 556 726 556 724 549 c 2,156,-1
 656 253 l 2,157,158
 654 246 654 246 651 228 c 0,159,160
 638 158 638 158 618 136 c 0,161,162
 608 126 608 126 582 123 c 0,163,164
 525 117 525 117 495 116 c 1,165,-1
 475 30 l 1,128,129
EndSplineSet
EndChar

StartChar: guilsinglleft
Encoding: 8249 8249 195
Width: 520
GlyphClass: 2
Flags: W
LayerCount: 2
Fore
SplineSet
340 70 m 1,0,1
 347 48 347 48 344 35 c 0,2,3
 342 26 342 26 331 26 c 0,4,5
 323 26 323 26 309 33 c 1,6,7
 269 73 269 73 241.5 128 c 128,-1,8
 214 183 214 183 201 255 c 0,9,10
 189 321 189 321 192.5 385 c 128,-1,11
 196 449 196 449 209 513 c 1,12,13
 242 656 242 656 331 783 c 1,14,15
 421 904 421 904 523 958 c 1,16,17
 551 969 551 969 555 969 c 0,18,19
 562 969 562 969 561 963 c 0,20,21
 559 953 559 953 528 912 c 1,22,23
 379 746 379 746 325 513 c 0,24,25
 264 249 264 249 340 70 c 1,0,1
EndSplineSet
EndChar

StartChar: guilsinglright
Encoding: 8250 8250 196
Width: 523
GlyphClass: 2
Flags: W
LayerCount: 2
Fore
SplineSet
121 70 m 1,0,1
 282 249 282 249 343 513 c 0,2,3
 398 751 398 751 322 913 c 1,4,5
 311 954 311 954 313 963 c 0,6,7
 314 969 314 969 322 969 c 0,8,9
 324 969 324 969 331 966.5 c 128,-1,10
 338 964 338 964 347 958 c 0,11,12
 388 931 388 931 415.5 887 c 128,-1,13
 443 843 443 843 459 783 c 0,14,15
 477 718 477 718 476 650.5 c 128,-1,16
 475 583 475 583 460 513 c 0,17,18
 445 450 445 450 415.5 385 c 128,-1,19
 386 320 386 320 344 255 c 0,20,21
 301 188 301 188 246.5 130 c 128,-1,22
 192 72 192 72 134 33 c 1,23,24
 119 26 119 26 109 26 c 0,25,26
 98 26 98 26 100 35 c 0,27,28
 103 47 103 47 121 70 c 1,0,1
EndSplineSet
EndChar

StartChar: afii57451
Encoding: 1611 1611 311
AltUni2: 00fe70.ffffffff.0
Width: -65
VWidth: 1639
GlyphClass: 2
Flags: HW
AnchorPoint: "GposMark2BaseAnchorHamzaErabAbove_01_01" 500.5 1484 mark 0
AnchorPoint: "GposMark2BaseAnchorHamzaErabBelow_01_01" 500.5 1786 mark 0
AnchorPoint: "GposMark2BaseAnchorClassErabAbove_01_02" 500.5 1484 mark 0
AnchorPoint: "GposMark2MarkAnchorHamzaErabAbove_01_01" 500.5 1484 mark 0
AnchorPoint: "GposMark2MarkAnchorHamzaErabBelow_01_01" 500.5 1786 mark 0
AnchorPoint: "GposMark2MarkAnchorShaddaErabAbove_01_02" 500.5 1484 mark 0
AnchorPoint: "GposMark2MarkAnchorShaddaErabBelow_01_02" 500.5 1786 mark 0
LayerCount: 2
Fore
SplineSet
356 1786 m 1,0,-1
 696 1786 l 1,1,-1
 676 1697 l 1,2,-1
 708 1697 l 1,3,-1
 692 1630 l 1,4,-1
 657 1630 l 1,5,-1
 639 1551 l 1,6,-1
 671 1551 l 1,7,-1
 656 1484 l 1,8,-1
 358 1484 l 1,9,-1
 368 1527 l 1,10,-1
 293 1527 l 1,11,-1
 319 1640 l 1,12,-1
 397 1640 l 1,13,-1
 405 1673 l 1,14,-1
 330 1673 l 1,15,-1
 356 1786 l 1,0,-1
643 1740 m 1,16,-1
 388 1740 l 1,17,-1
 383 1719 l 1,18,-1
 638 1719 l 1,19,-1
 643 1740 l 1,16,-1
606 1594 m 1,20,-1
 352 1594 l 1,21,-1
 347 1573 l 1,22,-1
 601 1573 l 1,23,-1
 606 1594 l 1,20,-1
EndSplineSet
EndChar

StartChar: afii57452
Encoding: 1612 1612 312
AltUni2: 00fe72.ffffffff.0
Width: -27
VWidth: 1639
GlyphClass: 2
Flags: HW
AnchorPoint: "GposMark2BaseAnchorHamzaErabAbove_01_01" 491.5 1484 mark 0
AnchorPoint: "GposMark2BaseAnchorHamzaErabBelow_01_01" 491.5 1819 mark 0
AnchorPoint: "GposMark2BaseAnchorClassErabAbove_01_02" 491.5 1484 mark 0
AnchorPoint: "GposMark2MarkAnchorHamzaErabAbove_01_01" 491.5 1484 mark 0
AnchorPoint: "GposMark2MarkAnchorHamzaErabBelow_01_01" 491.5 1819 mark 0
AnchorPoint: "GposMark2MarkAnchorShaddaErabAbove_01_02" 491.5 1484 mark 0
AnchorPoint: "GposMark2MarkAnchorShaddaErabBelow_01_02" 491.5 1819 mark 0
LayerCount: 2
Fore
SplineSet
423 1689 m 1,0,1
 477 1815 477 1815 674 1819 c 1,2,-1
 725 1819 l 1,3,-1
 704 1729 l 1,4,-1
 736 1730 l 1,5,-1
 679 1484 l 1,6,-1
 312 1484 l 1,7,-1
 322 1527 l 1,8,-1
 247 1527 l 1,9,-1
 279 1666 l 1,10,-1
 325 1666 l 1,11,-1
 351 1778 l 1,12,-1
 430 1778 l 1,13,-1
 409 1689 l 1,14,-1
 423 1689 l 1,0,1
671 1771 m 1,15,16
 551 1755 551 1755 503 1713 c 0,17,18
 479 1691 479 1691 464 1663 c 0,19,20
 454 1644 454 1644 448 1620 c 1,21,-1
 311 1620 l 1,22,-1
 300 1573 l 1,23,-1
 625 1573 l 1,24,-1
 671 1771 l 1,15,16
483 1670 m 1,25,26
 478 1673 478 1673 485 1688 c 0,27,28
 498 1711 498 1711 523 1724 c 1,29,30
 567 1739 567 1739 646 1737 c 1,31,-1
 620 1624 l 1,32,-1
 468 1624 l 1,33,-1
 477 1647 l 1,34,35
 470 1650 470 1650 483 1670 c 1,25,26
EndSplineSet
EndChar

StartChar: afii57453
Encoding: 1613 1613 313
AltUni2: 00fe74.ffffffff.0
Width: -67
VWidth: 1639
GlyphClass: 2
Flags: HW
AnchorPoint: "GposMark2BaseAnchorClassErabBelow_01_02" -142.5 -120 mark 0
LayerCount: 2
Fore
SplineSet
-287 -120 m 1,0,-1
 53 -120 l 1,1,-1
 33 -208 l 1,2,-1
 65 -208 l 1,3,-1
 50 -276 l 1,4,-1
 14 -276 l 1,5,-1
 -4 -354 l 1,6,-1
 28 -354 l 1,7,-1
 13 -421 l 1,8,-1
 -285 -421 l 1,9,-1
 -275 -379 l 1,10,-1
 -350 -379 l 1,11,-1
 -323 -266 l 1,12,-1
 -246 -266 l 1,13,-1
 -238 -233 l 1,14,-1
 -313 -233 l 1,15,-1
 -287 -120 l 1,0,-1
0 -166 m 1,16,-1
 -255 -166 l 1,17,-1
 -259 -187 l 1,18,-1
 -5 -187 l 1,19,-1
 0 -166 l 1,16,-1
-37 -312 m 1,20,-1
 -291 -312 l 1,21,-1
 -296 -333 l 1,22,-1
 -42 -333 l 1,23,-1
 -37 -312 l 1,20,-1
EndSplineSet
EndChar

StartChar: afii57454
Encoding: 1614 1614 314
AltUni2: 00fe76.ffffffff.0
Width: -58
VWidth: 1639
GlyphClass: 2
Flags: HW
AnchorPoint: "GposMark2BaseAnchorHamzaErabAbove_01_01" 457 1484 mark 0
AnchorPoint: "GposMark2BaseAnchorHamzaErabBelow_01_01" 457 1640 mark 0
AnchorPoint: "GposMark2BaseAnchorClassErabAbove_01_02" 457 1484 mark 0
AnchorPoint: "GposMark2MarkAnchorHamzaErabAbove_01_01" 457 1484 mark 0
AnchorPoint: "GposMark2MarkAnchorHamzaErabBelow_01_01" 457 1640 mark 0
AnchorPoint: "GposMark2MarkAnchorShaddaErabAbove_01_02" 457 1484 mark 0
AnchorPoint: "GposMark2MarkAnchorShaddaErabBelow_01_02" 457 1640 mark 0
LayerCount: 2
Fore
SplineSet
294 1640 m 1,0,-1
 634 1640 l 1,1,-1
 614 1551 l 1,2,-1
 646 1551 l 1,3,-1
 630 1484 l 1,4,-1
 333 1484 l 1,5,-1
 343 1527 l 1,6,-1
 268 1527 l 1,7,-1
 294 1640 l 1,0,-1
581 1594 m 1,8,-1
 326 1594 l 1,9,-1
 321 1573 l 1,10,-1
 576 1573 l 1,11,-1
 581 1594 l 1,8,-1
EndSplineSet
EndChar

StartChar: afii57455
Encoding: 1615 1615 315
AltUni2: 00fe78.ffffffff.0
Width: -21
VWidth: 1639
GlyphClass: 2
Flags: HW
AnchorPoint: "GposMark2BaseAnchorHamzaErabAbove_01_01" 460.5 1484 mark 0
AnchorPoint: "GposMark2BaseAnchorHamzaErabBelow_01_01" 460.5 1819 mark 0
AnchorPoint: "GposMark2BaseAnchorClassErabAbove_01_02" 460.5 1484 mark 0
AnchorPoint: "GposMark2MarkAnchorHamzaErabAbove_01_01" 460.5 1484 mark 0
AnchorPoint: "GposMark2MarkAnchorHamzaErabBelow_01_01" 460.5 1819 mark 0
AnchorPoint: "GposMark2MarkAnchorShaddaErabAbove_01_02" 460.5 1484 mark 0
AnchorPoint: "GposMark2MarkAnchorShaddaErabBelow_01_02" 460.5 1819 mark 0
LayerCount: 2
Fore
SplineSet
385 1666 m 1,0,1
 391 1692 391 1692 401 1709 c 0,2,3
 453 1814 453 1814 638 1818 c 0,4,5
 653 1818 653 1818 694 1819 c 1,6,-1
 673 1729 l 1,7,-1
 705 1730 l 1,8,-1
 648 1484 l 1,9,-1
 281 1484 l 1,10,-1
 291 1527 l 1,11,-1
 216 1527 l 1,12,-1
 248 1666 l 1,13,-1
 385 1666 l 1,0,1
640 1771 m 1,14,15
 520 1755 520 1755 472 1713 c 0,16,17
 448 1691 448 1691 433 1663 c 0,18,19
 423 1644 423 1644 418 1620 c 1,20,-1
 280 1620 l 1,21,-1
 269 1573 l 1,22,-1
 594 1573 l 1,23,-1
 640 1771 l 1,14,15
452 1670 m 1,24,25
 447 1673 447 1673 454 1688 c 0,26,27
 467 1711 467 1711 492 1724 c 1,28,29
 536 1739 536 1739 615 1737 c 1,30,-1
 589 1624 l 1,31,-1
 437 1624 l 1,32,-1
 446 1647 l 1,33,34
 439 1650 439 1650 452 1670 c 1,24,25
EndSplineSet
EndChar

StartChar: afii57456
Encoding: 1616 1616 316
AltUni2: 00fe7a.ffffffff.0
Width: -60
VWidth: 1639
GlyphClass: 2
Flags: HW
AnchorPoint: "GposMark2BaseAnchorClassErabBelow_01_02" -121.5 -120 mark 0
LayerCount: 2
Fore
SplineSet
-284 -120 m 1,0,-1
 56 -120 l 1,1,-1
 35 -208 l 1,2,-1
 67 -208 l 1,3,-1
 52 -276 l 1,4,-1
 -245 -276 l 1,5,-1
 -236 -233 l 1,6,-1
 -310 -233 l 1,7,-1
 -284 -120 l 1,0,-1
3 -166 m 1,8,-1
 -252 -166 l 1,9,-1
 -257 -187 l 1,10,-1
 -2 -187 l 1,11,-1
 3 -166 l 1,8,-1
EndSplineSet
EndChar

StartChar: afii57457
Encoding: 1617 1617 317
AltUni2: 00fe7c.ffffffff.0
Width: 134
VWidth: 1639
GlyphClass: 2
Flags: HW
AnchorPoint: "GposMark2BaseAnchorHamzaErabAbove_01_01" 597.5 1472 mark 0
AnchorPoint: "GposMark2BaseAnchorHamzaErabBelow_01_01" 597.5 1829 mark 0
AnchorPoint: "GposMark2BaseAnchorClassErabAbove_01_02" 597.5 1472 mark 0
AnchorPoint: "GposMark2MarkAnchorHamzaErabAbove_01_01" 597.5 1472 mark 0
AnchorPoint: "GposMark2MarkAnchorHamzaErabBelow_01_01" 597.5 1829 mark 0
AnchorPoint: "GposMark2MarkAnchorShaddaErabAbove_01_02" 597.5 1979 basemark 0
AnchorPoint: "GposMark2MarkAnchorShaddaErabBelow_01_02" 597.5 1322 basemark 0
LayerCount: 2
Fore
SplineSet
374 1829 m 1,0,-1
 491 1829 l 1,1,-1
 481 1765 l 1,2,-1
 481 1743 l 1,3,-1
 503 1740 l 1,4,-1
 493 1684 l 1,5,-1
 495 1684 l 1,6,7
 535 1754 535 1754 552 1829 c 1,8,-1
 667 1829 l 1,9,-1
 654 1740 l 1,10,-1
 678 1740 l 1,11,-1
 670 1689 l 1,12,-1
 671 1689 l 1,13,-1
 696 1732 l 1,14,-1
 728 1829 l 1,15,-1
 851 1829 l 1,16,-1
 831 1740 l 1,17,-1
 863 1740 l 1,18,19
 836 1626 836 1626 798 1563 c 1,20,21
 761 1508 761 1508 720 1492 c 0,22,23
 700 1485 700 1485 670 1486 c 0,24,25
 646 1487 646 1487 627 1506 c 0,26,27
 623 1509 623 1509 618 1516 c 0,28,29
 604 1531 604 1531 590 1530 c 0,30,31
 584 1529 584 1529 564 1510 c 1,32,33
 542 1494 542 1494 520 1489 c 0,34,35
 463 1472 463 1472 429 1499 c 0,36,37
 424 1502 424 1502 418 1512 c 0,38,39
 411 1522 411 1522 408 1525 c 0,40,41
 405 1526 405 1526 384 1530 c 1,42,43
 361 1539 361 1539 350 1558 c 0,44,45
 332 1592 332 1592 340 1655 c 0,46,47
 347 1714 347 1714 374 1829 c 1,0,-1
438 1783 m 1,48,-1
 406 1783 l 1,49,50
 388 1678 388 1678 390 1648 c 0,51,52
 391 1635 391 1635 394 1625 c 0,53,54
 402 1605 402 1605 407 1597 c 0,55,56
 448 1545 448 1545 522 1612 c 0,57,58
 538 1627 538 1627 551 1643 c 1,59,-1
 555 1624 l 1,60,-1
 557 1624 l 1,61,-1
 572 1643 l 1,62,-1
 577 1624 l 1,63,-1
 578 1624 l 1,64,-1
 593 1643 l 1,65,66
 600 1586 600 1586 638 1577 c 0,67,68
 644 1576 644 1576 648 1576 c 0,69,70
 682 1578 682 1578 717 1617 c 1,71,72
 771 1675 771 1675 796 1783 c 1,73,-1
 760 1783 l 1,74,75
 756 1772 756 1772 750 1749 c 0,76,77
 727 1669 727 1669 700 1642 c 1,78,79
 686 1630 686 1630 661 1630 c 1,80,81
 627 1626 627 1626 618 1632 c 0,82,83
 604 1644 604 1644 601 1671 c 0,84,85
 598 1716 598 1716 613 1783 c 1,86,-1
 584 1783 l 1,87,88
 559 1676 559 1676 530 1643 c 0,89,90
 525 1638 525 1638 521 1635 c 0,91,92
 513 1628 513 1628 490 1627 c 0,93,94
 487 1627 487 1627 486 1627 c 0,95,96
 456 1624 456 1624 444 1630 c 0,97,98
 428 1640 428 1640 426 1671 c 0,99,100
 423 1717 423 1717 438 1783 c 1,48,-1
EndSplineSet
EndChar

StartChar: afii57458
Encoding: 1618 1618 318
AltUni2: 00fe7e.ffffffff.0
Width: -7
VWidth: 1639
GlyphClass: 2
Flags: HW
AnchorPoint: "GposMark2BaseAnchorHamzaErabAbove_01_01" 500 1480 mark 0
AnchorPoint: "GposMark2BaseAnchorHamzaErabBelow_01_01" 500 1858 mark 0
AnchorPoint: "GposMark2BaseAnchorClassErabAbove_01_02" 500 1480 mark 0
AnchorPoint: "GposMark2MarkAnchorHamzaErabAbove_01_01" 500 1480 mark 0
AnchorPoint: "GposMark2MarkAnchorHamzaErabBelow_01_01" 500 1858 mark 0
AnchorPoint: "GposMark2MarkAnchorShaddaErabAbove_01_02" 500 1480 mark 0
AnchorPoint: "GposMark2MarkAnchorShaddaErabBelow_01_02" 500 1858 mark 0
LayerCount: 2
Fore
SplineSet
495 1845 m 0,0,1
 621 1858 621 1858 648 1774 c 0,2,3
 650 1769 650 1769 650 1724 c 0,4,5
 650 1717 650 1717 651 1712 c 0,6,7
 652 1702 652 1702 657 1686 c 0,8,9
 664 1662 664 1662 664 1648 c 0,10,11
 660 1568 660 1568 590 1516 c 0,12,13
 555 1491 555 1491 519 1484 c 1,14,15
 474 1480 474 1480 441 1502 c 0,16,17
 437 1505 437 1505 431 1513 c 0,18,19
 422 1523 422 1523 417 1527 c 0,20,21
 413 1529 413 1529 403 1532 c 0,22,23
 393 1535 393 1535 389 1537 c 0,24,25
 347 1563 347 1563 339 1609 c 1,26,27
 336 1635 336 1635 347 1683 c 0,28,29
 359 1733 359 1733 371 1755 c 0,30,31
 409 1825 409 1825 485 1843 c 0,32,33
 490 1844 490 1844 495 1845 c 0,0,1
564 1778 m 1,34,35
 540 1797 540 1797 520 1797 c 0,36,37
 471 1795 471 1795 422 1739 c 0,38,39
 400 1712 400 1712 392 1688 c 1,40,41
 381 1643 381 1643 420 1599 c 0,42,43
 444 1574 444 1574 468 1574 c 0,44,45
 511 1575 511 1575 557 1622 c 0,46,47
 615 1681 615 1681 597 1728 c 0,48,49
 593 1736 593 1736 589 1742 c 1,50,51
 591 1678 591 1678 561 1636 c 0,52,53
 557 1631 557 1631 555 1629 c 0,54,55
 525 1605 525 1605 472 1606 c 0,56,57
 432 1607 432 1607 421 1620 c 1,58,59
 409 1644 409 1644 422 1701 c 0,60,61
 430 1732 430 1732 435 1740 c 0,62,63
 445 1758 445 1758 459 1768 c 0,64,65
 489 1785 489 1785 563 1776 c 1,66,-1
 564 1778 l 1,34,35
532 1688 m 1,67,68
 506 1679 506 1679 490 1655 c 1,69,70
 519 1660 519 1660 532 1688 c 1,67,68
EndSplineSet
EndChar

StartChar: uni0654
Encoding: 1620 1620 320
Width: 0
VWidth: 1639
GlyphClass: 2
Flags: HW
AnchorPoint: "GposMark2BaseAnchorClassErabAbove_01_02" 512.5 1484 mark 0
AnchorPoint: "GposMark2MarkAnchorHamzaErabAbove_01_01" 512.5 1979 basemark 0
AnchorPoint: "GposMark2MarkAnchorHamzaErabBelow_01_01" 512.5 1334 basemark 0
LayerCount: 2
Fore
SplineSet
404 1661 m 1,0,1
 421 1732 421 1732 430 1750 c 0,2,3
 470 1826 470 1826 577 1829 c 0,4,5
 579 1829 579 1829 634 1829 c 2,6,-1
 692 1829 l 1,7,-1
 672 1740 l 1,8,-1
 704 1740 l 1,9,-1
 684 1653 l 1,10,-1
 652 1653 l 1,11,-1
 633 1573 l 1,12,-1
 665 1573 l 1,13,-1
 645 1484 l 1,14,-1
 386 1484 l 1,15,-1
 395 1527 l 1,16,-1
 321 1527 l 1,17,-1
 352 1661 l 1,18,-1
 404 1661 l 1,0,1
639 1783 m 1,19,20
 536 1783 536 1783 493 1745 c 0,21,22
 473 1727 473 1727 460 1702 c 0,23,24
 451 1683 451 1683 436 1615 c 1,25,-1
 384 1615 l 1,26,-1
 374 1573 l 1,27,-1
 591 1573 l 1,28,-1
 600 1615 l 1,29,-1
 474 1615 l 1,30,-1
 489 1683 l 2,31,32
 496 1711 496 1711 502 1719 c 0,33,34
 526 1749 526 1749 608 1743 c 0,35,36
 623 1742 623 1742 630 1742 c 1,37,-1
 639 1783 l 1,19,20
EndSplineSet
EndChar

StartChar: uni0655
Encoding: 1621 1621 321
Width: 1
VWidth: 1639
GlyphClass: 2
Flags: HW
AnchorPoint: "GposMark2BaseAnchorClassErabBelow_01_02" -137.5 -120 mark 0
LayerCount: 2
Fore
SplineSet
-246 -287 m 1,0,1
 -229 -216 -229 -216 -220 -198 c 0,2,3
 -180 -122 -180 -122 -73 -120 c 0,4,5
 -71 -120 -71 -120 -16 -120 c 2,6,-1
 42 -120 l 1,7,-1
 22 -208 l 1,8,-1
 54 -208 l 1,9,-1
 34 -295 l 1,10,-1
 2 -295 l 1,11,-1
 -17 -376 l 1,12,-1
 15 -376 l 1,13,-1
 -5 -464 l 1,14,-1
 -264 -464 l 1,15,-1
 -255 -421 l 1,16,-1
 -329 -421 l 1,17,-1
 -298 -287 l 1,18,-1
 -246 -287 l 1,0,1
-11 -166 m 1,19,20
 -114 -166 -114 -166 -157 -203 c 0,21,22
 -177 -221 -177 -221 -190 -246 c 0,23,24
 -199 -265 -199 -265 -214 -333 c 1,25,-1
 -266 -333 l 1,26,-1
 -276 -376 l 1,27,-1
 -59 -376 l 1,28,-1
 -50 -333 l 1,29,-1
 -176 -333 l 1,30,-1
 -161 -266 l 2,31,32
 -154 -238 -154 -238 -148 -230 c 0,33,34
 -124 -200 -124 -200 -42 -206 c 0,35,36
 -27 -207 -27 -207 -20 -207 c 1,37,-1
 -11 -166 l 1,19,20
EndSplineSet
EndChar

StartChar: uni0656
Encoding: 1622 1622 322
Width: 113
VWidth: 1639
GlyphClass: 2
Flags: HW
AnchorPoint: "GposMark2BaseAnchorClassErabBelow_01_02" -90 -120 mark 0
LayerCount: 2
Fore
SplineSet
-130 -120 m 1,0,-1
 46 -120 l 1,1,-1
 25 -208 l 1,2,-1
 57 -208 l 1,3,-1
 -40 -630 l 1,4,-1
 -173 -630 l 1,5,-1
 -163 -587 l 1,6,-1
 -237 -587 l 1,7,-1
 -130 -120 l 1,0,-1
-7 -166 m 1,8,-1
 -97 -166 l 1,9,-1
 -184 -541 l 1,10,-1
 -94 -541 l 1,11,-1
 -7 -166 l 1,8,-1
EndSplineSet
EndChar

StartChar: uni0670
Encoding: 1648 1648 326
Width: 113
VWidth: 1639
GlyphClass: 2
Flags: HW
AnchorPoint: "GposMark2BaseAnchorHamzaErabAbove_01_01" 550 1484 mark 0
AnchorPoint: "GposMark2BaseAnchorHamzaErabBelow_01_01" 550 1994 mark 0
AnchorPoint: "GposMark2BaseAnchorClassErabAbove_01_02" 550 1484 mark 0
AnchorPoint: "GposMark2MarkAnchorHamzaErabAbove_01_01" 550 1484 mark 0
AnchorPoint: "GposMark2MarkAnchorHamzaErabBelow_01_01" 550 1994 mark 0
AnchorPoint: "GposMark2MarkAnchorShaddaErabAbove_01_02" 550 1484 mark 0
AnchorPoint: "GposMark2MarkAnchorShaddaErabBelow_01_02" 550 1994 mark 0
LayerCount: 2
Fore
SplineSet
510 1994 m 1,0,-1
 686 1994 l 1,1,-1
 665 1906 l 1,2,-1
 697 1906 l 1,3,-1
 600 1484 l 1,4,-1
 467 1484 l 1,5,-1
 477 1527 l 1,6,-1
 403 1527 l 1,7,-1
 510 1994 l 1,0,-1
633 1948 m 1,8,-1
 543 1948 l 1,9,-1
 456 1573 l 1,10,-1
 546 1573 l 1,11,-1
 633 1948 l 1,8,-1
EndSplineSet
EndChar

StartChar: uni0674
Encoding: 1652 1652 327
Width: 107
GlyphClass: 2
Flags: HW
AnchorPoint: "GposMark2BaseAnchorClassErabAbove_01_02" 590 1014 mark 0
AnchorPoint: "GposMark2MarkAnchorHamzaErabAbove_01_01" 590 1579 basemark 0
AnchorPoint: "GposMark2MarkAnchorHamzaErabBelow_01_01" 590 864 basemark 0
LayerCount: 2
Fore
SplineSet
764 1178 m 2,0,1
 755 1160 755 1160 745 1145 c 128,-1,2
 735 1130 735 1130 731 1129 c 0,3,4
 684 1118 684 1118 644.5 1109 c 128,-1,5
 605 1100 605 1100 587 1095 c 0,6,7
 541 1082 541 1082 496.5 1062 c 128,-1,8
 452 1042 452 1042 414 1018 c 1,9,10
 409 1014 409 1014 405 1014 c 0,11,12
 402 1014 402 1014 398.5 1018 c 128,-1,13
 395 1022 395 1022 396 1025 c 256,14,15
 397 1028 397 1028 402 1032 c 1,16,-1
 402 1031 l 1,17,18
 417 1051 417 1051 447 1076 c 128,-1,19
 477 1101 477 1101 522 1136 c 1,20,21
 448 1171 448 1171 463 1233 c 0,22,23
 474 1282 474 1282 559 1355 c 1,24,25
 648 1429 648 1429 708 1429 c 0,26,27
 718 1429 718 1429 729 1425.5 c 128,-1,28
 740 1422 740 1422 747.5 1415.5 c 128,-1,29
 755 1409 755 1409 759 1400.5 c 128,-1,30
 763 1392 763 1392 761 1382 c 0,31,32
 758 1368 758 1368 751.5 1353.5 c 128,-1,33
 745 1339 745 1339 736.5 1327 c 128,-1,34
 728 1315 728 1315 719 1307.5 c 128,-1,35
 710 1300 710 1300 703 1300 c 0,36,37
 699 1300 699 1300 694 1307.5 c 128,-1,38
 689 1315 689 1315 681.5 1323.5 c 128,-1,39
 674 1332 674 1332 664 1339.5 c 128,-1,40
 654 1347 654 1347 641 1347 c 256,41,42
 628 1347 628 1347 611.5 1339.5 c 128,-1,43
 595 1332 595 1332 579.5 1321.5 c 128,-1,44
 564 1311 564 1311 553 1299 c 128,-1,45
 542 1287 542 1287 540 1277 c 0,46,47
 536 1259 536 1259 543.5 1244 c 128,-1,48
 551 1229 551 1229 565.5 1218 c 128,-1,49
 580 1207 580 1207 601 1201 c 128,-1,50
 622 1195 622 1195 644 1195 c 0,51,52
 647 1195 647 1195 668 1200 c 128,-1,53
 689 1205 689 1205 713.5 1210.5 c 128,-1,54
 738 1216 738 1216 759.5 1221 c 128,-1,55
 781 1226 781 1226 785 1226 c 1,56,-1
 764 1178 l 2,0,1
EndSplineSet
EndChar

StartChar: afii57388
Encoding: 1548 1548 329
Width: 614
VWidth: 1639
GlyphClass: 2
Flags: W
LayerCount: 2
Fore
SplineSet
374 285 m 1,0,1
 421 260 421 260 430 231 c 0,2,3
 432 223 432 223 433 215 c 0,4,5
 434 208 434 208 431 194 c 0,6,7
 429 176 429 176 431 169 c 0,8,9
 432 164 432 164 436 156 c 0,10,11
 440 147 440 147 442 143 c 0,12,13
 451 106 451 106 437 57 c 1,14,15
 412 -21 412 -21 340 -57 c 0,16,17
 288 -82 288 -82 243 -66 c 0,18,19
 234 -63 234 -63 205 -37 c 0,20,21
 200 -32 200 -32 196 -30 c 0,22,23
 192 -27 192 -27 182 -24 c 0,24,25
 175 -22 175 -22 172 -21 c 0,26,27
 150 -11 150 -11 135 10 c 1,28,29
 110 65 110 65 131 156 c 2,30,-1
 158 276 l 2,31,32
 182 381 182 381 198 411 c 0,33,34
 217 446 217 446 243 469 c 0,35,36
 299 518 299 518 423 512 c 0,37,38
 475 510 475 510 482 510 c 1,39,-1
 462 421 l 1,40,-1
 494 421 l 1,41,-1
 469 313 l 1,42,43
 427 310 427 310 374 285 c 1,0,1
429 464 m 1,44,45
 375 464 375 464 347 459 c 0,46,47
 328 454 328 454 304 443 c 0,48,49
 232 407 232 407 202 282 c 0,50,51
 199 271 199 271 194 248 c 0,52,53
 190 230 190 230 189 223 c 0,54,55
 166 123 166 123 176 86 c 0,56,57
 184 59 184 59 203 39 c 1,58,59
 228 18 228 18 247 18 c 0,60,61
 294 18 294 18 344 75 c 0,62,63
 370 106 370 106 378 133 c 1,64,65
 383 157 383 157 376 189 c 1,66,67
 363 228 363 228 315 239 c 0,68,69
 312 240 312 240 300 241 c 0,70,71
 283 243 283 243 280 246 c 0,72,73
 275 254 275 254 285 297 c 0,74,75
 295 338 295 338 302 351 c 0,76,77
 331 398 331 398 415 402 c 1,78,-1
 429 464 l 1,44,45
EndSplineSet
EndChar

StartChar: afii57403
Encoding: 1563 1563 334
Width: 614
VWidth: 1639
GlyphClass: 2
Flags: W
LayerCount: 2
Fore
SplineSet
331 289 m 1,0,1
 317 292 317 292 288 318 c 0,2,3
 283 323 283 323 278 326 c 0,4,5
 274 329 274 329 264 332 c 0,6,7
 257 334 257 334 254 335 c 0,8,9
 232 345 232 345 217 366 c 1,10,11
 192 421 192 421 212 510 c 2,12,-1
 240 628 l 2,13,14
 265 734 265 734 278 763 c 0,15,16
 294 795 294 795 315 817 c 0,17,18
 372 873 372 873 501 868 c 0,19,20
 564 866 564 866 565 866 c 2,21,-1
 544 777 l 1,22,-1
 576 777 l 1,23,-1
 551 669 l 1,24,25
 509 666 509 666 456 641 c 1,26,27
 495 619 495 619 500 614 c 0,28,29
 503 610 503 610 504 608 c 0,30,31
 513 593 513 593 513 546 c 0,32,33
 513 534 513 534 514 526 c 0,34,35
 515 520 515 520 522 505 c 1,36,37
 528 488 528 488 527 461 c 0,38,39
 521 375 521 375 456 320 c 0,40,41
 413 285 413 285 365 284 c 1,42,-1
 364 282 l 1,43,44
 411 274 411 274 427 217 c 0,45,46
 429 207 429 207 430 198 c 0,47,48
 431 191 431 191 430 176 c 0,49,50
 429 160 429 160 429 154 c 0,51,52
 429 149 429 149 435 139 c 0,53,54
 439 131 439 131 440 126 c 0,55,56
 445 101 445 101 441 74 c 0,57,58
 430 -4 430 -4 357 -50 c 0,59,60
 313 -76 313 -76 270 -74 c 1,61,62
 239 -71 239 -71 216 -51 c 0,63,64
 212 -49 212 -49 206 -41 c 0,65,66
 199 -34 199 -34 196 -31 c 0,67,68
 191 -27 191 -27 178 -24 c 0,69,70
 168 -21 168 -21 165 -20 c 0,71,72
 132 2 132 2 119 41 c 1,73,74
 113 72 113 72 125 123 c 0,75,76
 153 236 153 236 230 274 c 0,77,78
 259 287 259 287 330 287 c 1,79,-1
 331 289 l 1,0,1
511 820 m 1,80,81
 457 820 457 820 429 815 c 0,82,83
 410 810 410 810 386 799 c 0,84,85
 314 763 314 763 284 638 c 0,86,87
 281 627 281 627 277 604 c 0,88,89
 273 586 273 586 271 579 c 0,90,91
 248 479 248 479 258 442 c 0,92,93
 266 415 266 415 285 395 c 1,94,95
 310 374 310 374 329 374 c 0,96,97
 376 374 376 374 426 431 c 0,98,99
 452 462 452 462 461 489 c 1,100,101
 466 513 466 513 458 544 c 1,102,103
 445 583 445 583 397 595 c 0,104,105
 394 596 394 596 382 597 c 0,106,107
 365 599 365 599 362 602 c 0,108,109
 357 610 357 610 367 653 c 0,110,111
 377 694 377 694 384 707 c 0,112,113
 413 754 413 754 497 758 c 1,114,-1
 511 820 l 1,80,81
295 239 m 0,115,116
 245 232 245 232 199 181 c 0,117,118
 175 154 175 154 170 128 c 0,119,120
 160 76 160 76 203 38 c 0,121,122
 211 32 211 32 217 28 c 0,123,124
 236 15 236 15 251 16 c 0,125,126
 303 23 303 23 348 76 c 0,127,128
 370 103 370 103 377 128 c 0,129,130
 389 180 389 180 343 219 c 0,131,132
 336 224 336 224 330 228 c 0,133,134
 311 240 311 240 295 239 c 0,115,116
EndSplineSet
EndChar

StartChar: afii57407
Encoding: 1567 1567 335
Width: 1107
VWidth: 1639
GlyphClass: 2
Flags: W
LayerCount: 2
Fore
SplineSet
626 366 m 1,0,1
 656 494 l 2,2,3
 665 534 665 534 660 541 c 1,4,5
 655 547 655 547 623 546 c 2,6,-1
 515 546 l 2,7,8
 431 547 431 547 392 567 c 0,9,10
 385 571 385 571 373 583 c 0,11,12
 360 595 360 595 353 599 c 0,13,14
 301 629 301 629 292 640 c 0,15,16
 283 652 283 652 278 664 c 0,17,18
 263 701 263 701 275 774 c 0,19,20
 279 798 279 798 316 959 c 2,21,-1
 370 1194 l 2,22,23
 397 1309 397 1309 438 1357 c 0,24,25
 441 1361 441 1361 443 1363 c 0,26,27
 505 1431 505 1431 631 1433 c 0,28,29
 640 1433 640 1433 680 1433 c 2,30,-1
 1217 1433 l 1,31,-1
 1197 1345 l 1,32,-1
 1229 1345 l 1,33,-1
 1167 1079 l 1,34,-1
 839 1079 l 2,35,36
 758 1079 758 1079 738 1073 c 0,37,38
 713 1065 713 1065 694 1050 c 0,39,40
 655 1016 655 1016 636 924 c 0,41,42
 632 905 632 905 630 899 c 1,43,-1
 888 899 l 2,44,45
 966 899 966 899 983 892 c 0,46,47
 996 886 996 886 1005 879 c 0,48,49
 1024 860 1024 860 1022 825 c 0,50,51
 1022 821 1022 821 1020 812 c 0,52,53
 1018 798 1018 798 1018 794 c 0,54,55
 1019 788 1019 788 1025 778 c 0,56,57
 1032 765 1032 765 1034 758 c 0,58,59
 1034 712 1034 712 1007 604 c 1,60,-1
 943 323 l 1,61,-1
 691 323 l 1,62,-1
 701 366 l 1,63,-1
 626 366 l 1,0,1
1164 1387 m 1,64,-1
 696 1387 l 2,65,66
 576 1387 576 1387 520 1354 c 0,67,68
 494 1338 494 1338 475 1317 c 0,69,70
 430 1266 430 1266 404 1153 c 2,71,-1
 361 968 l 2,72,73
 357 953 357 953 349 919 c 0,74,75
 312 778 312 778 328 723 c 0,76,77
 331 712 331 712 335 704 c 0,78,79
 369 632 369 632 509 633 c 0,80,81
 523 633 523 633 551 634 c 0,82,83
 580 635 580 635 594 635 c 0,84,85
 671 635 671 635 688 628 c 0,86,87
 706 620 706 620 712 607 c 0,88,89
 717 595 717 595 711 556 c 0,90,91
 708 537 708 537 679 412 c 1,92,-1
 888 412 l 1,93,94
 895 441 895 441 910 500 c 0,95,96
 944 640 944 640 955 708 c 0,97,98
 969 780 969 780 969 789 c 0,99,100
 968 810 968 810 960 823 c 0,101,102
 942 854 942 854 861 853 c 0,103,104
 849 853 849 853 844 853 c 2,105,-1
 545 853 l 1,106,-1
 583 1020 l 2,107,108
 602 1098 602 1098 628 1127 c 0,109,110
 666 1169 666 1169 749 1168 c 0,111,112
 752 1168 752 1168 759 1168 c 0,113,114
 770 1168 770 1168 775 1168 c 2,115,-1
 1113 1168 l 1,116,-1
 1164 1387 l 1,64,-1
710 295 m 0,117,118
 833 309 833 309 862 231 c 0,119,120
 864 225 864 225 865 177 c 0,121,122
 865 168 865 168 866 162 c 0,123,124
 867 153 867 153 872 137 c 0,125,126
 879 112 879 112 878 97 c 0,127,128
 874 17 874 17 803 -36 c 0,129,130
 769 -60 769 -60 734 -66 c 1,131,132
 689 -70 689 -70 656 -48 c 0,133,134
 652 -45 652 -45 646 -37 c 0,135,136
 637 -27 637 -27 632 -23 c 0,137,138
 627 -19 627 -19 614 -16 c 0,139,140
 604 -13 604 -13 600 -11 c 0,141,142
 562 13 562 13 553 62 c 1,143,144
 551 87 551 87 562 133 c 0,145,146
 574 182 574 182 581 197 c 0,147,148
 615 267 615 267 688 290 c 0,149,150
 700 293 700 293 710 295 c 0,117,118
733 248 m 1,151,152
 683 243 683 243 637 190 c 0,153,154
 613 162 613 162 607 136 c 0,155,156
 595 86 595 86 639 46 c 0,157,158
 647 39 647 39 655 34 c 0,159,160
 675 25 675 25 686 25 c 1,161,162
 736 30 736 30 782 83 c 0,163,164
 806 111 806 111 812 136 c 0,165,166
 824 187 824 187 782 225 c 0,167,168
 772 233 772 233 763 238 c 0,169,170
 746 247 746 247 733 248 c 1,151,152
EndSplineSet
EndChar

StartChar: afii57409
Encoding: 1569 1569 336
AltUni2: 00fe80.ffffffff.0
Width: 608
VWidth: 1639
GlyphClass: 2
Flags: HW
AnchorPoint: "GposMark2BaseAnchorHamzaErabAbove_01_01" 267 557 basechar 0
AnchorPoint: "GposMark2BaseAnchorHamzaErabBelow_01_01" 267 -219 basechar 0
LayerCount: 2
Fore
SplineSet
113 151 m 1,0,1
 136 249 136 249 144 270 c 0,2,3
 147 277 147 277 151 282 c 0,4,5
 192 361 192 361 274 393 c 0,6,7
 286 397 286 397 297 400 c 0,8,9
 325 407 325 407 393 407 c 2,10,-1
 529 407 l 1,11,-1
 508 318 l 1,12,-1
 540 318 l 1,13,-1
 510 189 l 1,14,15
 499 189 499 189 475 190 c 0,16,17
 371 196 371 196 330 165 c 0,18,19
 322 158 322 158 315 151 c 1,20,-1
 470 151 l 1,21,-1
 449 62 l 1,22,-1
 481 62 l 1,23,-1
 451 -69 l 1,24,-1
 59 -69 l 1,25,-1
 69 -26 l 1,26,-1
 -6 -26 l 1,27,-1
 35 151 l 1,28,-1
 113 151 l 1,0,1
475 361 m 1,29,30
 358 361 358 361 318 349 c 0,31,32
 255 329 255 329 211 279 c 0,33,34
 191 255 191 255 178 228 c 1,35,36
 166 200 166 200 145 105 c 1,37,-1
 67 105 l 1,38,-1
 47 20 l 1,39,-1
 397 20 l 1,40,-1
 416 105 l 1,41,-1
 224 105 l 1,42,-1
 243 189 l 2,43,44
 252 227 252 227 263 243 c 1,45,46
 285 268 285 268 324 274 c 0,47,48
 351 278 351 278 456 277 c 1,49,-1
 475 361 l 1,29,30
EndSplineSet
EndChar

StartChar: afii57410
Encoding: 1570 1570 337
AltUni2: 00fe81.ffffffff.0
Width: 484
VWidth: 1639
GlyphClass: 2
Flags: W
LayerCount: 2
Fore
SplineSet
185 1463 m 1,0,1
 210 1572 210 1572 239 1612 c 0,2,3
 258 1638 258 1638 283 1655 c 0,4,5
 343 1696 343 1696 469 1685 c 0,6,7
 496 1683 496 1683 498 1683 c 0,8,9
 532 1680 532 1680 599 1672 c 0,10,11
 696 1660 696 1660 745 1658 c 0,12,13
 761 1658 761 1658 925 1668 c 0,14,15
 935 1669 935 1669 943 1670 c 1,16,-1
 922 1578 l 1,17,-1
 955 1581 l 1,18,-1
 933 1484 l 1,19,20
 801 1459 801 1459 679 1471 c 0,21,22
 656 1473 656 1473 612 1480 c 0,23,24
 531 1491 531 1491 491 1492 c 0,25,26
 421 1492 421 1492 406 1488 c 0,27,28
 373 1476 373 1476 355 1446 c 0,29,30
 350 1436 350 1436 346 1420 c 1,31,-1
 250 1420 l 1,32,-1
 263 1463 l 1,33,-1
 185 1463 l 1,0,1
889 1619 m 1,34,35
 858 1619 858 1619 795 1616 c 0,36,37
 679 1612 679 1612 623 1617 c 0,38,39
 599 1619 599 1619 552 1625 c 0,40,41
 504 1631 504 1631 480 1633 c 0,42,43
 410 1640 410 1640 384 1637 c 0,44,45
 298 1622 298 1622 254 1538 c 0,46,47
 246 1523 246 1523 241 1509 c 1,48,-1
 292 1509 l 1,49,50
 297 1527 297 1527 301 1535 c 0,51,52
 328 1584 328 1584 410 1583 c 0,53,54
 414 1583 414 1583 423 1583 c 0,55,56
 435 1583 435 1583 440 1583 c 0,57,58
 476 1583 476 1583 647 1562 c 0,59,60
 686 1557 686 1557 716 1556 c 0,61,62
 773 1553 773 1553 878 1573 c 1,63,-1
 889 1619 l 1,34,35
384 1432 m 1,64,-1
 681 1432 l 1,65,-1
 661 1343 l 1,66,-1
 693 1343 l 1,67,-1
 367 -67 l 1,68,-1
 112 -67 l 1,69,-1
 122 -25 l 1,70,-1
 47 -25 l 1,71,-1
 384 1432 l 1,64,-1
628 1386 m 1,72,-1
 416 1386 l 1,73,-1
 101 21 l 1,74,-1
 313 21 l 1,75,-1
 628 1386 l 1,72,-1
EndSplineSet
AlternateSubs2: "gsub_alternate_dfl_aalt_arab_FAR_Lookup_01_Subtable_01" uniFE82 afii57410
Substitution2: "gsub_single_rtl_fina_arab_FAR_Lookup_01_Subtable_01" uniFE82
EndChar

StartChar: uniFE83
Encoding: 1571 1571 339
AltUni2: 00fe83.ffffffff.0
Width: 404
VWidth: 1639
GlyphClass: 2
Flags: W
LayerCount: 2
Fore
SplineSet
337 1432 m 1,0,-1
 633 1432 l 1,1,-1
 613 1343 l 1,2,-1
 645 1343 l 1,3,-1
 319 -67 l 1,4,-1
 66 -67 l 1,5,-1
 76 -25 l 1,6,-1
 1 -25 l 1,7,-1
 337 1432 l 1,0,-1
580 1386 m 1,8,-1
 369 1386 l 1,9,-1
 54 21 l 1,10,-1
 265 21 l 1,11,-1
 580 1386 l 1,8,-1
446 1691 m 1,12,13
 463 1762 463 1762 472 1779 c 0,14,15
 512 1855 512 1855 620 1858 c 0,16,17
 622 1858 622 1858 677 1858 c 2,18,-1
 735 1858 l 1,19,-1
 714 1770 l 1,20,-1
 746 1770 l 1,21,-1
 726 1683 l 1,22,-1
 694 1683 l 1,23,-1
 676 1602 l 1,24,-1
 708 1602 l 1,25,-1
 687 1514 l 1,26,-1
 428 1514 l 1,27,-1
 438 1556 l 1,28,-1
 363 1556 l 1,29,-1
 394 1691 l 1,30,-1
 446 1691 l 1,12,13
681 1812 m 1,31,32
 578 1812 578 1812 536 1775 c 0,33,34
 516 1757 516 1757 503 1732 c 0,35,36
 494 1713 494 1713 478 1645 c 1,37,-1
 426 1645 l 1,38,-1
 416 1602 l 1,39,-1
 633 1602 l 1,40,-1
 643 1645 l 1,41,-1
 516 1645 l 1,42,-1
 532 1712 l 2,43,44
 539 1740 539 1740 545 1748 c 0,45,46
 569 1778 569 1778 650 1772 c 0,47,48
 665 1771 665 1771 672 1771 c 1,49,-1
 681 1812 l 1,31,32
EndSplineSet
AlternateSubs2: "gsub_alternate_dfl_aalt_arab_FAR_Lookup_01_Subtable_01" uniFE84 uniFE83
Substitution2: "gsub_single_rtl_fina_arab_FAR_Lookup_01_Subtable_01" uniFE84
EndChar

StartChar: uniFE84
Encoding: 65156 65156 340
Width: 454
VWidth: 1639
GlyphClass: 2
Flags: W
LayerCount: 2
Fore
SplineSet
342 1432 m 1,0,-1
 638 1432 l 1,1,-1
 618 1343 l 1,2,-1
 650 1343 l 1,3,-1
 479 604 l 1,4,-1
 432 400 l 1,5,-1
 419 344 l 2,6,7
 415 322 415 322 415 320 c 0,8,9
 420 307 420 307 444 298 c 0,10,11
 470 288 470 288 550 289 c 1,12,-1
 539 243 l 1,13,14
 528 243 528 243 503 242 c 0,15,16
 395 237 395 237 365 267 c 0,17,18
 358 275 358 275 353 284 c 0,19,20
 337 315 337 315 356 395 c 2,21,-1
 401 587 l 1,22,-1
 585 1386 l 1,23,-1
 374 1386 l 1,24,-1
 160 458 l 2,25,26
 155 438 155 438 145 395 c 0,27,28
 102 230 102 230 113 158 c 0,29,30
 121 112 121 112 145 80 c 0,31,32
 177 40 177 40 247 28 c 0,33,34
 296 18 296 18 454 22 c 0,35,36
 474 22 474 22 488 23 c 1,37,-1
 468 -67 l 1,38,39
 449 -67 449 -67 411 -68 c 0,40,41
 281 -71 281 -71 225 -54 c 0,42,43
 212 -50 212 -50 167 -17 c 0,44,45
 159 -12 159 -12 153 -8 c 0,46,47
 94 26 94 26 79 49 c 0,48,49
 76 54 76 54 74 57 c 0,50,51
 44 136 44 136 75 276 c 2,52,-1
 117 458 l 1,53,-1
 342 1432 l 1,0,-1
454 1691 m 1,54,55
 471 1762 471 1762 481 1779 c 0,56,57
 521 1855 521 1855 628 1858 c 0,58,59
 630 1858 630 1858 685 1858 c 2,60,-1
 743 1858 l 1,61,-1
 722 1770 l 1,62,-1
 754 1770 l 1,63,-1
 734 1683 l 1,64,-1
 702 1683 l 1,65,-1
 684 1602 l 1,66,-1
 716 1602 l 1,67,-1
 695 1514 l 1,68,-1
 436 1514 l 1,69,-1
 446 1556 l 1,70,-1
 371 1556 l 1,71,-1
 402 1691 l 1,72,-1
 454 1691 l 1,54,55
689 1812 m 1,73,74
 586 1812 586 1812 544 1775 c 0,75,76
 524 1757 524 1757 511 1732 c 0,77,78
 502 1713 502 1713 486 1645 c 1,79,-1
 434 1645 l 1,80,-1
 424 1602 l 1,81,-1
 641 1602 l 1,82,-1
 651 1645 l 1,83,-1
 524 1645 l 1,84,-1
 540 1712 l 2,85,86
 547 1740 547 1740 553 1748 c 0,87,88
 577 1778 577 1778 658 1772 c 0,89,90
 673 1771 673 1771 680 1771 c 1,91,-1
 689 1812 l 1,73,74
EndSplineSet
EndChar

StartChar: uniFE85
Encoding: 1572 1572 341
AltUni2: 00fe85.ffffffff.0
Width: 916
VWidth: 1639
GlyphClass: 2
Flags: W
LayerCount: 2
Fore
SplineSet
413 -67 m 1,0,-1
 219 -67 l 2,1,2
 118 -67 118 -67 87 -57 c 0,3,4
 76 -53 76 -53 32 -20 c 0,5,6
 27 -17 27 -17 24 -15 c 0,7,8
 17 -11 17 -11 3 -4 c 0,9,10
 -22 8 -22 8 -33 18 c 0,11,12
 -76 67 -76 67 -50 188 c 0,13,14
 -48 198 -48 198 -44 212 c 2,15,-1
 44 595 l 2,16,17
 74 720 74 720 131 768 c 1,18,19
 197 820 197 820 325 820 c 2,20,-1
 618 820 l 2,21,22
 740 820 740 820 754 818 c 0,23,24
 775 815 775 815 791 810 c 0,25,26
 862 786 862 786 875 725 c 0,27,28
 877 715 877 715 876 695 c 0,29,30
 876 674 876 674 878 664 c 0,31,32
 879 658 879 658 883 649 c 0,33,34
 887 638 887 638 887 633 c 0,35,36
 891 600 891 600 887 559 c 1,37,38
 890 559 890 559 878 515 c 2,39,-1
 867 471 l 1,40,-1
 827 298 l 1,41,-1
 706 -226 l 2,42,43
 702 -243 702 -243 694 -280 c 0,44,45
 662 -436 662 -436 618 -503 c 0,46,47
 601 -528 601 -528 583 -548 c 0,48,49
 510 -624 510 -624 370 -628 c 0,50,51
 353 -628 353 -628 328 -628 c 2,52,-1
 -165 -628 l 1,53,-1
 -155 -585 l 1,54,-1
 -230 -585 l 1,55,-1
 -158 -274 l 1,56,-1
 205 -274 l 2,57,58
 214 -274 214 -274 232 -275 c 0,59,60
 317 -278 317 -278 352 -248 c 1,61,62
 378 -223 378 -223 390 -166 c 2,63,-1
 413 -67 l 1,0,-1
-177 -540 m 1,64,-1
 276 -540 l 2,65,66
 412 -540 412 -540 483 -497 c 0,67,68
 507 -482 507 -482 526 -462 c 0,69,70
 596 -394 596 -394 629 -239 c 0,71,72
 632 -227 632 -227 637 -205 c 0,73,74
 644 -172 644 -172 647 -156 c 2,75,-1
 805 526 l 2,76,77
 833 649 833 649 815 698 c 0,78,79
 804 724 804 724 784 741 c 0,80,81
 766 754 766 754 740 763 c 0,82,83
 698 775 698 775 592 774 c 2,84,-1
 353 774 l 2,85,86
 239 773 239 773 178 731 c 0,87,88
 121 691 121 691 87 597 c 0,89,90
 82 580 82 580 59 476 c 2,91,-1
 4 236 l 2,92,93
 -22 117 -22 117 20 66 c 1,94,95
 62 22 62 22 183 21 c 2,96,-1
 476 21 l 1,97,-1
 428 -189 l 2,98,99
 412 -257 412 -257 399 -276 c 0,100,101
 394 -283 394 -283 388 -289 c 0,102,103
 354 -324 354 -324 268 -321 c 0,104,105
 248 -320 248 -320 242 -320 c 2,106,-1
 -126 -320 l 1,107,-1
 -177 -540 l 1,64,-1
337 554 m 0,108,109
 341 554 341 554 398 554 c 2,110,-1
 515 554 l 2,111,112
 566 552 566 552 576 533 c 1,113,114
 584 511 584 511 570 454 c 2,115,-1
 544 343 l 2,116,117
 531 290 531 290 525 277 c 0,118,119
 507 251 507 251 474 244 c 0,120,121
 464 242 464 242 411 243 c 2,122,-1
 294 243 l 2,123,124
 244 245 244 245 234 266 c 0,125,126
 226 285 226 285 240 344 c 2,127,-1
 264 451 l 2,128,129
 276 502 276 502 282 515 c 1,130,131
 301 545 301 545 337 554 c 0,108,109
528 466 m 1,132,-1
 414 466 l 2,133,134
 371 465 371 465 352 448 c 1,135,136
 334 428 334 428 325 389 c 2,137,-1
 303 294 l 1,138,139
 329 288 329 288 427 289 c 0,140,141
 464 291 464 291 484 312 c 0,142,143
 499 328 499 328 508 369 c 0,144,145
 526 450 526 450 528 466 c 1,132,-1
743 1086 m 1,146,147
 760 1157 760 1157 770 1174 c 0,148,149
 810 1250 810 1250 917 1253 c 0,150,151
 919 1253 919 1253 974 1253 c 2,152,-1
 1032 1253 l 1,153,-1
 1012 1164 l 1,154,-1
 1044 1164 l 1,155,-1
 1023 1077 l 1,156,-1
 991 1077 l 1,157,-1
 973 997 l 1,158,-1
 1005 997 l 1,159,-1
 984 909 l 1,160,-1
 725 909 l 1,161,-1
 735 951 l 1,162,-1
 660 951 l 1,163,-1
 691 1086 l 1,164,-1
 743 1086 l 1,146,147
979 1207 m 1,165,166
 876 1207 876 1207 833 1169 c 0,167,168
 813 1151 813 1151 800 1127 c 0,169,170
 791 1108 791 1108 775 1040 c 1,171,-1
 723 1040 l 1,172,-1
 714 997 l 1,173,-1
 930 997 l 1,174,-1
 940 1040 l 1,175,-1
 813 1040 l 1,176,-1
 829 1107 l 2,177,178
 836 1135 836 1135 842 1143 c 0,179,180
 866 1173 866 1173 948 1167 c 0,181,182
 963 1166 963 1166 969 1166 c 1,183,-1
 979 1207 l 1,165,166
EndSplineSet
AlternateSubs2: "gsub_alternate_dfl_aalt_arab_FAR_Lookup_01_Subtable_01" uniFE86 uniFE85
Substitution2: "gsub_single_rtl_fina_arab_FAR_Lookup_01_Subtable_01" uniFE86
EndChar

StartChar: uniFE86
Encoding: 65158 65158 342
Width: 781
VWidth: 1639
GlyphClass: 2
Flags: W
LayerCount: 2
Fore
SplineSet
366 -67 m 1,0,-1
 172 -67 l 2,1,2
 71 -67 71 -67 40 -57 c 0,3,4
 29 -53 29 -53 -15 -20 c 0,5,6
 -20 -17 -20 -17 -23 -15 c 0,7,8
 -30 -11 -30 -11 -44 -4 c 0,9,10
 -69 8 -69 8 -80 18 c 0,11,12
 -123 67 -123 67 -97 188 c 0,13,14
 -95 198 -95 198 -92 212 c 2,15,-1
 -3 594 l 2,16,17
 27 717 27 717 82 766 c 0,18,19
 144 819 144 819 269 820 c 0,20,21
 276 820 276 820 287 820 c 2,22,-1
 671 820 l 2,23,24
 779 819 779 819 815 758 c 0,25,26
 825 740 825 740 829 681 c 0,27,28
 830 671 830 671 830 664 c 0,29,30
 831 654 831 654 836 637 c 0,31,32
 843 610 843 610 843 594 c 0,33,34
 842 569 842 569 820 476 c 2,35,-1
 777 289 l 1,36,-1
 876 289 l 1,37,-1
 866 243 l 1,38,-1
 692 243 l 1,39,-1
 756 522 l 2,40,41
 781 629 781 629 774 670 c 0,42,43
 771 684 771 684 767 695 c 0,44,45
 742 758 742 758 658 771 c 0,46,47
 626 774 626 774 519 774 c 2,48,-1
 310 774 l 2,49,50
 185 774 185 774 122 725 c 0,51,52
 118 722 118 722 116 720 c 0,53,54
 57 669 57 669 30 553 c 2,55,-1
 -26 312 l 2,56,57
 -52 201 -52 201 -52 193 c 0,58,59
 -53 184 -53 184 -54 177 c 0,60,61
 -59 92 -59 92 -14 54 c 0,62,63
 28 21 28 21 140 21 c 0,64,65
 153 21 153 21 157 21 c 2,66,-1
 429 21 l 1,67,-1
 380 -190 l 2,68,69
 364 -258 364 -258 351 -277 c 0,70,71
 345 -285 345 -285 340 -290 c 0,72,73
 308 -325 308 -325 224 -321 c 0,74,75
 204 -320 204 -320 196 -320 c 2,76,-1
 -173 -320 l 1,77,-1
 -224 -540 l 1,78,-1
 240 -540 l 2,79,80
 396 -540 396 -540 475 -465 c 0,81,82
 483 -457 483 -457 489 -449 c 0,83,84
 546 -384 546 -384 578 -250 c 0,85,86
 580 -242 580 -242 583 -230 c 2,87,-1
 641 21 l 1,88,-1
 815 23 l 1,89,-1
 794 -67 l 1,90,-1
 695 -67 l 1,91,-1
 636 -321 l 2,92,93
 605 -453 605 -453 564 -513 c 0,94,95
 553 -529 553 -529 541 -541 c 0,96,97
 467 -623 467 -623 322 -628 c 0,98,99
 307 -628 307 -628 288 -628 c 2,100,-1
 -212 -628 l 1,101,-1
 -202 -585 l 1,102,-1
 -277 -585 l 1,103,-1
 -205 -274 l 1,104,-1
 158 -274 l 2,105,106
 167 -274 167 -274 185 -275 c 0,107,108
 270 -278 270 -278 304 -248 c 1,109,110
 330 -223 330 -223 343 -166 c 2,111,-1
 366 -67 l 1,0,-1
290 554 m 0,112,113
 294 554 294 554 351 554 c 2,114,-1
 468 554 l 2,115,116
 519 552 519 552 529 533 c 1,117,118
 537 511 537 511 523 454 c 2,119,-1
 497 343 l 2,120,121
 484 290 484 290 477 277 c 0,122,123
 459 251 459 251 427 244 c 0,124,125
 417 242 417 242 364 243 c 2,126,-1
 247 243 l 2,127,128
 197 245 197 245 186 266 c 0,129,130
 178 285 178 285 192 344 c 2,131,-1
 217 451 l 2,132,133
 229 502 229 502 235 515 c 1,134,135
 254 545 254 545 290 554 c 0,112,113
481 466 m 1,136,-1
 367 466 l 2,137,138
 324 465 324 465 305 448 c 1,139,140
 287 428 287 428 277 389 c 2,141,-1
 255 294 l 1,142,143
 281 288 281 288 379 289 c 0,144,145
 416 291 416 291 436 312 c 0,146,147
 451 328 451 328 460 369 c 0,148,149
 479 450 479 450 481 466 c 1,136,-1
777 1081 m 1,150,151
 794 1152 794 1152 804 1169 c 0,152,153
 844 1245 844 1245 951 1248 c 0,154,155
 953 1248 953 1248 1008 1248 c 2,156,-1
 1066 1248 l 1,157,-1
 1045 1159 l 1,158,-1
 1077 1159 l 1,159,-1
 1057 1073 l 1,160,-1
 1025 1073 l 1,161,-1
 1007 992 l 1,162,-1
 1039 992 l 1,163,-1
 1018 904 l 1,164,-1
 759 904 l 1,165,-1
 769 946 l 1,166,-1
 694 946 l 1,167,-1
 725 1081 l 1,168,-1
 777 1081 l 1,150,151
1013 1202 m 1,169,170
 910 1202 910 1202 867 1165 c 0,171,172
 847 1147 847 1147 834 1122 c 0,173,174
 825 1103 825 1103 809 1035 c 1,175,-1
 757 1035 l 1,176,-1
 748 992 l 1,177,-1
 964 992 l 1,178,-1
 974 1035 l 1,179,-1
 847 1035 l 1,180,-1
 863 1102 l 2,181,182
 870 1130 870 1130 876 1138 c 0,183,184
 900 1168 900 1168 981 1162 c 0,185,186
 996 1161 996 1161 1003 1161 c 1,187,-1
 1013 1202 l 1,169,170
EndSplineSet
EndChar

StartChar: uniFE87
Encoding: 1573 1573 343
AltUni2: 00fe87.ffffffff.0
Width: 408
VWidth: 1639
GlyphClass: 2
Flags: W
LayerCount: 2
Fore
SplineSet
390 1432 m 1,0,-1
 686 1432 l 1,1,-1
 665 1343 l 1,2,-1
 697 1343 l 1,3,-1
 372 -67 l 1,4,-1
 119 -67 l 1,5,-1
 129 -25 l 1,6,-1
 54 -25 l 1,7,-1
 390 1432 l 1,0,-1
633 1386 m 1,8,-1
 422 1386 l 1,9,-1
 107 21 l 1,10,-1
 318 21 l 1,11,-1
 633 1386 l 1,8,-1
14 -408 m 1,12,13
 31 -337 31 -337 41 -320 c 0,14,15
 81 -244 81 -244 188 -241 c 0,16,17
 190 -241 190 -241 245 -241 c 2,18,-1
 303 -241 l 1,19,-1
 282 -330 l 1,20,-1
 314 -330 l 1,21,-1
 294 -417 l 1,22,-1
 262 -417 l 1,23,-1
 244 -497 l 1,24,-1
 276 -497 l 1,25,-1
 255 -585 l 1,26,-1
 -4 -585 l 1,27,-1
 6 -543 l 1,28,-1
 -69 -543 l 1,29,-1
 -38 -408 l 1,30,-1
 14 -408 l 1,12,13
249 -287 m 1,31,32
 146 -287 146 -287 104 -325 c 0,33,34
 84 -343 84 -343 71 -367 c 0,35,36
 62 -386 62 -386 46 -454 c 1,37,-1
 -6 -454 l 1,38,-1
 -16 -497 l 1,39,-1
 201 -497 l 1,40,-1
 211 -454 l 1,41,-1
 84 -454 l 1,42,-1
 100 -387 l 2,43,44
 107 -359 107 -359 113 -351 c 0,45,46
 137 -321 137 -321 218 -327 c 0,47,48
 233 -328 233 -328 240 -328 c 1,49,-1
 249 -287 l 1,31,32
EndSplineSet
AlternateSubs2: "gsub_alternate_dfl_aalt_arab_FAR_Lookup_01_Subtable_01" uniFE88 uniFE87
Substitution2: "gsub_single_rtl_fina_arab_FAR_Lookup_01_Subtable_01" uniFE88
EndChar

StartChar: uniFE88
Encoding: 65160 65160 344
Width: 702
VWidth: 1639
GlyphClass: 2
Flags: W
LayerCount: 2
Fore
SplineSet
590 1432 m 1,0,-1
 886 1432 l 1,1,-1
 866 1343 l 1,2,-1
 898 1343 l 1,3,-1
 727 604 l 1,4,-1
 680 400 l 1,5,-1
 667 344 l 2,6,7
 663 322 663 322 663 320 c 0,8,9
 668 307 668 307 692 298 c 0,10,11
 718 288 718 288 798 289 c 1,12,-1
 787 243 l 1,13,14
 776 243 776 243 751 242 c 0,15,16
 643 237 643 237 613 267 c 0,17,18
 606 275 606 275 601 284 c 0,19,20
 585 315 585 315 604 395 c 2,21,-1
 649 587 l 1,22,-1
 833 1386 l 1,23,-1
 623 1386 l 1,24,-1
 408 458 l 2,25,26
 403 438 403 438 393 395 c 0,27,28
 350 230 350 230 361 158 c 0,29,30
 369 112 369 112 393 80 c 0,31,32
 425 40 425 40 495 28 c 0,33,34
 544 18 544 18 702 22 c 0,35,36
 722 22 722 22 736 23 c 1,37,-1
 716 -67 l 1,38,39
 697 -67 697 -67 659 -68 c 0,40,41
 529 -71 529 -71 473 -54 c 0,42,43
 460 -50 460 -50 415 -17 c 0,44,45
 407 -12 407 -12 401 -8 c 0,46,47
 342 26 342 26 327 49 c 0,48,49
 324 54 324 54 322 57 c 0,50,51
 292 136 292 136 323 276 c 2,52,-1
 366 458 l 1,53,-1
 590 1432 l 1,0,-1
41 -287 m 1,54,55
 58 -216 58 -216 68 -198 c 0,56,57
 108 -122 108 -122 215 -120 c 0,58,59
 217 -120 217 -120 272 -120 c 2,60,-1
 330 -120 l 1,61,-1
 309 -208 l 1,62,-1
 341 -208 l 1,63,-1
 321 -295 l 1,64,-1
 289 -295 l 1,65,-1
 271 -376 l 1,66,-1
 303 -376 l 1,67,-1
 282 -464 l 1,68,-1
 23 -464 l 1,69,-1
 33 -421 l 1,70,-1
 -42 -421 l 1,71,-1
 -11 -287 l 1,72,-1
 41 -287 l 1,54,55
277 -166 m 1,73,74
 174 -166 174 -166 131 -203 c 0,75,76
 111 -221 111 -221 98 -246 c 0,77,78
 89 -265 89 -265 73 -333 c 1,79,-1
 21 -333 l 1,80,-1
 12 -376 l 1,81,-1
 228 -376 l 1,82,-1
 238 -333 l 1,83,-1
 111 -333 l 1,84,-1
 127 -266 l 2,85,86
 134 -238 134 -238 140 -230 c 0,87,88
 164 -200 164 -200 245 -206 c 0,89,90
 260 -207 260 -207 267 -207 c 1,91,-1
 277 -166 l 1,73,74
EndSplineSet
EndChar

StartChar: uniFE89
Encoding: 1574 1574 345
AltUni2: 00fe89.ffffffff.0
Width: 1324
VWidth: 1639
GlyphClass: 2
Flags: W
LayerCount: 2
Fore
SplineSet
776 -67 m 1,0,1
 673 -66 673 -66 635 -49 c 0,2,3
 626 -45 626 -45 611 -31 c 0,4,5
 597 -19 597 -19 590 -15 c 0,6,7
 531 18 531 18 517 46 c 0,8,9
 511 60 511 60 508 74 c 0,10,11
 501 120 501 120 527 226 c 2,12,-1
 579 453 l 1,13,-1
 612 597 l 2,14,15
 640 712 640 712 687 758 c 0,16,17
 751 818 751 818 875 820 c 0,18,19
 886 820 886 820 909 820 c 2,20,-1
 1339 820 l 1,21,-1
 1319 731 l 1,22,-1
 1351 731 l 1,23,-1
 1290 466 l 1,24,-1
 1047 466 l 2,25,26
 972 466 972 466 940 443 c 0,27,28
 931 436 931 436 924 430 c 0,29,30
 891 397 891 397 873 307 c 0,31,32
 870 293 870 293 868 285 c 1,33,-1
 1005 285 l 1,34,35
 1076 283 1076 283 1098 262 c 1,36,37
 1118 240 1118 240 1117 200 c 0,38,39
 1117 196 1117 196 1116 186 c 0,40,41
 1115 173 1115 173 1115 167 c 2,42,-1
 1128 123 l 1,43,44
 1128 82 1128 82 1103 -26 c 0,45,46
 1078 -131 1078 -131 1056 -182 c 0,47,48
 984 -345 984 -345 830 -467 c 0,49,50
 616 -637 616 -637 384 -629 c 0,51,52
 317 -626 317 -626 255 -607 c 0,53,54
 217 -594 217 -594 126 -538 c 0,55,56
 75 -508 75 -508 53 -489 c 0,57,58
 -41 -403 -41 -403 -61 -271 c 1,59,60
 -76 -161 -76 -161 -25 49 c 0,61,62
 -23 58 -23 58 -18 76 c 0,63,64
 -7 123 -7 123 -1 146 c 2,65,-1
 154 818 l 1,66,-1
 450 818 l 1,67,-1
 429 730 l 1,68,-1
 461 730 l 1,69,-1
 318 110 l 1,70,-1
 278 -62 l 2,71,72
 263 -131 263 -131 266 -148 c 0,73,74
 281 -212 281 -212 367 -246 c 0,75,76
 475 -289 475 -289 609 -224 c 0,77,78
 720 -167 720 -167 776 -67 c 1,0,1
1286 774 m 1,79,-1
 929 774 l 2,80,81
 818 774 818 774 767 747 c 0,82,83
 749 737 749 737 735 725 c 0,84,85
 674 674 674 674 646 560 c 0,86,87
 643 549 643 549 640 533 c 2,88,-1
 564 202 l 2,89,90
 546 120 546 120 585 69 c 1,91,92
 630 15 630 15 777 19 c 0,93,94
 849 21 849 21 851 21 c 1,95,96
 819 -116 819 -116 760 -181 c 0,97,98
 752 -189 752 -189 746 -195 c 0,99,100
 625 -309 625 -309 430 -310 c 1,101,102
 257 -308 257 -308 213 -194 c 0,103,104
 185 -122 185 -122 225 39 c 0,105,106
 243 110 243 110 245 116 c 2,107,-1
 396 772 l 1,108,-1
 186 772 l 1,109,-1
 48 175 l 2,110,111
 1 -30 1 -30 -5 -73 c 0,112,113
 -15 -150 -15 -150 -9 -210 c 0,114,115
 10 -382 10 -382 149 -475 c 0,116,117
 256 -546 256 -546 389 -540 c 0,118,119
 564 -532 564 -532 735 -410 c 1,120,121
 921 -272 921 -272 1002 -93 c 0,122,123
 1025 -40 1025 -40 1044 43 c 0,124,125
 1067 140 1067 140 1064 168 c 0,126,127
 1061 198 1061 198 1047 215 c 1,128,129
 1022 240 1022 240 951 239 c 2,130,-1
 783 239 l 1,131,-1
 822 410 l 2,132,133
 841 487 841 487 870 517 c 1,134,135
 917 555 917 555 991 554 c 2,136,-1
 1235 554 l 1,137,-1
 1286 774 l 1,79,-1
197 835 m 1,138,139
 214 906 214 906 224 923 c 0,140,141
 264 999 264 999 371 1002 c 0,142,143
 373 1002 373 1002 428 1002 c 2,144,-1
 486 1002 l 1,145,-1
 466 913 l 1,146,-1
 498 913 l 1,147,-1
 478 827 l 1,148,-1
 445 827 l 1,149,-1
 427 746 l 1,150,-1
 459 746 l 1,151,-1
 439 658 l 1,152,-1
 179 658 l 1,153,-1
 189 700 l 1,154,-1
 114 700 l 1,155,-1
 145 835 l 1,156,-1
 197 835 l 1,138,139
433 956 m 1,157,158
 330 956 330 956 287 919 c 0,159,160
 267 901 267 901 254 876 c 0,161,162
 245 857 245 857 229 789 c 1,163,-1
 178 789 l 1,164,-1
 168 746 l 1,165,-1
 384 746 l 1,166,-1
 394 789 l 1,167,-1
 267 789 l 1,168,-1
 283 856 l 2,169,170
 290 884 290 884 296 892 c 0,171,172
 320 922 320 922 402 916 c 0,173,174
 417 915 417 915 423 915 c 1,175,-1
 433 956 l 1,157,158
EndSplineSet
AlternateSubs2: "gsub_alternate_dfl_aalt_arab_FAR_Lookup_01_Subtable_01" uniFE8A uniFE8B uniFE89 uniFE8C
Substitution2: "gsub_single_rtl_fina_arab_FAR_Lookup_01_Subtable_01" uniFE8A
Substitution2: "gsub_single_rtl_init_arab_FAR_Lookup_01_Subtable_01" uniFE8B
Substitution2: "gsub_single_rtl_medi_arab_FAR_Lookup_01_Subtable_01" uniFE8C
EndChar

StartChar: uniFE8A
Encoding: 65162 65162 346
Width: 1037
VWidth: 1639
GlyphClass: 2
Flags: W
LayerCount: 2
Fore
SplineSet
154 818 m 1,0,-1
 450 818 l 1,1,-1
 429 730 l 1,2,-1
 461 730 l 1,3,-1
 321 123 l 1,4,-1
 281 -52 l 2,5,6
 264 -130 264 -130 266 -151 c 0,7,8
 272 -202 272 -202 339 -236 c 0,9,10
 341 -237 341 -237 342 -238 c 0,11,12
 440 -288 440 -288 581 -233 c 0,13,14
 660 -201 660 -201 694 -157 c 1,15,16
 728 -118 728 -118 720 -89 c 0,17,18
 716 -80 716 -80 709 -75 c 0,19,20
 703 -72 703 -72 664 -69 c 0,21,22
 645 -67 645 -67 566 -67 c 1,23,-1
 575 -25 l 1,24,-1
 501 -25 l 1,25,-1
 573 289 l 1,26,-1
 1116 289 l 1,27,-1
 1105 243 l 1,28,-1
 605 243 l 1,29,-1
 554 21 l 1,30,31
 666 21 666 21 688 17 c 0,32,33
 718 11 718 11 739 -2 c 1,34,35
 782 -36 782 -36 764 -118 c 1,36,37
 748 -183 748 -183 715 -218 c 1,38,39
 660 -271 660 -271 560 -297 c 0,40,41
 509 -310 509 -310 433 -310 c 0,42,43
 231 -308 231 -308 202 -169 c 1,44,45
 193 -111 193 -111 218 -2 c 2,46,-1
 252 146 l 1,47,-1
 396 772 l 1,48,-1
 186 772 l 1,49,-1
 49 180 l 2,50,51
 44 157 44 157 32 110 c 0,52,53
 -17 -94 -17 -94 -12 -189 c 1,54,55
 -5 -271 -5 -271 20 -325 c 0,56,57
 91 -490 91 -490 279 -529 c 0,58,59
 437 -561 437 -561 601 -489 c 1,60,61
 781 -408 781 -408 893 -254 c 0,62,63
 913 -226 913 -226 929 -198 c 0,64,65
 960 -139 960 -139 965 -113 c 0,66,67
 972 -65 972 -65 937 -38 c 0,68,69
 922 -27 922 -27 906 -26 c 1,70,-1
 906 -25 l 1,71,-1
 952 -25 l 1,72,-1
 952 -23 l 1,73,74
 920 -5 920 -5 911 -3 c 1,75,-1
 912 -2 l 1,76,-1
 957 -2 l 1,77,-1
 958 0 l 1,78,79
 926 18 926 18 917 20 c 1,80,-1
 917 21 l 1,81,-1
 1055 23 l 1,82,-1
 1034 -67 l 1,83,-1
 1019 -67 l 1,84,-1
 1022 -110 l 1,85,-1
 1016 -144 l 1,86,87
 1032 -157 1032 -157 1022 -192 c 1,88,89
 1006 -259 1006 -259 956 -333 c 0,90,91
 847 -491 847 -491 662 -574 c 0,92,93
 626 -590 626 -590 592 -600 c 0,94,95
 481 -636 481 -636 341 -625 c 0,96,97
 248 -617 248 -617 174 -576 c 0,98,99
 165 -571 165 -571 149 -558 c 0,100,101
 132 -546 132 -546 124 -541 c 0,102,103
 54 -493 54 -493 39 -479 c 0,104,105
 -56 -384 -56 -384 -65 -235 c 0,106,107
 -71 -134 -71 -134 -18 79 c 0,108,109
 -3 137 -3 137 2 162 c 2,110,-1
 154 818 l 1,0,-1
253 1077 m 1,111,112
 270 1148 270 1148 280 1166 c 0,113,114
 320 1242 320 1242 427 1245 c 0,115,116
 429 1245 429 1245 484 1245 c 2,117,-1
 542 1245 l 1,118,-1
 522 1156 l 1,119,-1
 554 1156 l 1,120,-1
 534 1069 l 1,121,-1
 502 1069 l 1,122,-1
 483 989 l 1,123,-1
 515 989 l 1,124,-1
 495 900 l 1,125,-1
 235 900 l 1,126,-1
 245 943 l 1,127,-1
 170 943 l 1,128,-1
 201 1077 l 1,129,-1
 253 1077 l 1,111,112
489 1199 m 1,130,131
 386 1199 386 1199 343 1161 c 0,132,133
 323 1143 323 1143 310 1118 c 0,134,135
 301 1099 301 1099 285 1032 c 1,136,-1
 234 1032 l 1,137,-1
 224 989 l 1,138,-1
 440 989 l 1,139,-1
 450 1032 l 1,140,-1
 324 1032 l 1,141,-1
 339 1099 l 2,142,143
 346 1127 346 1127 352 1135 c 0,144,145
 376 1165 376 1165 458 1159 c 0,146,147
 473 1158 473 1158 479 1158 c 1,148,-1
 489 1199 l 1,130,131
EndSplineSet
EndChar

StartChar: uniFE8B
Encoding: 65163 65163 347
Width: 676
VWidth: 1639
GlyphClass: 2
Flags: W
LayerCount: 2
Fore
SplineSet
514 1017 m 1,0,1
 531 1088 531 1088 538 1104 c 0,2,3
 582 1188 582 1188 711 1187 c 0,4,5
 728 1187 728 1187 760 1186 c 0,6,7
 790 1185 790 1185 802 1184 c 1,8,-1
 782 1096 l 1,9,-1
 814 1096 l 1,10,-1
 794 1010 l 1,11,-1
 762 1010 l 1,12,-1
 743 928 l 1,13,-1
 775 928 l 1,14,-1
 755 840 l 1,15,-1
 496 840 l 1,16,-1
 506 882 l 1,17,-1
 431 882 l 1,18,-1
 462 1017 l 1,19,-1
 514 1017 l 1,0,1
749 1138 m 1,20,21
 662 1138 662 1138 627 1117 c 0,22,23
 604 1103 604 1103 587 1082 c 0,24,25
 577 1069 577 1069 567 1051 c 0,26,27
 560 1035 560 1035 546 971 c 1,28,-1
 494 971 l 1,29,-1
 484 928 l 1,30,-1
 701 928 l 1,31,-1
 711 971 l 1,32,-1
 584 971 l 1,33,-1
 600 1040 l 2,34,35
 607 1068 607 1068 613 1076 c 0,36,37
 637 1105 637 1105 720 1100 c 0,38,39
 734 1099 734 1099 740 1099 c 1,40,-1
 749 1138 l 1,20,21
427 818 m 1,41,-1
 721 818 l 1,42,-1
 701 730 l 1,43,-1
 733 730 l 1,44,-1
 618 235 l 2,45,46
 581 77 581 77 513 11 c 0,47,48
 497 -3 497 -3 481 -15 c 0,49,50
 406 -67 406 -67 269 -67 c 0,51,52
 261 -67 261 -67 253 -67 c 0,53,54
 203 -67 203 -67 104 -66 c 0,55,56
 5 -65 5 -65 -44 -66 c 1,57,-1
 -24 23 l 1,58,59
 13 23 13 23 89 22 c 0,60,61
 165 21 165 21 202 21 c 0,62,63
 334 21 334 21 403 60 c 0,64,65
 413 66 413 66 420 71 c 0,66,67
 520 136 520 136 562 315 c 2,68,-1
 668 772 l 1,69,-1
 459 772 l 1,70,-1
 374 403 l 2,71,72
 353 312 353 312 331 284 c 0,73,74
 319 270 319 270 307 261 c 0,75,76
 279 243 279 243 211 243 c 2,77,-1
 27 243 l 1,78,-1
 38 289 l 1,79,-1
 187 289 l 2,80,81
 247 290 247 290 274 307 c 0,82,83
 317 335 317 335 338 433 c 0,84,85
 341 446 341 446 342 449 c 2,86,-1
 427 818 l 1,41,-1
EndSplineSet
EndChar

StartChar: uniFE8C
Encoding: 65164 65164 348
Width: 639
VWidth: 1639
GlyphClass: 2
Flags: W
LayerCount: 2
Fore
SplineSet
520 1017 m 1,0,1
 537 1089 537 1089 545 1105 c 0,2,3
 585 1179 585 1179 686 1184 c 0,4,5
 697 1184 697 1184 738 1184 c 2,6,-1
 809 1184 l 1,7,-1
 788 1096 l 1,8,-1
 820 1096 l 1,9,-1
 800 1010 l 1,10,-1
 768 1010 l 1,11,-1
 750 928 l 1,12,-1
 782 928 l 1,13,-1
 761 840 l 1,14,-1
 500 840 l 1,15,-1
 510 882 l 1,16,-1
 435 882 l 1,17,-1
 466 1017 l 1,18,-1
 520 1017 l 1,0,1
755 1138 m 1,19,20
 669 1138 669 1138 633 1118 c 0,21,22
 610 1104 610 1104 593 1084 c 0,23,24
 583 1071 583 1071 574 1053 c 0,25,26
 567 1037 567 1037 552 971 c 1,27,-1
 499 971 l 1,28,-1
 489 928 l 1,29,-1
 707 928 l 1,30,-1
 717 971 l 1,31,-1
 590 971 l 1,32,-1
 606 1041 l 2,33,34
 613 1068 613 1068 617 1074 c 0,35,36
 640 1105 640 1105 726 1100 c 0,37,38
 740 1099 740 1099 746 1099 c 1,39,-1
 755 1138 l 1,19,20
427 818 m 1,40,-1
 721 818 l 1,41,-1
 701 730 l 1,42,-1
 733 730 l 1,43,-1
 631 289 l 1,44,-1
 735 289 l 1,45,-1
 724 243 l 1,46,-1
 545 243 l 1,47,-1
 668 772 l 1,48,-1
 459 772 l 1,49,-1
 337 243 l 1,50,-1
 27 243 l 1,51,-1
 38 289 l 1,52,-1
 304 289 l 1,53,-1
 427 818 l 1,40,-1
-24 23 m 1,54,-1
 673 23 l 1,55,-1
 652 -67 l 1,56,-1
 -44 -66 l 1,57,-1
 -24 23 l 1,54,-1
EndSplineSet
EndChar

StartChar: alefarabic
Encoding: 1575 1575 349
AltUni2: 00fe8d.ffffffff.0
Width: 564
VWidth: 1639
GlyphClass: 2
Flags: HW
AnchorPoint: "GposMark2BaseAnchorClassErabAbove_01_02" 411 1582 basechar 0
AnchorPoint: "GposMark2BaseAnchorClassErabBelow_01_02" 411 -217 basechar 0
LayerCount: 2
Fore
SplineSet
425 1432 m 1,0,-1
 721 1432 l 1,1,-1
 701 1343 l 1,2,-1
 733 1343 l 1,3,-1
 407 -67 l 1,4,-1
 154 -67 l 1,5,-1
 164 -25 l 1,6,-1
 89 -25 l 1,7,-1
 425 1432 l 1,0,-1
668 1386 m 1,8,-1
 457 1386 l 1,9,-1
 142 21 l 1,10,-1
 353 21 l 1,11,-1
 668 1386 l 1,8,-1
EndSplineSet
AlternateSubs2: "gsub_alternate_dfl_aalt_arab_FAR_Lookup_01_Subtable_01" uniFE8E alefarabic
Substitution2: "gsub_single_rtl_fina_arab_FAR_Lookup_01_Subtable_01" uniFE8E
EndChar

StartChar: uniFE8E
Encoding: 65166 65166 350
Width: 537
VWidth: 1639
GlyphClass: 2
Flags: HW
AnchorPoint: "GposMark2BaseAnchorClassErabAbove_01_02" 430 1582 basechar 0
AnchorPoint: "GposMark2BaseAnchorClassErabBelow_01_02" 430 -221 basechar 0
LayerCount: 2
Fore
SplineSet
425 1432 m 1,0,-1
 721 1432 l 1,1,-1
 701 1343 l 1,2,-1
 733 1343 l 1,3,-1
 562 604 l 1,4,-1
 515 400 l 1,5,-1
 502 344 l 2,6,7
 498 322 498 322 498 320 c 0,8,9
 503 307 503 307 527 298 c 0,10,11
 553 288 553 288 633 289 c 1,12,-1
 622 243 l 1,13,14
 611 243 611 243 586 242 c 0,15,16
 478 237 478 237 448 267 c 0,17,18
 441 275 441 275 436 284 c 0,19,20
 420 315 420 315 439 395 c 2,21,-1
 483 587 l 1,22,-1
 668 1386 l 1,23,-1
 457 1386 l 1,24,-1
 243 458 l 2,25,26
 238 438 238 438 227 395 c 0,27,28
 184 230 184 230 196 158 c 0,29,30
 204 112 204 112 228 80 c 0,31,32
 260 40 260 40 330 28 c 0,33,34
 379 18 379 18 536 22 c 0,35,36
 556 22 556 22 571 23 c 1,37,-1
 550 -67 l 1,38,39
 531 -67 531 -67 494 -68 c 0,40,41
 364 -71 364 -71 308 -54 c 0,42,43
 295 -50 295 -50 250 -17 c 0,44,45
 242 -12 242 -12 236 -8 c 0,46,47
 177 26 177 26 162 49 c 0,48,49
 159 54 159 54 157 57 c 0,50,51
 127 136 127 136 158 276 c 2,52,-1
 200 458 l 1,53,-1
 425 1432 l 1,0,-1
EndSplineSet
EndChar

StartChar: afii57416
Encoding: 1576 1576 351
AltUni2: 00fe8f.ffffffff.0
Width: 1535
VWidth: 1639
GlyphClass: 2
Flags: HW
AnchorPoint: "GposMark2BaseAnchorClassErabAbove_01_02" 795 968 basechar 0
AnchorPoint: "GposMark2BaseAnchorClassErabBelow_01_02" 795 -636 basechar 0
LayerCount: 2
Fore
SplineSet
189 818 m 1,0,-1
 485 818 l 1,1,-1
 465 730 l 1,2,-1
 497 730 l 1,3,-1
 425 418 l 1,4,-1
 406 338 l 2,5,6
 401 311 401 311 403 305 c 0,7,8
 408 296 408 296 441 292 c 0,9,10
 469 289 469 289 559 289 c 2,11,-1
 959 289 l 2,12,13
 1046 289 1046 289 1053 290 c 0,14,15
 1093 297 1093 297 1115 318 c 0,16,17
 1148 351 1148 351 1169 449 c 0,18,19
 1172 463 1172 463 1173 471 c 2,20,-1
 1254 818 l 1,21,-1
 1550 818 l 1,22,-1
 1529 730 l 1,23,-1
 1561 730 l 1,24,-1
 1456 272 l 2,25,26
 1423 131 1423 131 1389 74 c 0,27,28
 1366 37 1366 37 1338 8 c 0,29,30
 1258 -69 1258 -69 1099 -69 c 0,31,32
 1082 -69 1082 -69 1048 -68 c 0,33,34
 1016 -67 1016 -67 1002 -67 c 2,35,-1
 381 -67 l 2,36,37
 256 -67 256 -67 213 -52 c 0,38,39
 206 -49 206 -49 201 -47.5 c 128,-1,40
 196 -46 196 -46 154 -16 c 0,41,42
 148 -12 148 -12 144 -10 c 0,43,44
 86 27 86 27 76 40 c 0,45,46
 69 49 69 49 64 57 c 0,47,48
 29 123 29 123 61 266 c 0,49,50
 63 276 63 276 68 296 c 0,51,52
 72 313 72 313 74 320 c 2,53,-1
 189 818 l 1,0,-1
432 772 m 1,54,-1
 221 772 l 1,55,-1
 122 344 l 2,56,57
 90 204 90 204 102 147 c 0,58,59
 108 121 108 121 118 102 c 0,60,61
 162 25 162 25 308 22 c 0,62,63
 320 22 320 22 379 21 c 2,64,-1
 1012 21 l 2,65,66
 1150 21 1150 21 1214 50 c 0,67,68
 1258 71 1258 71 1292 105 c 0,69,70
 1357 171 1357 171 1392 319 c 0,71,72
 1394 328 1394 328 1399 351 c 2,73,-1
 1496 772 l 1,74,-1
 1286 772 l 1,75,-1
 1206 426 l 2,76,77
 1185 335 1185 335 1176 316 c 0,78,79
 1164 291 1164 291 1148 274 c 0,80,81
 1122 248 1122 248 1068 244 c 0,82,83
 1036 242 1036 242 974 243 c 2,84,-1
 514 243 l 2,85,86
 409 243 409 243 389 246 c 0,87,88
 352 251 352 251 340 269 c 1,89,90
 322 303 322 303 346 403 c 0,91,92
 349 415 349 415 351 421 c 2,93,-1
 432 772 l 1,54,-1
586 -120 m 0,94,95
 711 -106 711 -106 740 -184 c 0,96,97
 742 -191 742 -191 742 -241 c 0,98,99
 742 -248 742 -248 743 -253 c 0,100,101
 744 -262 744 -262 749 -276 c 0,102,103
 757 -302 757 -302 756 -318 c 0,104,105
 751 -394 751 -394 686 -447 c 0,106,107
 653 -472 653 -472 619 -479 c 1,108,109
 569 -486 569 -486 534 -462 c 0,110,111
 530 -459 530 -459 524 -452 c 0,112,113
 516 -442 516 -442 511 -438 c 0,114,115
 507 -436 507 -436 497 -433 c 0,116,117
 487 -430 487 -430 482 -428 c 0,118,119
 441 -404 441 -404 431 -353 c 1,120,121
 429 -328 429 -328 440 -282 c 0,122,123
 452 -230 452 -230 460 -213 c 0,124,125
 492 -149 492 -149 562 -126 c 0,126,127
 575 -122 575 -122 586 -120 c 0,94,95
610 -167 m 0,128,129
 558 -174 558 -174 513 -227 c 0,130,131
 491 -254 491 -254 485 -279 c 0,132,133
 473 -330 473 -330 520 -371 c 0,134,135
 526 -376 526 -376 530 -379 c 0,136,137
 552 -390 552 -390 564 -390 c 0,138,139
 614 -385 614 -385 660 -333 c 0,140,141
 685 -304 685 -304 691 -277 c 0,142,143
 703 -227 703 -227 660 -188 c 0,144,145
 652 -181 652 -181 644 -177 c 0,146,147
 622 -166 622 -166 610 -167 c 0,128,129
EndSplineSet
AlternateSubs2: "gsub_alternate_dfl_aalt_arab_FAR_Lookup_01_Subtable_01" uniFE90 uniFE91 afii57416 uniFE92
Substitution2: "gsub_single_rtl_fina_arab_FAR_Lookup_01_Subtable_01" uniFE90
Substitution2: "gsub_single_rtl_init_arab_FAR_Lookup_01_Subtable_01" uniFE91
Substitution2: "gsub_single_rtl_medi_arab_FAR_Lookup_01_Subtable_01" uniFE92
EndChar

StartChar: uniFE90
Encoding: 65168 65168 352
Width: 1463
VWidth: 1639
GlyphClass: 2
Flags: HW
AnchorPoint: "GposMark2BaseAnchorClassErabAbove_01_02" 796 968 basechar 0
AnchorPoint: "GposMark2BaseAnchorClassErabBelow_01_02" 796 -639 basechar 0
LayerCount: 2
Fore
SplineSet
189 818 m 1,0,-1
 485 818 l 1,1,-1
 465 730 l 1,2,-1
 497 730 l 1,3,-1
 423 412 l 1,4,-1
 405 331 l 2,5,6
 400 306 400 306 403 302 c 0,7,8
 411 291 411 291 452 290 c 0,9,10
 474 290 474 290 519 289 c 0,11,12
 564 288 564 288 586 289 c 2,13,-1
 1132 289 l 1,14,-1
 1254 818 l 1,15,-1
 1550 818 l 1,16,-1
 1529 730 l 1,17,-1
 1561 730 l 1,18,-1
 1460 289 l 1,19,-1
 1559 289 l 1,20,-1
 1548 243 l 1,21,-1
 1374 243 l 1,22,-1
 1496 772 l 1,23,-1
 1286 772 l 1,24,-1
 1164 243 l 1,25,-1
 546 243 l 2,26,27
 522 243 522 243 473 244 c 0,28,29
 424 245 424 245 400 244 c 0,30,31
 350 245 350 245 336 266 c 1,32,33
 319 297 319 297 345 398 c 0,34,35
 348 410 348 410 350 417 c 2,36,-1
 432 772 l 1,37,-1
 221 772 l 1,38,-1
 123 348 l 2,39,40
 92 214 92 214 100 160 c 0,41,42
 105 130 105 130 117 107 c 0,43,44
 160 27 160 27 307 22 c 0,45,46
 325 21 325 21 353 21 c 2,47,-1
 486 21 l 2,48,49
 655 21 655 21 992 22 c 0,50,51
 1330 23 1330 23 1497 23 c 1,52,-1
 1477 -67 l 1,53,-1
 444 -67 l 2,54,55
 427 -67 427 -67 393 -68 c 0,56,57
 264 -71 264 -71 208 -51 c 0,58,59
 203 -49 203 -49 154 -16 c 0,60,61
 148 -12 148 -12 145 -10 c 0,62,63
 87 29 87 29 80 36 c 0,64,65
 67 51 67 51 60 67 c 0,66,67
 31 136 31 136 64 278 c 0,68,69
 66 286 66 286 70 302 c 0,70,71
 75 323 75 323 77 333 c 2,72,-1
 189 818 l 1,0,-1
585 -125 m 0,73,74
 710 -111 710 -111 739 -189 c 0,75,76
 741 -196 741 -196 741 -246 c 0,77,78
 741 -253 741 -253 742 -257 c 0,79,80
 743 -267 743 -267 749 -285 c 0,81,82
 757 -310 757 -310 757 -325 c 0,83,84
 750 -406 750 -406 678 -457 c 0,85,86
 645 -480 645 -480 610 -485 c 1,87,88
 564 -489 564 -489 532 -466 c 0,89,90
 529 -463 529 -463 523 -456 c 0,91,92
 514 -446 514 -446 510 -443 c 0,93,94
 506 -441 506 -441 496 -438 c 0,95,96
 486 -435 486 -435 482 -433 c 0,97,98
 441 -409 441 -409 430 -358 c 1,99,100
 428 -333 428 -333 439 -287 c 0,101,102
 451 -235 451 -235 459 -218 c 0,103,104
 491 -154 491 -154 561 -131 c 0,105,106
 574 -127 574 -127 585 -125 c 0,73,74
609 -172 m 0,107,108
 557 -179 557 -179 512 -232 c 0,109,110
 490 -259 490 -259 484 -284 c 0,111,112
 472 -335 472 -335 519 -376 c 0,113,114
 525 -381 525 -381 529 -384 c 0,115,116
 554 -397 554 -397 565 -395 c 0,117,118
 617 -388 617 -388 662 -335 c 0,119,120
 685 -307 685 -307 690 -282 c 0,121,122
 702 -232 702 -232 659 -193 c 0,123,124
 651 -186 651 -186 643 -182 c 0,125,126
 621 -171 621 -171 609 -172 c 0,107,108
EndSplineSet
EndChar

StartChar: uniFE91
Encoding: 65169 65169 353
Width: 708
VWidth: 1639
GlyphClass: 2
Flags: HW
AnchorPoint: "GposMark2BaseAnchorClassErabAbove_01_02" 344.5 968 basechar 0
AnchorPoint: "GposMark2BaseAnchorClassErabBelow_01_02" 344.5 -636 basechar 0
LayerCount: 2
Fore
SplineSet
427 818 m 1,0,-1
 721 818 l 1,1,-1
 701 730 l 1,2,-1
 733 730 l 1,3,-1
 618 235 l 2,4,5
 581 77 581 77 513 11 c 0,6,7
 497 -3 497 -3 481 -15 c 0,8,9
 406 -67 406 -67 269 -67 c 0,10,11
 261 -67 261 -67 253 -67 c 0,12,13
 203 -67 203 -67 104 -66 c 0,14,15
 5 -65 5 -65 -44 -66 c 1,16,-1
 -24 23 l 1,17,18
 13 23 13 23 89 22 c 0,19,20
 165 21 165 21 202 21 c 0,21,22
 334 21 334 21 403 60 c 0,23,24
 413 66 413 66 420 71 c 0,25,26
 520 136 520 136 562 315 c 2,27,-1
 668 772 l 1,28,-1
 459 772 l 1,29,-1
 374 403 l 2,30,31
 353 312 353 312 331 284 c 0,32,33
 319 270 319 270 307 261 c 0,34,35
 279 243 279 243 211 243 c 2,36,-1
 27 243 l 1,37,-1
 38 289 l 1,38,-1
 187 289 l 2,39,40
 247 290 247 290 274 307 c 0,41,42
 317 335 317 335 338 433 c 0,43,44
 341 446 341 446 342 449 c 2,45,-1
 427 818 l 1,0,-1
318 -120 m 0,46,47
 443 -103 443 -103 474 -187 c 0,48,49
 478 -203 478 -203 478 -226 c 0,50,51
 478 -229 478 -229 477 -237 c 0,52,53
 475 -248 475 -248 475 -253 c 0,54,55
 477 -261 477 -261 482 -275 c 0,56,57
 490 -299 490 -299 490 -313 c 0,58,59
 486 -392 486 -392 421 -446 c 0,60,61
 388 -472 388 -472 351 -479 c 1,62,63
 301 -486 301 -486 267 -462 c 0,64,65
 263 -459 263 -459 257 -452 c 0,66,67
 248 -442 248 -442 243 -438 c 0,68,69
 239 -436 239 -436 229 -433 c 0,70,71
 219 -430 219 -430 215 -428 c 0,72,73
 175 -403 175 -403 164 -358 c 1,74,75
 161 -332 161 -332 173 -282 c 0,76,77
 185 -232 185 -232 190 -220 c 0,78,79
 224 -151 224 -151 294 -126 c 0,80,81
 307 -122 307 -122 318 -120 c 0,46,47
343 -167 m 0,82,83
 291 -174 291 -174 245 -228 c 0,84,85
 225 -253 225 -253 218 -277 c 0,86,87
 206 -330 206 -330 253 -371 c 0,88,89
 259 -376 259 -376 263 -379 c 0,90,91
 285 -390 285 -390 297 -390 c 0,92,93
 347 -385 347 -385 393 -333 c 0,94,95
 418 -305 418 -305 424 -277 c 0,96,97
 434 -225 434 -225 390 -188 c 0,98,99
 383 -183 383 -183 378 -179 c 0,100,101
 359 -166 359 -166 343 -167 c 0,82,83
EndSplineSet
EndChar

StartChar: uniFE92
Encoding: 65170 65170 354
Width: 639
VWidth: 1639
GlyphClass: 2
Flags: HW
AnchorPoint: "GposMark2BaseAnchorClassErabAbove_01_02" 345.5 968 basechar 0
AnchorPoint: "GposMark2BaseAnchorClassErabBelow_01_02" 345.5 -639 basechar 0
LayerCount: 2
Fore
SplineSet
427 818 m 1,0,-1
 721 818 l 1,1,-1
 701 730 l 1,2,-1
 733 730 l 1,3,-1
 631 289 l 1,4,-1
 735 289 l 1,5,-1
 724 243 l 1,6,-1
 545 243 l 1,7,-1
 668 772 l 1,8,-1
 459 772 l 1,9,-1
 337 243 l 1,10,-1
 27 243 l 1,11,-1
 38 289 l 1,12,-1
 304 289 l 1,13,-1
 427 818 l 1,0,-1
-24 23 m 1,14,-1
 673 23 l 1,15,-1
 652 -67 l 1,16,-1
 -44 -66 l 1,17,-1
 -24 23 l 1,14,-1
313 -123 m 0,18,19
 437 -105 437 -105 466 -192 c 0,20,21
 467 -195 l 0,22,23
 469 -206 469 -206 468 -229 c 0,24,25
 467 -249 467 -249 468 -257 c 0,26,27
 469 -266 469 -266 475 -281 c 0,28,29
 483 -306 483 -306 482 -321 c 0,30,31
 477 -399 477 -399 409 -452 c 0,32,33
 374 -478 374 -478 338 -484 c 1,34,35
 289 -489 289 -489 260 -466 c 0,36,37
 255 -463 255 -463 247 -453 c 0,38,39
 239 -444 239 -444 235 -441 c 0,40,41
 230 -437 230 -437 217 -434 c 0,42,43
 207 -431 207 -431 203 -430 c 0,44,45
 166 -405 166 -405 156 -359 c 1,46,47
 153 -333 153 -333 164 -285 c 0,48,49
 176 -233 176 -233 184 -218 c 0,50,51
 220 -149 220 -149 294 -128 c 0,52,53
 304 -125 304 -125 313 -123 c 0,18,19
337 -171 m 1,54,55
 290 -174 290 -174 242 -225 c 0,56,57
 215 -255 215 -255 209 -284 c 0,58,59
 199 -333 199 -333 240 -372 c 0,60,61
 264 -393 264 -393 289 -394 c 1,62,63
 337 -391 337 -391 384 -338 c 0,64,65
 410 -309 410 -309 417 -282 c 0,66,67
 427 -232 427 -232 386 -192 c 0,68,69
 362 -171 362 -171 337 -171 c 1,54,55
EndSplineSet
EndChar

StartChar: afii57417
Encoding: 1577 1577 355
AltUni2: 00fe93.ffffffff.0
Width: 871
VWidth: 1639
GlyphClass: 2
Flags: HW
AnchorPoint: "GposMark2BaseAnchorClassErabAbove_01_02" 461 1349 basechar 0
AnchorPoint: "GposMark2BaseAnchorClassErabBelow_01_02" 461 -223 basechar 0
LayerCount: 2
Fore
SplineSet
637 927 m 1,0,1
 609 865 609 865 537 844 c 0,2,3
 493 832 493 832 459 845 c 0,4,5
 451 848 451 848 424 873 c 0,6,7
 419 878 419 878 414 881 c 0,8,9
 409 884 409 884 398 887 c 0,10,11
 386 891 386 891 381 894 c 0,12,13
 338 921 338 921 336 982 c 1,14,15
 337 1082 337 1082 397 1147 c 0,16,17
 402 1153 402 1153 406 1156 c 0,18,19
 457 1198 457 1198 535 1199 c 0,20,21
 591 1198 591 1198 614 1178 c 0,22,23
 643 1153 643 1153 650 1096 c 1,24,25
 680 1168 680 1168 754 1191 c 0,26,27
 777 1198 777 1198 799 1199 c 0,28,29
 897 1199 897 1199 924 1152 c 0,30,31
 931 1140 931 1140 935 1127 c 0,32,33
 937 1117 937 1117 935 1096 c 0,34,35
 934 1075 934 1075 936 1066 c 0,36,37
 937 1059 937 1059 942 1048 c 0,38,39
 946 1039 946 1039 947 1035 c 0,40,41
 955 990 955 990 933 941 c 0,42,43
 899 869 899 869 827 845 c 0,44,45
 761 824 761 824 719 861 c 0,46,47
 717 864 717 864 713 869 c 0,48,49
 706 878 706 878 703 881 c 0,50,51
 699 883 699 883 688 886 c 0,52,53
 678 889 678 889 674 891 c 0,54,55
 655 902 655 902 637 927 c 1,0,1
513 1151 m 0,56,57
 464 1144 464 1144 419 1093 c 0,58,59
 396 1065 396 1065 390 1040 c 0,60,61
 378 989 378 989 421 950 c 0,62,63
 428 944 428 944 434 940 c 0,64,65
 454 927 454 927 470 928 c 0,66,67
 522 935 522 935 566 988 c 0,68,69
 589 1016 589 1016 595 1041 c 0,70,71
 605 1090 605 1090 567 1130 c 0,72,73
 541 1154 541 1154 513 1151 c 0,56,57
802 1151 m 0,74,75
 753 1144 753 1144 708 1093 c 0,76,77
 685 1065 685 1065 678 1040 c 0,78,79
 666 989 666 989 709 950 c 0,80,81
 716 944 716 944 722 940 c 0,82,83
 742 927 742 927 758 928 c 0,84,85
 809 935 809 935 854 988 c 0,86,87
 877 1016 877 1016 883 1041 c 0,88,89
 895 1092 895 1092 852 1130 c 0,90,91
 843 1137 843 1137 834 1141 c 0,92,93
 813 1152 813 1152 802 1151 c 0,74,75
761 -67 m 1,94,-1
 368 -67 l 2,95,96
 348 -67 348 -67 307 -69 c 0,97,98
 192 -73 192 -73 142 -61 c 0,99,100
 112 -54 112 -54 88 -36 c 0,101,102
 85 -33 85 -33 79 -27 c 0,103,104
 71 -18 71 -18 67 -15 c 0,105,106
 60 -11 60 -11 46 -4 c 0,107,108
 27 4 27 4 20 10 c 0,109,110
 -33 58 -33 58 -13 159 c 1,111,112
 -16 159 -16 159 35 375 c 2,113,-1
 86 590 l 2,114,115
 117 724 117 724 185 776 c 0,116,117
 193 782 193 782 199 786 c 0,118,119
 263 825 263 825 391 821 c 0,120,121
 430 820 430 820 441 820 c 2,122,-1
 934 820 l 1,123,-1
 914 731 l 1,124,-1
 946 731 l 1,125,-1
 761 -67 l 1,94,-1
881 774 m 1,126,-1
 457 774 l 2,127,128
 339 774 339 774 315 770 c 0,129,130
 270 762 270 762 234 741 c 0,131,132
 167 700 167 700 136 612 c 0,133,134
 124 578 124 578 88 415 c 0,135,136
 86 406 86 406 84 397 c 0,137,138
 79 375 79 375 68 331 c 0,139,140
 42 230 42 230 36 182 c 0,141,142
 27 91 27 91 77 52 c 1,143,144
 124 18 124 18 249 21 c 0,145,146
 279 22 279 22 289 21 c 2,147,-1
 707 21 l 1,148,-1
 881 774 l 1,126,-1
561 243 m 1,149,-1
 369 243 l 2,150,151
 309 243 309 243 301 245 c 0,152,153
 291 249 291 249 285 254 c 0,154,155
 266 271 266 271 276 315 c 2,156,-1
 314 479 l 1,157,158
 328 532 328 532 354 548 c 1,159,160
 379 559 379 559 445 558 c 2,161,-1
 634 558 l 1,162,-1
 561 243 l 1,149,-1
571 469 m 1,163,-1
 460 469 l 2,164,165
 415 468 415 468 392 446 c 1,166,167
 377 428 377 428 368 390 c 2,168,-1
 346 294 l 1,169,170
 382 284 382 284 502 288 c 0,171,172
 517 289 517 289 529 289 c 1,173,-1
 571 469 l 1,163,-1
EndSplineSet
AlternateSubs2: "gsub_alternate_dfl_aalt_arab_FAR_Lookup_01_Subtable_01" uniFE94 afii57417
Substitution2: "gsub_single_rtl_fina_arab_FAR_Lookup_01_Subtable_01" uniFE94
EndChar

StartChar: uniFE94
Encoding: 65172 65172 356
Width: 905
VWidth: 1639
GlyphClass: 2
Flags: HW
AnchorPoint: "GposMark2BaseAnchorClassErabAbove_01_02" 517.5 1445 basechar 0
AnchorPoint: "GposMark2BaseAnchorClassErabBelow_01_02" 517.5 -223 basechar 0
LayerCount: 2
Fore
SplineSet
652 1015 m 1,0,1
 620 951 620 951 548 933 c 0,2,3
 487 917 487 917 451 950 c 0,4,5
 447 952 447 952 440 960 c 0,6,7
 433 968 433 968 430 971 c 0,8,9
 423 975 423 975 409 981 c 0,10,11
 384 992 384 992 374 1002 c 0,12,13
 330 1056 330 1056 373 1176 c 0,14,15
 405 1267 405 1267 508 1287 c 0,16,17
 551 1295 551 1295 590 1287 c 0,18,19
 644 1276 644 1276 661 1225 c 0,20,21
 667 1206 667 1206 664 1187 c 1,22,23
 668 1192 668 1192 686 1220 c 1,24,25
 724 1264 724 1264 764 1281 c 1,26,27
 789 1289 789 1289 830 1289 c 0,28,29
 921 1287 921 1287 946 1230 c 0,30,31
 950 1219 950 1219 950 1171 c 0,32,33
 950 1162 950 1162 952 1156 c 0,34,35
 953 1150 953 1150 957 1140 c 0,36,37
 961 1129 961 1129 962 1123 c 0,38,39
 970 1079 970 1079 951 1033 c 0,40,41
 921 963 921 963 848 936 c 0,42,43
 789 916 789 916 748 941 c 0,44,45
 741 946 741 946 732 957 c 0,46,47
 724 966 724 966 719 969 c 0,48,49
 714 973 714 973 700 977 c 0,50,51
 690 980 690 980 686 982 c 0,52,53
 678 987 678 987 652 1015 c 1,0,1
530 1241 m 0,54,55
 480 1234 480 1234 434 1181 c 0,56,57
 412 1154 412 1154 406 1130 c 0,58,59
 395 1083 395 1083 432 1042 c 0,60,61
 457 1016 457 1016 485 1018 c 0,62,63
 532 1023 532 1023 579 1074 c 0,64,65
 606 1104 606 1104 612 1132 c 0,66,67
 622 1184 622 1184 580 1220 c 0,68,69
 571 1227 571 1227 562 1232 c 0,70,71
 539 1242 539 1242 530 1241 c 0,54,55
819 1241 m 0,72,73
 769 1234 769 1234 723 1183 c 0,74,75
 699 1154 699 1154 693 1128 c 0,76,77
 683 1079 683 1079 722 1040 c 0,78,79
 746 1017 746 1017 773 1018 c 0,80,81
 821 1023 821 1023 869 1077 c 0,82,83
 894 1106 894 1106 900 1132 c 1,84,85
 910 1184 910 1184 864 1223 c 0,86,87
 859 1227 859 1227 854 1230 c 0,88,89
 830 1242 830 1242 819 1241 c 0,72,73
711 907 m 1,90,-1
 1017 907 l 1,91,-1
 997 818 l 1,92,-1
 1029 818 l 1,93,-1
 907 289 l 1,94,-1
 1001 289 l 1,95,-1
 991 243 l 1,96,-1
 821 243 l 1,97,-1
 964 861 l 1,98,-1
 743 861 l 1,99,-1
 723 774 l 1,100,-1
 450 774 l 2,101,102
 340 774 340 774 289 749 c 0,103,104
 278 743 278 743 268 738 c 0,105,106
 191 686 191 686 159 553 c 0,107,108
 150 516 150 516 132 440 c 0,109,110
 90 270 90 270 76 187 c 0,111,112
 63 103 63 103 110 61 c 0,113,114
 159 16 159 16 298 20 c 0,115,116
 354 22 354 22 363 21 c 0,117,118
 459 21 459 21 652 22 c 0,119,120
 845 23 845 23 940 23 c 1,121,-1
 919 -67 l 1,122,-1
 387 -67 l 2,123,124
 369 -67 369 -67 332 -69 c 0,125,126
 216 -73 216 -73 168 -56 c 0,127,128
 155 -52 155 -52 111 -19 c 0,129,130
 108 -17 108 -17 106 -15 c 0,131,132
 100 -11 100 -11 87 -5 c 0,133,134
 59 9 59 9 49 20 c 0,135,136
 6 71 6 71 33 189 c 2,137,-1
 125 589 l 2,138,139
 153 711 153 711 203 759 c 0,140,141
 217 772 217 772 232 782 c 1,142,143
 303 820 303 820 415 820 c 2,144,-1
 691 820 l 1,145,-1
 711 907 l 1,90,-1
600 243 m 1,146,-1
 408 243 l 2,147,148
 348 243 348 243 340 245 c 0,149,150
 330 249 330 249 324 254 c 0,151,152
 305 271 305 271 315 315 c 2,153,-1
 353 479 l 1,154,155
 367 532 367 532 393 548 c 1,156,157
 418 559 418 559 484 558 c 2,158,-1
 673 558 l 1,159,-1
 600 243 l 1,146,-1
610 469 m 1,160,-1
 498 469 l 2,161,162
 453 468 453 468 431 446 c 1,163,164
 416 428 416 428 407 390 c 2,165,-1
 385 294 l 1,166,167
 421 284 421 284 541 288 c 0,168,169
 556 289 556 289 568 289 c 1,170,-1
 610 469 l 1,160,-1
EndSplineSet
EndChar

StartChar: afii57418
Encoding: 1578 1578 357
AltUni2: 00fe95.ffffffff.0
Width: 1535
VWidth: 1639
GlyphClass: 2
Flags: HW
AnchorPoint: "GposMark2BaseAnchorClassErabAbove_01_02" 795 1347 basechar 0
AnchorPoint: "GposMark2BaseAnchorClassErabBelow_01_02" 795 -219 basechar 0
LayerCount: 2
Fore
SplineSet
938 925 m 1,0,1
 893 852 893 852 821 838 c 0,2,3
 788 833 788 833 761 843 c 0,4,5
 752 846 752 846 723 872 c 0,6,7
 718 877 718 877 714 879 c 0,8,9
 709 882 709 882 696 886 c 0,10,11
 683 891 683 891 678 894 c 0,12,13
 630 929 630 929 635 999 c 1,14,15
 650 1099 650 1099 697 1148 c 1,16,17
 750 1197 750 1197 833 1197 c 0,18,19
 890 1196 890 1196 916 1174 c 1,20,21
 938 1152 938 1152 950 1096 c 1,22,23
 965 1137 965 1137 1011 1169 c 0,24,25
 1052 1197 1052 1197 1114 1197 c 0,26,27
 1197 1195 1197 1195 1224 1151 c 0,28,29
 1235 1131 1235 1131 1236 1075 c 0,30,31
 1236 1069 1236 1069 1236 1066 c 0,32,33
 1236 1059 1236 1059 1242 1046 c 0,34,35
 1247 1034 1247 1034 1247 1028 c 0,36,37
 1255 989 1255 989 1235 943 c 0,38,39
 1206 873 1206 873 1133 845 c 0,40,41
 1087 829 1087 829 1050 841 c 0,42,43
 1041 844 1041 844 1014 871 c 0,44,45
 1008 876 1008 876 1004 879 c 0,46,47
 1000 881 1000 881 991 884 c 0,48,49
 981 887 981 887 977 889 c 0,50,51
 955 901 955 901 938 925 c 1,0,1
813 1150 m 0,52,53
 761 1143 761 1143 716 1090 c 0,54,55
 694 1063 694 1063 688 1038 c 0,56,57
 677 989 677 989 720 949 c 0,58,59
 728 942 728 942 735 938 c 0,60,61
 754 925 754 925 769 927 c 0,62,63
 821 934 821 934 866 987 c 0,64,65
 888 1014 888 1014 894 1038 c 0,66,67
 906 1090 906 1090 861 1130 c 0,68,69
 855 1135 855 1135 850 1138 c 0,70,71
 828 1151 828 1151 813 1150 c 0,52,53
1101 1150 m 0,72,73
 1052 1143 1052 1143 1006 1091 c 0,74,75
 983 1063 983 1063 977 1038 c 0,76,77
 967 987 967 987 1010 948 c 0,78,79
 1017 942 1017 942 1024 938 c 0,80,81
 1043 925 1043 925 1058 927 c 0,82,83
 1110 934 1110 934 1155 987 c 0,84,85
 1177 1014 1177 1014 1184 1038 c 0,86,87
 1196 1090 1196 1090 1149 1129 c 0,88,89
 1142 1134 1142 1134 1137 1138 c 0,90,91
 1117 1151 1117 1151 1101 1150 c 0,72,73
189 818 m 1,92,-1
 485 818 l 1,93,-1
 465 730 l 1,94,-1
 497 730 l 1,95,-1
 425 418 l 1,96,-1
 406 338 l 2,97,98
 401 311 401 311 403 305 c 0,99,100
 408 296 408 296 441 292 c 0,101,102
 469 289 469 289 559 289 c 2,103,-1
 959 289 l 2,104,105
 1046 289 1046 289 1053 290 c 0,106,107
 1093 297 1093 297 1115 318 c 0,108,109
 1148 351 1148 351 1169 449 c 0,110,111
 1172 463 1172 463 1173 471 c 2,112,-1
 1254 818 l 1,113,-1
 1550 818 l 1,114,-1
 1529 730 l 1,115,-1
 1561 730 l 1,116,-1
 1456 272 l 2,117,118
 1423 131 1423 131 1389 74 c 0,119,120
 1366 37 1366 37 1338 8 c 0,121,122
 1258 -69 1258 -69 1099 -69 c 0,123,124
 1082 -69 1082 -69 1048 -68 c 0,125,126
 1016 -67 1016 -67 1002 -67 c 2,127,-1
 381 -67 l 2,128,129
 256 -67 256 -67 213 -52 c 0,130,131
 206 -49 206 -49 201 -47.5 c 128,-1,132
 196 -46 196 -46 154 -16 c 0,133,134
 148 -12 148 -12 144 -10 c 0,135,136
 86 27 86 27 76 40 c 0,137,138
 69 49 69 49 64 57 c 0,139,140
 29 123 29 123 61 266 c 0,141,142
 63 276 63 276 68 296 c 0,143,144
 72 313 72 313 74 320 c 2,145,-1
 189 818 l 1,92,-1
432 772 m 1,146,-1
 221 772 l 1,147,-1
 122 344 l 2,148,149
 90 204 90 204 102 147 c 0,150,151
 108 121 108 121 118 102 c 0,152,153
 162 25 162 25 308 22 c 0,154,155
 320 22 320 22 379 21 c 2,156,-1
 1012 21 l 2,157,158
 1150 21 1150 21 1214 50 c 0,159,160
 1258 71 1258 71 1292 105 c 0,161,162
 1357 171 1357 171 1392 319 c 0,163,164
 1394 328 1394 328 1399 351 c 2,165,-1
 1496 772 l 1,166,-1
 1286 772 l 1,167,-1
 1206 426 l 2,168,169
 1185 335 1185 335 1176 316 c 0,170,171
 1164 291 1164 291 1148 274 c 0,172,173
 1122 248 1122 248 1068 244 c 0,174,175
 1036 242 1036 242 974 243 c 2,176,-1
 514 243 l 2,177,178
 409 243 409 243 389 246 c 0,179,180
 352 251 352 251 340 269 c 1,181,182
 322 303 322 303 346 403 c 0,183,184
 349 415 349 415 351 421 c 2,185,-1
 432 772 l 1,146,-1
EndSplineSet
AlternateSubs2: "gsub_alternate_dfl_aalt_arab_FAR_Lookup_01_Subtable_01" uniFE96 uniFE97 afii57418 uniFE98
Substitution2: "gsub_single_rtl_fina_arab_FAR_Lookup_01_Subtable_01" uniFE96
Substitution2: "gsub_single_rtl_init_arab_FAR_Lookup_01_Subtable_01" uniFE97
Substitution2: "gsub_single_rtl_medi_arab_FAR_Lookup_01_Subtable_01" uniFE98
EndChar

StartChar: uniFE96
Encoding: 65174 65174 358
Width: 1463
VWidth: 1639
GlyphClass: 2
Flags: HW
AnchorPoint: "GposMark2BaseAnchorClassErabAbove_01_02" 796 1347 basechar 0
AnchorPoint: "GposMark2BaseAnchorClassErabBelow_01_02" 796 -221 basechar 0
LayerCount: 2
Fore
SplineSet
938 925 m 1,0,1
 893 852 893 852 821 838 c 0,2,3
 788 833 788 833 761 843 c 0,4,5
 752 846 752 846 723 872 c 0,6,7
 718 877 718 877 714 879 c 0,8,9
 709 882 709 882 696 886 c 0,10,11
 683 891 683 891 678 894 c 0,12,13
 630 929 630 929 635 999 c 1,14,15
 650 1099 650 1099 697 1148 c 1,16,17
 750 1197 750 1197 833 1197 c 0,18,19
 890 1196 890 1196 917 1174 c 1,20,21
 939 1152 939 1152 950 1096 c 1,22,23
 965 1137 965 1137 1012 1169 c 0,24,25
 1053 1197 1053 1197 1114 1197 c 0,26,27
 1197 1195 1197 1195 1224 1151 c 0,28,29
 1235 1131 1235 1131 1236 1075 c 0,30,31
 1236 1069 1236 1069 1236 1066 c 0,32,33
 1236 1059 1236 1059 1242 1046 c 0,34,35
 1247 1034 1247 1034 1247 1028 c 0,36,37
 1255 989 1255 989 1235 943 c 0,38,39
 1206 873 1206 873 1133 845 c 0,40,41
 1087 829 1087 829 1050 841 c 0,42,43
 1041 844 1041 844 1014 871 c 0,44,45
 1008 876 1008 876 1004 879 c 0,46,47
 1000 881 1000 881 991 884 c 0,48,49
 981 887 981 887 977 889 c 0,50,51
 955 901 955 901 938 925 c 1,0,1
813 1150 m 0,52,53
 761 1143 761 1143 716 1090 c 0,54,55
 694 1063 694 1063 688 1038 c 0,56,57
 677 989 677 989 720 949 c 0,58,59
 728 942 728 942 736 938 c 0,60,61
 755 925 755 925 769 927 c 0,62,63
 821 934 821 934 867 987 c 0,64,65
 889 1014 889 1014 894 1038 c 0,66,67
 906 1090 906 1090 861 1130 c 0,68,69
 855 1135 855 1135 850 1138 c 0,70,71
 828 1151 828 1151 813 1150 c 0,52,53
1102 1150 m 0,72,73
 1053 1143 1053 1143 1007 1091 c 0,74,75
 984 1063 984 1063 977 1038 c 0,76,77
 967 987 967 987 1010 948 c 0,78,79
 1017 942 1017 942 1024 938 c 0,80,81
 1043 925 1043 925 1058 927 c 0,82,83
 1110 934 1110 934 1155 987 c 0,84,85
 1177 1014 1177 1014 1184 1038 c 0,86,87
 1196 1090 1196 1090 1149 1129 c 0,88,89
 1142 1134 1142 1134 1137 1138 c 0,90,91
 1118 1151 1118 1151 1102 1150 c 0,72,73
189 818 m 1,92,-1
 485 818 l 1,93,-1
 465 730 l 1,94,-1
 497 730 l 1,95,-1
 423 412 l 1,96,-1
 405 331 l 2,97,98
 400 306 400 306 403 302 c 0,99,100
 411 291 411 291 452 290 c 0,101,102
 474 290 474 290 519 289 c 0,103,104
 564 288 564 288 586 289 c 2,105,-1
 1132 289 l 1,106,-1
 1254 818 l 1,107,-1
 1550 818 l 1,108,-1
 1529 730 l 1,109,-1
 1561 730 l 1,110,-1
 1460 289 l 1,111,-1
 1559 289 l 1,112,-1
 1548 243 l 1,113,-1
 1374 243 l 1,114,-1
 1496 772 l 1,115,-1
 1286 772 l 1,116,-1
 1164 243 l 1,117,-1
 546 243 l 2,118,119
 522 243 522 243 473 244 c 0,120,121
 424 245 424 245 400 244 c 0,122,123
 350 245 350 245 336 266 c 1,124,125
 319 297 319 297 345 398 c 0,126,127
 348 410 348 410 350 417 c 2,128,-1
 432 772 l 1,129,-1
 221 772 l 1,130,-1
 123 348 l 2,131,132
 92 214 92 214 100 160 c 0,133,134
 105 130 105 130 117 107 c 0,135,136
 160 27 160 27 307 22 c 0,137,138
 325 21 325 21 353 21 c 2,139,-1
 486 21 l 2,140,141
 655 21 655 21 992 22 c 0,142,143
 1330 23 1330 23 1497 23 c 1,144,-1
 1477 -67 l 1,145,-1
 444 -67 l 2,146,147
 427 -67 427 -67 393 -68 c 0,148,149
 264 -71 264 -71 208 -51 c 0,150,151
 203 -49 203 -49 154 -16 c 0,152,153
 148 -12 148 -12 145 -10 c 0,154,155
 87 29 87 29 80 36 c 0,156,157
 67 51 67 51 60 67 c 0,158,159
 31 136 31 136 64 278 c 0,160,161
 66 286 66 286 70 302 c 0,162,163
 75 323 75 323 77 333 c 2,164,-1
 189 818 l 1,92,-1
EndSplineSet
EndChar

StartChar: uniFE97
Encoding: 65175 65175 359
Width: 797
VWidth: 1639
GlyphClass: 2
Flags: HW
AnchorPoint: "GposMark2BaseAnchorClassErabAbove_01_02" 419.5 1347 basechar 0
AnchorPoint: "GposMark2BaseAnchorClassErabBelow_01_02" 419.5 -217 basechar 0
LayerCount: 2
Fore
SplineSet
603 925 m 1,0,1
 562 856 562 856 491 840 c 0,2,3
 455 832 455 832 426 843 c 0,4,5
 417 846 417 846 388 872 c 0,6,7
 383 877 383 877 379 879 c 0,8,9
 374 882 374 882 362 886 c 0,10,11
 350 891 350 891 344 894 c 0,12,13
 297 925 297 925 299 989 c 1,14,15
 310 1097 310 1097 366 1151 c 1,16,17
 416 1197 416 1197 498 1197 c 0,18,19
 555 1196 555 1196 581 1174 c 1,20,21
 606 1149 606 1149 615 1096 c 1,22,23
 640 1165 640 1165 720 1189 c 0,24,25
 746 1197 746 1197 770 1197 c 0,26,27
 872 1197 872 1197 895 1140 c 0,28,29
 898 1132 898 1132 899 1125 c 0,30,31
 901 1114 901 1114 901 1092 c 0,32,33
 900 1073 900 1073 901 1064 c 0,34,35
 902 1057 902 1057 907 1043 c 0,36,37
 912 1031 912 1031 913 1027 c 0,38,39
 921 985 921 985 896 933 c 0,40,41
 862 863 862 863 789 842 c 0,42,43
 726 825 726 825 687 859 c 0,44,45
 684 861 684 861 679 868 c 0,46,47
 672 876 672 876 669 879 c 0,48,49
 665 883 665 883 652 886 c 0,50,51
 642 889 642 889 638 891 c 0,52,53
 620 901 620 901 603 925 c 1,0,1
478 1150 m 0,54,55
 428 1143 428 1143 382 1091 c 0,56,57
 358 1063 358 1063 353 1038 c 0,58,59
 343 986 343 986 386 948 c 0,60,61
 394 942 394 942 400 938 c 0,62,63
 419 925 419 925 434 927 c 0,64,65
 486 934 486 934 532 987 c 0,66,67
 554 1014 554 1014 561 1038 c 0,68,69
 573 1090 573 1090 526 1129 c 0,70,71
 519 1134 519 1134 514 1138 c 0,72,73
 494 1151 494 1151 478 1150 c 0,54,55
766 1150 m 0,74,75
 717 1143 717 1143 671 1091 c 0,76,77
 648 1063 648 1063 641 1038 c 0,78,79
 631 985 631 985 678 946 c 0,80,81
 683 942 683 942 686 940 c 0,82,83
 705 928 705 928 722 927 c 1,84,85
 775 934 775 934 821 987 c 0,86,87
 843 1014 843 1014 849 1038 c 0,88,89
 861 1089 861 1089 816 1129 c 0,90,91
 808 1136 808 1136 801 1140 c 0,92,93
 778 1151 778 1151 766 1150 c 0,74,75
389 818 m 1,94,-1
 684 818 l 1,95,-1
 663 730 l 1,96,-1
 695 730 l 1,97,-1
 581 235 l 2,98,99
 544 77 544 77 476 11 c 0,100,101
 460 -3 460 -3 444 -15 c 0,102,103
 369 -67 369 -67 231 -67 c 0,104,105
 223 -67 223 -67 215 -67 c 0,106,107
 165 -67 165 -67 67 -66 c 0,108,109
 -32 -65 -32 -65 -82 -66 c 1,110,-1
 -61 23 l 1,111,112
 -24 23 -24 23 52 22 c 0,113,114
 128 21 128 21 164 21 c 0,115,116
 296 21 296 21 365 60 c 0,117,118
 375 66 375 66 383 71 c 0,119,120
 483 136 483 136 525 315 c 2,121,-1
 630 772 l 1,122,-1
 422 772 l 1,123,-1
 336 403 l 2,124,125
 315 312 315 312 294 284 c 0,126,127
 282 270 282 270 270 261 c 0,128,129
 242 243 242 243 174 243 c 2,130,-1
 -10 243 l 1,131,-1
 0 289 l 1,132,-1
 150 289 l 2,133,134
 210 290 210 290 236 307 c 0,135,136
 279 335 279 335 301 433 c 0,137,138
 304 446 304 446 304 449 c 2,139,-1
 389 818 l 1,94,-1
EndSplineSet
EndChar

StartChar: uniFE98
Encoding: 65176 65176 360
Width: 657
VWidth: 1639
GlyphClass: 2
Flags: HW
AnchorPoint: "GposMark2BaseAnchorClassErabAbove_01_02" 419.5 1347 basechar 0
AnchorPoint: "GposMark2BaseAnchorClassErabBelow_01_02" 419.5 -217 basechar 0
LayerCount: 2
Fore
SplineSet
603 925 m 1,0,1
 562 856 562 856 491 840 c 0,2,3
 455 832 455 832 426 843 c 0,4,5
 417 846 417 846 388 872 c 0,6,7
 383 877 383 877 379 879 c 0,8,9
 374 882 374 882 362 886 c 0,10,11
 350 891 350 891 344 894 c 0,12,13
 297 925 297 925 299 989 c 1,14,15
 310 1097 310 1097 366 1151 c 1,16,17
 416 1197 416 1197 498 1197 c 0,18,19
 555 1196 555 1196 581 1174 c 1,20,21
 606 1149 606 1149 615 1096 c 1,22,23
 640 1165 640 1165 720 1189 c 0,24,25
 746 1197 746 1197 770 1197 c 0,26,27
 872 1197 872 1197 895 1140 c 0,28,29
 898 1132 898 1132 899 1125 c 0,30,31
 901 1114 901 1114 901 1092 c 0,32,33
 900 1073 900 1073 901 1064 c 0,34,35
 902 1057 902 1057 907 1043 c 0,36,37
 912 1031 912 1031 913 1027 c 0,38,39
 921 985 921 985 896 933 c 0,40,41
 862 863 862 863 789 842 c 0,42,43
 726 825 726 825 687 859 c 0,44,45
 684 861 684 861 679 868 c 0,46,47
 672 876 672 876 669 879 c 0,48,49
 665 883 665 883 652 886 c 0,50,51
 642 889 642 889 638 891 c 0,52,53
 620 901 620 901 603 925 c 1,0,1
478 1150 m 0,54,55
 428 1143 428 1143 382 1091 c 0,56,57
 358 1063 358 1063 353 1038 c 0,58,59
 343 986 343 986 386 948 c 0,60,61
 394 942 394 942 400 938 c 0,62,63
 419 925 419 925 434 927 c 0,64,65
 486 934 486 934 532 987 c 0,66,67
 554 1014 554 1014 561 1038 c 0,68,69
 573 1090 573 1090 526 1129 c 0,70,71
 519 1134 519 1134 514 1138 c 0,72,73
 494 1151 494 1151 478 1150 c 0,54,55
766 1150 m 0,74,75
 717 1143 717 1143 671 1091 c 0,76,77
 648 1063 648 1063 641 1038 c 0,78,79
 631 985 631 985 678 946 c 0,80,81
 683 942 683 942 686 940 c 0,82,83
 705 928 705 928 722 927 c 1,84,85
 775 934 775 934 821 987 c 0,86,87
 843 1014 843 1014 849 1038 c 0,88,89
 861 1089 861 1089 816 1129 c 0,90,91
 808 1136 808 1136 801 1140 c 0,92,93
 778 1151 778 1151 766 1150 c 0,74,75
389 818 m 1,94,-1
 684 818 l 1,95,-1
 663 730 l 1,96,-1
 695 730 l 1,97,-1
 594 289 l 1,98,-1
 697 289 l 1,99,-1
 687 243 l 1,100,-1
 508 243 l 1,101,-1
 630 772 l 1,102,-1
 422 772 l 1,103,-1
 299 243 l 1,104,-1
 -10 243 l 1,105,-1
 0 289 l 1,106,-1
 267 289 l 1,107,-1
 389 818 l 1,94,-1
-61 23 m 1,108,-1
 636 23 l 1,109,-1
 615 -67 l 1,110,-1
 -82 -66 l 1,111,-1
 -61 23 l 1,108,-1
EndSplineSet
EndChar

StartChar: afii57419
Encoding: 1579 1579 361
AltUni2: 00fe99.ffffffff.0
Width: 1535
VWidth: 1639
GlyphClass: 2
Flags: HW
AnchorPoint: "GposMark2BaseAnchorClassErabAbove_01_02" 795 1596 basechar 0
AnchorPoint: "GposMark2BaseAnchorClassErabBelow_01_02" 795 -219 basechar 0
LayerCount: 2
Fore
SplineSet
869 1200 m 1,0,1
 855 1292 855 1292 909 1371 c 0,2,3
 940 1413 940 1413 981 1433 c 0,4,5
 1010 1446 1010 1446 1071 1446 c 0,6,7
 1116 1445 1116 1445 1140 1428 c 0,8,9
 1176 1401 1176 1401 1181 1350 c 0,10,11
 1181 1345 1181 1345 1180 1334 c 0,12,13
 1178 1319 1178 1319 1179 1312 c 0,14,15
 1180 1308 1180 1308 1190 1282 c 1,16,17
 1197 1241 1197 1241 1181 1199 c 1,18,19
 1236 1197 1236 1197 1260 1140 c 0,20,21
 1264 1130 1264 1130 1265 1120 c 0,22,23
 1267 1111 1267 1111 1266 1092 c 0,24,25
 1265 1075 1265 1075 1266 1068 c 0,26,27
 1266 1062 1266 1062 1271 1051 c 0,28,29
 1275 1042 1275 1042 1275 1038 c 0,30,31
 1280 1013 1280 1013 1277 984 c 1,32,33
 1261 904 1261 904 1187 860 c 0,34,35
 1132 828 1132 828 1082 843 c 0,36,37
 1072 847 1072 847 1038 876 c 0,38,39
 1035 879 1035 879 1033 881 c 0,40,41
 1028 885 1028 885 1014 889 c 0,42,43
 1004 892 1004 892 1000 894 c 0,44,45
 993 899 993 899 966 927 c 1,46,47
 938 864 938 864 863 845 c 0,48,49
 824 835 824 835 793 845 c 0,50,51
 782 848 782 848 750 876 c 0,52,53
 747 879 747 879 745 881 c 0,54,55
 741 885 741 885 728 888 c 0,56,57
 719 891 719 891 716 892 c 0,58,59
 686 908 686 908 671 945 c 0,60,61
 659 977 659 977 672 1035 c 0,62,63
 696 1141 696 1141 768 1182 c 0,64,65
 771 1184 771 1184 772 1184 c 0,66,67
 777 1187 777 1187 782.5 1189.5 c 128,-1,68
 788 1192 788 1192 794.5 1194 c 128,-1,69
 801 1196 801 1196 805 1196.5 c 128,-1,70
 809 1197 809 1197 816 1198 c 128,-1,71
 823 1199 823 1199 826 1199.5 c 128,-1,72
 829 1200 829 1200 837.5 1200 c 128,-1,73
 846 1200 846 1200 847.5 1200 c 128,-1,74
 849 1200 849 1200 859 1200 c 2,75,-1
 869 1200 l 1,0,1
1043 1397 m 0,76,77
 994 1390 994 1390 949 1339 c 0,78,79
 926 1311 926 1311 919 1286 c 0,80,81
 909 1237 909 1237 949 1197 c 0,82,83
 975 1173 975 1173 1004 1176 c 0,84,85
 1054 1183 1054 1183 1098 1235 c 0,86,87
 1122 1262 1122 1262 1127 1287 c 0,88,89
 1137 1336 1137 1336 1097 1376 c 0,90,91
 1071 1400 1071 1400 1043 1397 c 0,76,77
847 1151 m 0,92,93
 801 1151 801 1151 752 1098 c 0,94,95
 724 1068 724 1068 718 1040 c 0,96,97
 708 990 708 990 749 951 c 0,98,99
 771 932 771 932 794 930 c 0,100,101
 839 928 839 928 890 982 c 0,102,103
 918 1013 918 1013 924 1041 c 0,104,105
 935 1090 935 1090 895 1130 c 0,106,107
 872 1150 872 1150 847 1151 c 0,92,93
1135 1151 m 0,108,109
 1088 1151 1088 1151 1040 1097 c 0,110,111
 1014 1068 1014 1068 1006 1041 c 0,112,113
 993 993 993 993 1035 953 c 0,114,115
 1059 931 1059 931 1084 930 c 0,116,117
 1131 930 1131 930 1181 985 c 0,118,119
 1207 1015 1207 1015 1214 1041 c 0,120,121
 1224 1090 1224 1090 1182 1130 c 0,122,123
 1159 1150 1159 1150 1135 1151 c 0,108,109
189 818 m 1,124,-1
 485 818 l 1,125,-1
 465 730 l 1,126,-1
 497 730 l 1,127,-1
 425 418 l 1,128,-1
 406 338 l 2,129,130
 401 311 401 311 403 305 c 0,131,132
 408 296 408 296 441 292 c 0,133,134
 469 289 469 289 559 289 c 2,135,-1
 959 289 l 2,136,137
 1046 289 1046 289 1053 290 c 0,138,139
 1093 297 1093 297 1115 318 c 0,140,141
 1148 351 1148 351 1169 449 c 0,142,143
 1172 463 1172 463 1173 471 c 2,144,-1
 1254 818 l 1,145,-1
 1550 818 l 1,146,-1
 1529 730 l 1,147,-1
 1561 730 l 1,148,-1
 1456 272 l 2,149,150
 1423 131 1423 131 1389 74 c 0,151,152
 1366 37 1366 37 1338 8 c 0,153,154
 1258 -69 1258 -69 1099 -69 c 0,155,156
 1082 -69 1082 -69 1048 -68 c 0,157,158
 1016 -67 1016 -67 1002 -67 c 2,159,-1
 381 -67 l 2,160,161
 256 -67 256 -67 213 -52 c 0,162,163
 206 -49 206 -49 201 -47.5 c 128,-1,164
 196 -46 196 -46 154 -16 c 0,165,166
 148 -12 148 -12 144 -10 c 0,167,168
 86 27 86 27 76 40 c 0,169,170
 69 49 69 49 64 57 c 0,171,172
 29 123 29 123 61 266 c 0,173,174
 63 276 63 276 68 296 c 0,175,176
 72 313 72 313 74 320 c 2,177,-1
 189 818 l 1,124,-1
432 772 m 1,178,-1
 221 772 l 1,179,-1
 122 344 l 2,180,181
 90 204 90 204 102 147 c 0,182,183
 108 121 108 121 118 102 c 0,184,185
 162 25 162 25 308 22 c 0,186,187
 320 22 320 22 379 21 c 2,188,-1
 1012 21 l 2,189,190
 1150 21 1150 21 1214 50 c 0,191,192
 1258 71 1258 71 1292 105 c 0,193,194
 1357 171 1357 171 1392 319 c 0,195,196
 1394 328 1394 328 1399 351 c 2,197,-1
 1496 772 l 1,198,-1
 1286 772 l 1,199,-1
 1206 426 l 2,200,201
 1185 335 1185 335 1176 316 c 0,202,203
 1164 291 1164 291 1148 274 c 0,204,205
 1122 248 1122 248 1068 244 c 0,206,207
 1036 242 1036 242 974 243 c 2,208,-1
 514 243 l 2,209,210
 409 243 409 243 389 246 c 0,211,212
 352 251 352 251 340 269 c 1,213,214
 322 303 322 303 346 403 c 0,215,216
 349 415 349 415 351 421 c 2,217,-1
 432 772 l 1,178,-1
EndSplineSet
AlternateSubs2: "gsub_alternate_dfl_aalt_arab_FAR_Lookup_01_Subtable_01" uniFE9A uniFE9B afii57419 uniFE9C
Substitution2: "gsub_single_rtl_fina_arab_FAR_Lookup_01_Subtable_01" uniFE9A
Substitution2: "gsub_single_rtl_init_arab_FAR_Lookup_01_Subtable_01" uniFE9B
Substitution2: "gsub_single_rtl_medi_arab_FAR_Lookup_01_Subtable_01" uniFE9C
EndChar

StartChar: uniFE9A
Encoding: 65178 65178 362
Width: 1463
VWidth: 1639
GlyphClass: 2
Flags: HW
AnchorPoint: "GposMark2BaseAnchorClassErabAbove_01_02" 796 1592 basechar 0
AnchorPoint: "GposMark2BaseAnchorClassErabBelow_01_02" 796 -221 basechar 0
LayerCount: 2
Fore
SplineSet
870 1196 m 1,0,1
 862 1225 862 1225 873 1276 c 0,2,3
 888 1339 888 1339 906 1366 c 1,4,5
 961 1441 961 1441 1062 1442 c 0,6,7
 1108 1441 1108 1441 1122 1435 c 0,8,9
 1173 1412 1173 1412 1179 1353 c 0,10,11
 1180 1346 1180 1346 1178 1332 c 0,12,13
 1176 1314 1176 1314 1178 1307 c 0,14,15
 1194 1245 1194 1245 1188 1218 c 0,16,17
 1185 1206 1185 1206 1181 1196 c 1,18,19
 1243 1191 1243 1191 1263 1126 c 0,20,21
 1265 1118 1265 1118 1266 1110 c 0,22,23
 1267 1103 1267 1103 1266 1087 c 0,24,25
 1265 1071 1265 1071 1265 1064 c 0,26,27
 1266 1061 1266 1061 1274 1038 c 1,28,29
 1281 1012 1281 1012 1276 979 c 0,30,31
 1260 897 1260 897 1185 855 c 0,32,33
 1133 827 1133 827 1086 838 c 0,34,35
 1073 841 1073 841 1044 868 c 0,36,37
 1037 874 1037 874 1033 877 c 0,38,39
 1027 882 1027 882 1011 887 c 0,40,41
 999 891 999 891 994 894 c 0,42,43
 987 899 987 899 976 912 c 0,44,45
 969 920 969 920 965 923 c 1,46,47
 942 863 942 863 866 842 c 0,48,49
 825 831 825 831 795 840 c 0,50,51
 783 843 783 843 754 870 c 0,52,53
 749 875 749 875 744 877 c 0,54,55
 739 881 739 881 726 884 c 0,56,57
 716 887 716 887 712 889 c 0,58,59
 681 908 681 908 670 943 c 0,60,61
 659 975 659 975 672 1032 c 0,62,63
 699 1142 699 1142 772 1181 c 1,64,65
 805 1196 805 1196 870 1196 c 1,0,1
1044 1394 m 0,66,67
 992 1387 992 1387 946 1333 c 0,68,69
 926 1307 926 1307 919 1284 c 0,70,71
 908 1235 908 1235 949 1195 c 0,72,73
 959 1186 959 1186 968 1181 c 0,74,75
 988 1172 988 1172 1000 1171 c 1,76,77
 1052 1178 1052 1178 1098 1231 c 0,78,79
 1122 1258 1122 1258 1127 1284 c 0,80,81
 1137 1335 1137 1335 1094 1372 c 0,82,83
 1085 1379 1085 1379 1076 1384 c 0,84,85
 1055 1395 1055 1395 1044 1394 c 0,66,67
840 1148 m 0,86,87
 789 1141 789 1141 744 1087 c 0,88,89
 724 1061 724 1061 717 1038 c 0,90,91
 704 989 704 989 747 949 c 0,92,93
 757 940 757 940 767 935 c 0,94,95
 787 926 787 926 798 927 c 0,96,97
 848 932 848 932 894 984 c 0,98,99
 918 1011 918 1011 923 1038 c 0,100,101
 933 1088 933 1088 894 1127 c 0,102,103
 868 1151 868 1151 840 1148 c 0,86,87
1129 1148 m 0,104,105
 1079 1141 1079 1141 1034 1089 c 0,106,107
 1010 1062 1010 1062 1005 1036 c 0,108,109
 995 984 995 984 1039 947 c 0,110,111
 1046 942 1046 942 1051 938 c 0,112,113
 1073 925 1073 925 1088 927 c 0,114,115
 1138 934 1138 934 1183 985 c 0,116,117
 1207 1012 1207 1012 1213 1038 c 0,118,119
 1223 1087 1223 1087 1183 1126 c 0,120,121
 1157 1151 1157 1151 1129 1148 c 0,104,105
189 818 m 1,122,-1
 485 818 l 1,123,-1
 465 730 l 1,124,-1
 497 730 l 1,125,-1
 423 412 l 1,126,-1
 405 331 l 2,127,128
 400 306 400 306 403 302 c 0,129,130
 411 291 411 291 452 290 c 0,131,132
 474 290 474 290 519 289 c 0,133,134
 564 288 564 288 586 289 c 2,135,-1
 1132 289 l 1,136,-1
 1254 818 l 1,137,-1
 1550 818 l 1,138,-1
 1529 730 l 1,139,-1
 1561 730 l 1,140,-1
 1460 289 l 1,141,-1
 1559 289 l 1,142,-1
 1548 243 l 1,143,-1
 1374 243 l 1,144,-1
 1496 772 l 1,145,-1
 1286 772 l 1,146,-1
 1164 243 l 1,147,-1
 546 243 l 2,148,149
 522 243 522 243 473 244 c 0,150,151
 424 245 424 245 400 244 c 0,152,153
 350 245 350 245 336 266 c 1,154,155
 319 297 319 297 345 398 c 0,156,157
 348 410 348 410 350 417 c 2,158,-1
 432 772 l 1,159,-1
 221 772 l 1,160,-1
 123 348 l 2,161,162
 92 214 92 214 100 160 c 0,163,164
 105 130 105 130 117 107 c 0,165,166
 160 27 160 27 307 22 c 0,167,168
 325 21 325 21 353 21 c 2,169,-1
 486 21 l 2,170,171
 655 21 655 21 992 22 c 0,172,173
 1330 23 1330 23 1497 23 c 1,174,-1
 1477 -67 l 1,175,-1
 444 -67 l 2,176,177
 427 -67 427 -67 393 -68 c 0,178,179
 264 -71 264 -71 208 -51 c 0,180,181
 203 -49 203 -49 154 -16 c 0,182,183
 148 -12 148 -12 145 -10 c 0,184,185
 87 29 87 29 80 36 c 0,186,187
 67 51 67 51 60 67 c 0,188,189
 31 136 31 136 64 278 c 0,190,191
 66 286 66 286 70 302 c 0,192,193
 75 323 75 323 77 333 c 2,194,-1
 189 818 l 1,122,-1
EndSplineSet
EndChar

StartChar: uniFE9B
Encoding: 65179 65179 363
Width: 794
VWidth: 1639
GlyphClass: 2
Flags: HW
AnchorPoint: "GposMark2BaseAnchorClassErabAbove_01_02" 422 1597 basechar 0
AnchorPoint: "GposMark2BaseAnchorClassErabBelow_01_02" 422 -217 basechar 0
LayerCount: 2
Fore
SplineSet
507 1200 m 1,0,1
 499 1226 499 1226 511 1279 c 0,2,3
 529 1351 529 1351 552 1381 c 1,4,5
 607 1447 607 1447 707 1445 c 0,6,7
 750 1444 750 1444 768 1435 c 0,8,9
 811 1409 811 1409 817 1355 c 0,10,11
 818 1349 818 1349 816 1334 c 0,12,13
 815 1319 815 1319 815 1314 c 0,14,15
 816 1307 816 1307 822 1292 c 0,16,17
 827 1277 827 1277 828 1271 c 0,18,19
 831 1250 831 1250 819 1199 c 1,20,21
 878 1197 878 1197 899 1134 c 0,22,23
 902 1124 902 1124 904 1115 c 0,24,25
 905 1108 905 1108 902 1094 c 0,26,27
 900 1075 900 1075 902 1068 c 0,28,29
 903 1062 903 1062 911 1046 c 1,30,31
 919 1019 919 1019 915 992 c 0,32,33
 903 908 903 908 829 863 c 0,34,35
 783 836 783 836 736 840 c 0,36,37
 714 842 714 842 680 873 c 0,38,39
 674 878 674 878 669 881 c 0,40,41
 662 887 662 887 644 893 c 0,42,43
 610 908 610 908 606 928 c 1,44,-1
 604 928 l 1,45,46
 573 865 573 865 502 845 c 0,47,48
 457 833 457 833 424 846 c 0,49,50
 421 847 421 847 389 875 c 0,51,52
 384 879 384 879 380 882 c 0,53,54
 377 884 377 884 350 892 c 1,55,56
 326 907 326 907 310 936 c 1,57,58
 295 974 295 974 309 1036 c 0,59,60
 336 1146 336 1146 412 1186 c 0,61,62
 443 1200 443 1200 507 1200 c 1,0,1
687 1397 m 0,63,64
 641 1399 641 1399 591 1343 c 0,65,66
 565 1313 565 1313 557 1287 c 0,67,68
 544 1238 544 1238 587 1198 c 0,69,70
 610 1178 610 1178 634 1176 c 0,71,72
 680 1174 680 1174 730 1230 c 0,73,74
 756 1260 756 1260 763 1286 c 0,75,76
 776 1336 776 1336 734 1375 c 0,77,78
 712 1395 712 1395 687 1397 c 0,63,64
483 1151 m 0,79,80
 438 1151 438 1151 389 1098 c 0,81,82
 363 1068 363 1068 356 1041 c 0,83,84
 344 990 344 990 385 951 c 0,85,86
 408 931 408 931 432 930 c 0,87,88
 479 930 479 930 529 985 c 0,89,90
 555 1015 555 1015 562 1041 c 0,91,92
 574 1091 574 1091 531 1131 c 0,93,94
 509 1151 509 1151 483 1151 c 0,79,80
772 1151 m 0,95,96
 726 1151 726 1151 677 1098 c 0,97,98
 651 1068 651 1068 644 1041 c 0,99,100
 633 991 633 991 672 952 c 0,101,102
 696 930 696 930 722 930 c 0,103,104
 770 932 770 932 818 985 c 0,105,106
 843 1015 843 1015 850 1041 c 0,107,108
 862 1091 862 1091 819 1131 c 0,109,110
 798 1151 798 1151 772 1151 c 0,95,96
396 818 m 1,111,-1
 690 818 l 1,112,-1
 670 730 l 1,113,-1
 702 730 l 1,114,-1
 587 235 l 2,115,116
 550 77 550 77 482 11 c 0,117,118
 466 -3 466 -3 451 -15 c 0,119,120
 376 -67 376 -67 238 -67 c 0,121,122
 230 -67 230 -67 222 -67 c 0,123,124
 172 -67 172 -67 73 -66 c 0,125,126
 -26 -65 -26 -65 -75 -66 c 1,127,-1
 -55 23 l 1,128,129
 -18 23 -18 23 58 22 c 0,130,131
 134 21 134 21 171 21 c 0,132,133
 303 21 303 21 372 60 c 0,134,135
 382 66 382 66 389 71 c 0,136,137
 489 136 489 136 531 315 c 2,138,-1
 637 772 l 1,139,-1
 428 772 l 1,140,-1
 343 403 l 2,141,142
 322 312 322 312 300 284 c 0,143,144
 288 270 288 270 276 261 c 0,145,146
 248 243 248 243 181 243 c 2,147,-1
 -4 243 l 1,148,-1
 7 289 l 1,149,-1
 156 289 l 2,150,151
 216 290 216 290 243 307 c 0,152,153
 286 335 286 335 307 433 c 0,154,155
 310 446 310 446 311 449 c 2,156,-1
 396 818 l 1,111,-1
EndSplineSet
EndChar

StartChar: uniFE9C
Encoding: 65180 65180 364
Width: 658
VWidth: 1639
GlyphClass: 2
Flags: HW
AnchorPoint: "GposMark2BaseAnchorClassErabAbove_01_02" 422 1597 basechar 0
AnchorPoint: "GposMark2BaseAnchorClassErabBelow_01_02" 422 -217 basechar 0
LayerCount: 2
Fore
SplineSet
507 1200 m 1,0,1
 499 1226 499 1226 511 1279 c 0,2,3
 529 1351 529 1351 552 1381 c 1,4,5
 607 1447 607 1447 707 1445 c 0,6,7
 750 1444 750 1444 768 1435 c 0,8,9
 811 1409 811 1409 817 1355 c 0,10,11
 818 1349 818 1349 816 1334 c 0,12,13
 815 1319 815 1319 815 1314 c 0,14,15
 816 1307 816 1307 822 1292 c 0,16,17
 827 1277 827 1277 828 1271 c 0,18,19
 831 1250 831 1250 819 1199 c 1,20,21
 878 1197 878 1197 899 1134 c 0,22,23
 902 1124 902 1124 904 1115 c 0,24,25
 905 1108 905 1108 902 1094 c 0,26,27
 900 1075 900 1075 902 1068 c 0,28,29
 903 1062 903 1062 911 1046 c 1,30,31
 919 1019 919 1019 915 992 c 0,32,33
 903 908 903 908 829 863 c 0,34,35
 783 836 783 836 736 840 c 0,36,37
 714 842 714 842 680 873 c 0,38,39
 674 878 674 878 669 881 c 0,40,41
 662 887 662 887 644 893 c 0,42,43
 610 908 610 908 606 928 c 1,44,-1
 604 928 l 1,45,46
 573 865 573 865 502 845 c 0,47,48
 457 833 457 833 424 846 c 0,49,50
 421 847 421 847 389 875 c 0,51,52
 384 879 384 879 380 882 c 0,53,54
 377 884 377 884 350 892 c 1,55,56
 326 907 326 907 310 936 c 1,57,58
 295 974 295 974 309 1036 c 0,59,60
 336 1146 336 1146 412 1186 c 0,61,62
 443 1200 443 1200 507 1200 c 1,0,1
687 1397 m 0,63,64
 641 1399 641 1399 591 1343 c 0,65,66
 565 1313 565 1313 557 1287 c 0,67,68
 544 1238 544 1238 587 1198 c 0,69,70
 610 1178 610 1178 634 1176 c 0,71,72
 680 1174 680 1174 730 1230 c 0,73,74
 756 1260 756 1260 763 1286 c 0,75,76
 776 1336 776 1336 734 1375 c 0,77,78
 712 1395 712 1395 687 1397 c 0,63,64
483 1151 m 0,79,80
 438 1151 438 1151 389 1098 c 0,81,82
 363 1068 363 1068 356 1041 c 0,83,84
 344 990 344 990 385 951 c 0,85,86
 408 931 408 931 432 930 c 0,87,88
 479 930 479 930 529 985 c 0,89,90
 555 1015 555 1015 562 1041 c 0,91,92
 574 1091 574 1091 531 1131 c 0,93,94
 509 1151 509 1151 483 1151 c 0,79,80
772 1151 m 0,95,96
 726 1151 726 1151 677 1098 c 0,97,98
 651 1068 651 1068 644 1041 c 0,99,100
 633 991 633 991 672 952 c 0,101,102
 696 930 696 930 722 930 c 0,103,104
 770 932 770 932 818 985 c 0,105,106
 843 1015 843 1015 850 1041 c 0,107,108
 862 1091 862 1091 819 1131 c 0,109,110
 798 1151 798 1151 772 1151 c 0,95,96
396 818 m 1,111,-1
 690 818 l 1,112,-1
 670 730 l 1,113,-1
 702 730 l 1,114,-1
 600 289 l 1,115,-1
 704 289 l 1,116,-1
 693 243 l 1,117,-1
 515 243 l 1,118,-1
 637 772 l 1,119,-1
 428 772 l 1,120,-1
 306 243 l 1,121,-1
 -4 243 l 1,122,-1
 7 289 l 1,123,-1
 273 289 l 1,124,-1
 396 818 l 1,111,-1
-55 23 m 1,125,-1
 642 23 l 1,126,-1
 621 -67 l 1,127,-1
 -75 -66 l 1,128,-1
 -55 23 l 1,125,-1
EndSplineSet
EndChar

StartChar: afii57420
Encoding: 1580 1580 365
AltUni2: 00fe9d.ffffffff.0
Width: 1008
VWidth: 1639
GlyphClass: 2
Flags: HW
AnchorPoint: "GposMark2BaseAnchorClassErabAbove_01_02" 509.5 970 basechar 0
AnchorPoint: "GposMark2BaseAnchorClassErabBelow_01_02" 509.5 -1029 basechar 0
LayerCount: 2
Fore
SplineSet
317 820 m 1,0,-1
 871 820 l 2,1,2
 994 820 994 820 1000 819 c 0,3,4
 1071 810 1071 810 1103 772 c 0,5,6
 1123 747 1123 747 1126 682 c 0,7,8
 1127 672 1127 672 1127 666 c 0,9,10
 1128 657 1128 657 1133 639 c 0,11,12
 1138 617 1138 617 1139 605 c 0,13,14
 1140 571 1140 571 1121 490 c 2,15,-1
 993 -67 l 1,16,-1
 674 -67 l 2,17,18
 554 -67 554 -67 505 -83 c 0,19,20
 471 -95 471 -95 441 -113 c 0,21,22
 333 -178 333 -178 289 -292 c 0,23,24
 282 -311 282 -311 278 -330 c 0,25,26
 267 -382 267 -382 269 -394 c 0,27,28
 288 -471 288 -471 372 -506 c 0,29,30
 386 -512 386 -512 398 -515 c 0,31,32
 448 -524 448 -524 567 -522 c 1,33,-1
 856 -522 l 1,34,-1
 835 -610 l 1,35,-1
 867 -610 l 1,36,-1
 805 -879 l 1,37,-1
 485 -879 l 2,38,39
 330 -879 330 -879 294 -873 c 0,40,41
 282 -871 282 -871 272 -869 c 0,42,43
 212 -855 212 -855 127 -799 c 1,44,45
 35 -735 35 -735 1 -690 c 0,46,47
 -121 -528 -121 -528 -60 -261 c 0,48,49
 -27 -120 -27 -120 38 -20 c 0,50,51
 127 114 127 114 269 202 c 0,52,53
 374 265 374 265 480 282 c 0,54,55
 537 291 537 291 716 289 c 0,56,57
 728 289 728 289 738 289 c 1,58,59
 741 302 741 302 747 327 c 0,60,61
 763 389 763 389 766 418 c 1,62,63
 765 456 765 456 760 462 c 0,64,65
 758 465 758 465 752.5 466 c 128,-1,66
 747 467 747 467 738 467 c 2,67,-1
 730 466 l 1,68,-1
 644 466 l 1,69,-1
 310 466 l 1,70,-1
 320 508 l 1,71,-1
 245 508 l 1,72,-1
 317 820 l 1,0,-1
938 21 m 1,73,-1
 1048 495 l 2,74,75
 1075 613 1075 613 1074 649 c 0,76,77
 1072 689 1072 689 1056 717 c 0,78,79
 1021 775 1021 775 899 774 c 0,80,81
 891 774 891 774 875 774 c 0,82,83
 860 774 860 774 853 774 c 2,84,-1
 350 774 l 1,85,-1
 299 554 l 1,86,-1
 672 554 l 2,87,88
 753 554 753 554 771 549 c 0,89,90
 799 538 799 538 811 515 c 0,91,92
 825 484 825 484 808 410 c 2,93,-1
 770 243 l 1,94,95
 577 243 l 0,96,97
 542 241 542 241 512 236 c 0,98,99
 404 218 404 218 301 156 c 0,100,101
 222 108 222 108 154 38 c 0,102,103
 99 -19 99 -19 53 -93 c 1,104,105
 -67 -296 -67 -296 -14 -499 c 0,106,107
 15 -607 15 -607 88 -684 c 1,108,109
 176 -773 176 -773 315 -789 c 0,110,111
 335 -791 335 -791 469 -790 c 2,112,-1
 751 -790 l 1,113,-1
 802 -567 l 1,114,-1
 485 -567 l 2,115,116
 365 -567 365 -567 325 -553 c 0,117,118
 302 -544 302 -544 283 -531 c 0,119,120
 191 -465 191 -465 205 -321 c 0,121,122
 219 -179 219 -179 320 -76 c 0,123,124
 367 -30 367 -30 421 -5 c 0,125,126
 481 23 481 23 599 22 c 0,127,128
 617 22 617 22 627 21 c 2,129,-1
 938 21 l 1,73,-1
593 -120 m 0,130,131
 718 -103 718 -103 748 -187 c 0,132,133
 752 -203 752 -203 753 -226 c 0,134,135
 753 -229 753 -229 751 -237 c 0,136,137
 749 -248 749 -248 750 -253 c 0,138,139
 752 -261 752 -261 757 -275 c 0,140,141
 765 -299 765 -299 765 -313 c 0,142,143
 761 -392 761 -392 695 -446 c 0,144,145
 662 -472 662 -472 626 -479 c 1,146,147
 576 -486 576 -486 541 -462 c 0,148,149
 537 -459 537 -459 532 -452 c 0,150,151
 523 -442 523 -442 518 -438 c 0,152,153
 514 -436 514 -436 504 -433 c 0,154,155
 494 -430 494 -430 490 -428 c 0,156,157
 450 -403 450 -403 439 -358 c 0,158,159
 437 -341 437 -341 446 -289 c 0,160,161
 453 -247 453 -247 465 -218 c 1,162,163
 498 -152 498 -152 567 -127 c 0,164,165
 581 -122 581 -122 593 -120 c 0,130,131
617 -167 m 0,166,167
 565 -174 565 -174 520 -227 c 0,168,169
 498 -254 498 -254 492 -279 c 0,170,171
 480 -333 480 -333 530 -373 c 0,172,173
 535 -377 535 -377 538 -379 c 0,174,175
 560 -390 560 -390 572 -390 c 0,176,177
 622 -385 622 -385 668 -333 c 0,178,179
 693 -304 693 -304 699 -277 c 0,180,181
 709 -225 709 -225 665 -188 c 0,182,183
 658 -183 658 -183 653 -179 c 0,184,185
 633 -166 633 -166 617 -167 c 0,166,167
EndSplineSet
AlternateSubs2: "gsub_alternate_dfl_aalt_arab_FAR_Lookup_01_Subtable_01" uniFE9E uniFE9F afii57420 uniFEA0
Substitution2: "gsub_single_rtl_fina_arab_FAR_Lookup_01_Subtable_01" uniFE9E
Substitution2: "gsub_single_rtl_init_arab_FAR_Lookup_01_Subtable_01" uniFE9F
Substitution2: "gsub_single_rtl_medi_arab_FAR_Lookup_01_Subtable_01" uniFEA0
EndChar

StartChar: uniFE9E
Encoding: 65182 65182 366
Width: 962
VWidth: 1639
GlyphClass: 2
Flags: HW
AnchorPoint: "GposMark2BaseAnchorClassErabAbove_01_02" 541 970 basechar 0
AnchorPoint: "GposMark2BaseAnchorClassErabBelow_01_02" 541 -1029 basechar 0
LayerCount: 2
Fore
SplineSet
317 820 m 1,0,-1
 883 820 l 2,1,2
 1001 820 1001 820 1031 813 c 0,3,4
 1086 798 1086 798 1111 758 c 0,5,6
 1121 741 1121 741 1125 683 c 0,7,8
 1126 673 1126 673 1127 666 c 0,9,10
 1128 655 1128 655 1132 636 c 0,11,12
 1138 611 1138 611 1138 597 c 0,13,14
 1136 562 1136 562 1116 472 c 2,15,-1
 1073 289 l 1,16,-1
 1174 289 l 1,17,-1
 1163 243 l 1,18,-1
 988 243 l 1,19,-1
 1053 526 l 2,20,21
 1078 634 1078 634 1071 675 c 0,22,23
 1068 689 1068 689 1063 700 c 0,24,25
 1032 770 1032 770 907 774 c 0,26,27
 893 774 893 774 864 774 c 2,28,-1
 350 774 l 1,29,-1
 299 554 l 1,30,-1
 674 554 l 2,31,32
 756 554 756 554 773 549 c 0,33,34
 801 539 801 539 812 517 c 1,35,36
 825 486 825 486 807 412 c 2,37,-1
 768 243 l 1,38,39
 584 243 584 243 554 240 c 0,40,41
 521 237 521 237 493 231 c 0,42,43
 404 214 404 214 307 159 c 1,44,45
 227 110 227 110 161 44 c 0,46,47
 24 -92 24 -92 -16 -255 c 0,48,49
 -19 -266 -19 -266 -21 -274 c 0,50,51
 -60 -460 -60 -460 32 -611 c 0,52,53
 53 -644 53 -644 77 -671 c 0,54,55
 164 -766 164 -766 288 -786 c 0,56,57
 326 -791 326 -791 473 -790 c 2,58,-1
 728 -790 l 1,59,-1
 780 -567 l 1,60,-1
 479 -567 l 2,61,62
 362 -567 362 -567 323 -554 c 0,63,64
 302 -546 302 -546 286 -536 c 0,65,66
 191 -472 191 -472 204 -328 c 0,67,68
 216 -186 216 -186 317 -80 c 0,69,70
 357 -38 357 -38 405 -11 c 0,71,72
 474 26 474 26 607 22 c 0,73,74
 644 21 644 21 656 21 c 0,75,76
 732 21 732 21 884 22 c 0,77,78
 1036 23 1036 23 1113 23 c 1,79,-1
 1092 -67 l 1,80,-1
 704 -67 l 2,81,82
 577 -67 577 -67 565 -69 c 0,83,84
 518 -75 518 -75 481 -90 c 0,85,86
 367 -141 367 -141 305 -259 c 0,87,88
 290 -287 290 -287 281 -315 c 0,89,90
 264 -364 264 -364 267 -390 c 1,91,92
 278 -451 278 -451 352 -497 c 1,93,94
 397 -523 397 -523 515 -522 c 0,95,96
 527 -522 527 -522 534 -522 c 2,97,-1
 833 -522 l 1,98,-1
 812 -610 l 1,99,-1
 844 -610 l 1,100,-1
 782 -879 l 1,101,-1
 479 -879 l 2,102,103
 333 -879 333 -879 299 -873 c 0,104,105
 288 -871 288 -871 278 -869 c 0,106,107
 219 -857 219 -857 124 -797 c 1,108,109
 36 -737 36 -737 6 -699 c 0,110,111
 -62 -610 -62 -610 -80 -494 c 1,112,113
 -92 -402 -92 -402 -63 -272 c 0,114,115
 -38 -166 -38 -166 -6 -97 c 0,116,117
 78 79 78 79 251 191 c 0,118,119
 262 198 262 198 271 203 c 0,120,121
 406 284 406 284 609 288 c 0,122,123
 620 288 620 288 736 289 c 1,124,125
 739 301 739 301 746 326 c 0,126,127
 762 387 762 387 764 415 c 0,128,129
 767 450 767 450 760 462 c 0,130,131
 756 466 756 466 730 466 c 2,132,-1
 647 466 l 1,133,-1
 310 466 l 1,134,-1
 320 508 l 1,135,-1
 245 508 l 1,136,-1
 317 820 l 1,0,-1
595 -120 m 0,137,138
 720 -103 720 -103 750 -187 c 0,139,140
 754 -203 754 -203 755 -226 c 0,141,142
 755 -229 755 -229 753 -237 c 0,143,144
 751 -248 751 -248 752 -253 c 0,145,146
 754 -261 754 -261 759 -275 c 0,147,148
 767 -299 767 -299 767 -313 c 0,149,150
 763 -392 763 -392 697 -446 c 0,151,152
 664 -472 664 -472 628 -479 c 1,153,154
 578 -486 578 -486 543 -462 c 0,155,156
 539 -459 539 -459 533 -452 c 0,157,158
 524 -442 524 -442 520 -438 c 0,159,160
 516 -436 516 -436 506 -433 c 0,161,162
 496 -430 496 -430 491 -428 c 0,163,164
 451 -403 451 -403 441 -358 c 0,165,166
 439 -341 439 -341 447 -289 c 0,167,168
 454 -247 454 -247 467 -218 c 1,169,170
 500 -152 500 -152 568 -127 c 0,171,172
 583 -122 583 -122 595 -120 c 0,137,138
619 -167 m 0,173,174
 567 -174 567 -174 522 -227 c 0,175,176
 500 -254 500 -254 494 -279 c 0,177,178
 482 -333 482 -333 531 -373 c 0,179,180
 536 -377 536 -377 539 -379 c 0,181,182
 561 -390 561 -390 573 -390 c 0,183,184
 623 -385 623 -385 669 -333 c 0,185,186
 694 -304 694 -304 700 -277 c 0,187,188
 710 -225 710 -225 667 -188 c 0,189,190
 660 -183 660 -183 654 -179 c 0,191,192
 635 -166 635 -166 619 -167 c 0,173,174
EndSplineSet
EndChar

StartChar: uniFE9F
Encoding: 65183 65183 367
Width: 1213
VWidth: 1639
GlyphClass: 2
Flags: HW
AnchorPoint: "GposMark2BaseAnchorClassErabAbove_01_02" 580 970 basechar 0
AnchorPoint: "GposMark2BaseAnchorClassErabBelow_01_02" 580 -636 basechar 0
LayerCount: 2
Fore
SplineSet
378 820 m 1,0,-1
 935 820 l 2,1,2
 1057 820 1057 820 1077 817 c 0,3,4
 1139 806 1139 806 1169 769 c 0,5,6
 1186 746 1186 746 1190 682 c 0,7,8
 1191 672 1191 672 1191 666 c 0,9,10
 1192 658 1192 658 1196 643 c 0,11,12
 1201 625 1201 625 1202 615 c 0,13,14
 1204 572 1204 572 1185 487 c 2,15,-1
 1057 -67 l 1,16,-1
 -44 -66 l 1,17,-1
 -24 23 l 1,18,-1
 1002 21 l 1,19,-1
 1112 495 l 2,20,21
 1140 615 1140 615 1136 656 c 0,22,23
 1132 693 1132 693 1117 718 c 0,24,25
 1080 774 1080 774 958 774 c 0,26,27
 950 774 950 774 934 774 c 0,28,29
 919 774 919 774 911 774 c 2,30,-1
 410 774 l 1,31,-1
 360 554 l 1,32,-1
 736 554 l 2,33,34
 818 554 818 554 835 549 c 0,35,36
 863 539 863 539 874 517 c 0,37,38
 887 488 887 488 870 413 c 2,39,-1
 831 243 l 1,40,-1
 27 243 l 1,41,-1
 38 289 l 1,42,-1
 799 289 l 1,43,44
 802 301 802 301 808 326 c 0,45,46
 824 387 824 387 826 415 c 0,47,48
 829 450 829 450 822 462 c 0,49,50
 818 466 818 466 792 466 c 2,51,-1
 708 466 l 1,52,-1
 371 466 l 1,53,-1
 381 508 l 1,54,-1
 306 508 l 1,55,-1
 378 820 l 1,0,-1
559 -120 m 0,56,57
 684 -106 684 -106 714 -184 c 0,58,59
 716 -191 716 -191 716 -241 c 0,60,61
 716 -248 716 -248 716 -253 c 0,62,63
 718 -261 718 -261 723 -275 c 0,64,65
 731 -299 731 -299 731 -313 c 0,66,67
 727 -392 727 -392 661 -446 c 0,68,69
 628 -472 628 -472 592 -479 c 1,70,71
 542 -486 542 -486 508 -462 c 0,72,73
 504 -459 504 -459 498 -452 c 0,74,75
 490 -442 490 -442 484 -438 c 0,76,77
 480 -436 480 -436 470 -433 c 0,78,79
 460 -430 460 -430 456 -428 c 0,80,81
 415 -404 415 -404 405 -353 c 1,82,83
 403 -328 403 -328 414 -282 c 0,84,85
 426 -230 426 -230 434 -213 c 0,86,87
 466 -149 466 -149 536 -126 c 0,88,89
 548 -122 548 -122 559 -120 c 0,56,57
584 -167 m 0,90,91
 532 -174 532 -174 486 -227 c 0,92,93
 464 -254 464 -254 459 -279 c 0,94,95
 447 -330 447 -330 493 -371 c 0,96,97
 499 -376 499 -376 504 -379 c 0,98,99
 526 -390 526 -390 538 -390 c 0,100,101
 589 -385 589 -385 635 -331 c 0,102,103
 659 -302 659 -302 665 -276 c 0,104,105
 675 -224 675 -224 631 -186 c 0,106,107
 624 -181 624 -181 618 -177 c 0,108,109
 596 -166 596 -166 584 -167 c 0,90,91
EndSplineSet
EndChar

StartChar: uniFEA0
Encoding: 65184 65184 368
Width: 1136
VWidth: 1639
GlyphClass: 2
Flags: HW
AnchorPoint: "GposMark2BaseAnchorClassErabAbove_01_02" 594 968 basechar 0
AnchorPoint: "GposMark2BaseAnchorClassErabBelow_01_02" 594 -636 basechar 0
LayerCount: 2
Fore
SplineSet
378 818 m 1,0,-1
 944 818 l 2,1,2
 1062 818 1062 818 1091 812 c 0,3,4
 1145 799 1145 799 1169 763 c 0,5,6
 1181 743 1181 743 1186 680 c 0,7,8
 1187 670 1187 670 1188 663 c 0,9,10
 1189 653 1189 653 1194 633 c 0,11,12
 1200 603 1200 603 1200 587 c 0,13,14
 1199 562 1199 562 1178 471 c 2,15,-1
 1136 289 l 1,16,-1
 1232 289 l 1,17,-1
 1221 243 l 1,18,-1
 1050 243 l 1,19,-1
 1115 523 l 2,20,21
 1141 635 1141 635 1129 681 c 0,22,23
 1126 691 1126 691 1124 699 c 0,24,25
 1093 770 1093 770 964 772 c 0,26,27
 951 772 951 772 924 772 c 2,28,-1
 410 772 l 1,29,-1
 359 553 l 1,30,-1
 734 553 l 2,31,32
 816 553 816 553 833 547 c 0,33,34
 861 537 861 537 872 515 c 0,35,36
 887 486 887 486 869 410 c 2,37,-1
 831 243 l 1,38,-1
 27 243 l 1,39,-1
 38 289 l 1,40,-1
 799 289 l 1,41,42
 825 401 825 401 826 413 c 0,43,44
 829 448 829 448 822 461 c 0,45,46
 820 464 820 464 814.5 465 c 128,-1,47
 809 466 809 466 799 465 c 2,48,-1
 789 464 l 1,49,-1
 705 464 l 1,50,-1
 371 464 l 1,51,-1
 381 507 l 1,52,-1
 306 507 l 1,53,-1
 378 818 l 1,0,-1
-24 23 m 1,54,-1
 1170 23 l 1,55,-1
 1150 -67 l 1,56,-1
 -44 -66 l 1,57,-1
 -24 23 l 1,54,-1
559 -120 m 0,58,59
 684 -106 684 -106 714 -184 c 0,60,61
 716 -191 716 -191 716 -241 c 0,62,63
 716 -248 716 -248 716 -253 c 0,64,65
 718 -261 718 -261 723 -275 c 0,66,67
 731 -299 731 -299 731 -313 c 0,68,69
 727 -392 727 -392 661 -446 c 0,70,71
 628 -472 628 -472 592 -479 c 1,72,73
 542 -486 542 -486 508 -462 c 0,74,75
 504 -459 504 -459 498 -452 c 0,76,77
 490 -442 490 -442 484 -438 c 0,78,79
 480 -436 480 -436 470 -433 c 0,80,81
 460 -430 460 -430 456 -428 c 0,82,83
 415 -404 415 -404 405 -353 c 1,84,85
 403 -328 403 -328 414 -282 c 0,86,87
 426 -230 426 -230 434 -213 c 0,88,89
 466 -149 466 -149 536 -126 c 0,90,91
 548 -122 548 -122 559 -120 c 0,58,59
584 -167 m 0,92,93
 532 -174 532 -174 486 -227 c 0,94,95
 464 -254 464 -254 459 -279 c 0,96,97
 447 -330 447 -330 493 -371 c 0,98,99
 499 -376 499 -376 504 -379 c 0,100,101
 526 -390 526 -390 538 -390 c 0,102,103
 589 -385 589 -385 635 -331 c 0,104,105
 659 -302 659 -302 665 -276 c 0,106,107
 675 -224 675 -224 631 -186 c 0,108,109
 624 -181 624 -181 618 -177 c 0,110,111
 596 -166 596 -166 584 -167 c 0,92,93
EndSplineSet
EndChar

StartChar: afii57421
Encoding: 1581 1581 369
AltUni2: 00fea1.ffffffff.0
Width: 1008
VWidth: 1639
GlyphClass: 2
Flags: HW
AnchorPoint: "GposMark2BaseAnchorClassErabAbove_01_02" 509.5 970 basechar 0
AnchorPoint: "GposMark2BaseAnchorClassErabBelow_01_02" 509.5 -1029 basechar 0
LayerCount: 2
Fore
SplineSet
317 820 m 1,0,-1
 871 820 l 2,1,2
 994 820 994 820 1000 819 c 0,3,4
 1071 810 1071 810 1103 772 c 0,5,6
 1123 747 1123 747 1126 682 c 0,7,8
 1127 672 1127 672 1127 666 c 0,9,10
 1128 657 1128 657 1133 639 c 0,11,12
 1138 617 1138 617 1139 605 c 0,13,14
 1140 571 1140 571 1121 490 c 2,15,-1
 993 -67 l 1,16,-1
 674 -67 l 2,17,18
 554 -67 554 -67 505 -83 c 0,19,20
 471 -95 471 -95 441 -113 c 0,21,22
 333 -178 333 -178 289 -292 c 0,23,24
 282 -311 282 -311 278 -330 c 0,25,26
 267 -382 267 -382 269 -394 c 0,27,28
 288 -471 288 -471 372 -506 c 0,29,30
 386 -512 386 -512 398 -515 c 0,31,32
 448 -524 448 -524 567 -522 c 1,33,-1
 856 -522 l 1,34,-1
 835 -610 l 1,35,-1
 867 -610 l 1,36,-1
 805 -879 l 1,37,-1
 485 -879 l 2,38,39
 330 -879 330 -879 294 -873 c 0,40,41
 282 -871 282 -871 272 -869 c 0,42,43
 212 -855 212 -855 127 -799 c 1,44,45
 35 -735 35 -735 1 -690 c 0,46,47
 -121 -528 -121 -528 -60 -261 c 0,48,49
 -27 -120 -27 -120 38 -20 c 0,50,51
 127 114 127 114 269 202 c 0,52,53
 374 265 374 265 480 282 c 0,54,55
 537 291 537 291 716 289 c 0,56,57
 728 289 728 289 738 289 c 1,58,59
 741 302 741 302 747 327 c 0,60,61
 763 389 763 389 766 418 c 1,62,63
 765 456 765 456 760 462 c 0,64,65
 758 465 758 465 752.5 466 c 128,-1,66
 747 467 747 467 738 467 c 2,67,-1
 730 466 l 1,68,-1
 644 466 l 1,69,-1
 310 466 l 1,70,-1
 320 508 l 1,71,-1
 245 508 l 1,72,-1
 317 820 l 1,0,-1
938 21 m 1,73,-1
 1048 495 l 2,74,75
 1075 613 1075 613 1074 649 c 0,76,77
 1072 689 1072 689 1056 717 c 0,78,79
 1021 775 1021 775 899 774 c 0,80,81
 891 774 891 774 875 774 c 0,82,83
 860 774 860 774 853 774 c 2,84,-1
 350 774 l 1,85,-1
 299 554 l 1,86,-1
 672 554 l 2,87,88
 753 554 753 554 771 549 c 0,89,90
 799 538 799 538 811 515 c 0,91,92
 825 484 825 484 808 410 c 2,93,-1
 770 243 l 1,94,95
 577 243 l 0,96,97
 542 241 542 241 512 236 c 0,98,99
 404 218 404 218 301 156 c 0,100,101
 222 108 222 108 154 38 c 0,102,103
 99 -19 99 -19 53 -93 c 1,104,105
 -67 -296 -67 -296 -14 -499 c 0,106,107
 15 -607 15 -607 88 -684 c 1,108,109
 176 -773 176 -773 315 -789 c 0,110,111
 335 -791 335 -791 469 -790 c 2,112,-1
 751 -790 l 1,113,-1
 802 -567 l 1,114,-1
 485 -567 l 2,115,116
 365 -567 365 -567 325 -553 c 0,117,118
 302 -544 302 -544 283 -531 c 0,119,120
 191 -465 191 -465 205 -321 c 0,121,122
 219 -179 219 -179 320 -76 c 0,123,124
 367 -30 367 -30 421 -5 c 0,125,126
 481 23 481 23 599 22 c 0,127,128
 617 22 617 22 627 21 c 2,129,-1
 938 21 l 1,73,-1
EndSplineSet
AlternateSubs2: "gsub_alternate_dfl_aalt_arab_FAR_Lookup_01_Subtable_01" uniFEA2 uniFEA3 afii57421 uniFEA4
Substitution2: "gsub_single_rtl_fina_arab_FAR_Lookup_01_Subtable_01" uniFEA2
Substitution2: "gsub_single_rtl_init_arab_FAR_Lookup_01_Subtable_01" uniFEA3
Substitution2: "gsub_single_rtl_medi_arab_FAR_Lookup_01_Subtable_01" uniFEA4
EndChar

StartChar: uniFEA2
Encoding: 65186 65186 370
Width: 961
VWidth: 1639
GlyphClass: 2
Flags: HW
AnchorPoint: "GposMark2BaseAnchorClassErabAbove_01_02" 540 970 basechar 0
AnchorPoint: "GposMark2BaseAnchorClassErabBelow_01_02" 540 -1029 basechar 0
LayerCount: 2
Fore
SplineSet
317 820 m 1,0,-1
 883 820 l 2,1,2
 1001 820 1001 820 1031 813 c 0,3,4
 1086 798 1086 798 1111 758 c 0,5,6
 1121 741 1121 741 1125 683 c 0,7,8
 1126 673 1126 673 1127 666 c 0,9,10
 1128 655 1128 655 1132 636 c 0,11,12
 1138 611 1138 611 1138 597 c 0,13,14
 1136 562 1136 562 1116 472 c 2,15,-1
 1073 289 l 1,16,-1
 1172 289 l 1,17,-1
 1162 243 l 1,18,-1
 988 243 l 1,19,-1
 1053 526 l 2,20,21
 1078 634 1078 634 1071 675 c 0,22,23
 1068 689 1068 689 1063 700 c 0,24,25
 1032 770 1032 770 907 774 c 0,26,27
 893 774 893 774 864 774 c 2,28,-1
 350 774 l 1,29,-1
 299 554 l 1,30,-1
 674 554 l 2,31,32
 756 554 756 554 773 549 c 0,33,34
 801 539 801 539 812 517 c 1,35,36
 825 486 825 486 807 412 c 2,37,-1
 768 243 l 1,38,39
 584 243 584 243 554 240 c 0,40,41
 521 237 521 237 493 231 c 0,42,43
 404 214 404 214 307 159 c 1,44,45
 227 110 227 110 161 44 c 0,46,47
 24 -92 24 -92 -16 -255 c 0,48,49
 -19 -266 -19 -266 -21 -274 c 0,50,51
 -60 -460 -60 -460 32 -611 c 0,52,53
 53 -644 53 -644 77 -671 c 0,54,55
 164 -766 164 -766 288 -786 c 0,56,57
 326 -791 326 -791 473 -790 c 2,58,-1
 728 -790 l 1,59,-1
 780 -567 l 1,60,-1
 479 -567 l 2,61,62
 362 -567 362 -567 323 -554 c 0,63,64
 302 -546 302 -546 286 -536 c 0,65,66
 191 -472 191 -472 204 -328 c 0,67,68
 216 -186 216 -186 317 -80 c 0,69,70
 357 -38 357 -38 405 -11 c 0,71,72
 474 26 474 26 605 22 c 0,73,74
 642 21 642 21 655 21 c 0,75,76
 731 21 731 21 883 22 c 0,77,78
 1035 23 1035 23 1111 23 c 1,79,-1
 1090 -67 l 1,80,-1
 703 -67 l 2,81,82
 577 -67 577 -67 565 -69 c 0,83,84
 518 -75 518 -75 481 -90 c 0,85,86
 367 -141 367 -141 305 -259 c 0,87,88
 290 -287 290 -287 281 -315 c 0,89,90
 264 -364 264 -364 267 -390 c 1,91,92
 278 -451 278 -451 352 -497 c 1,93,94
 397 -523 397 -523 515 -522 c 0,95,96
 527 -522 527 -522 534 -522 c 2,97,-1
 833 -522 l 1,98,-1
 812 -610 l 1,99,-1
 844 -610 l 1,100,-1
 782 -879 l 1,101,-1
 479 -879 l 2,102,103
 333 -879 333 -879 299 -873 c 0,104,105
 288 -871 288 -871 278 -869 c 0,106,107
 219 -857 219 -857 124 -797 c 1,108,109
 36 -737 36 -737 6 -699 c 0,110,111
 -62 -610 -62 -610 -80 -494 c 1,112,113
 -92 -402 -92 -402 -63 -272 c 0,114,115
 -38 -166 -38 -166 -6 -97 c 0,116,117
 78 79 78 79 251 191 c 0,118,119
 262 198 262 198 271 203 c 0,120,121
 406 284 406 284 609 288 c 0,122,123
 620 288 620 288 736 289 c 1,124,125
 739 301 739 301 746 326 c 0,126,127
 762 387 762 387 764 415 c 0,128,129
 767 450 767 450 760 462 c 0,130,131
 756 466 756 466 730 466 c 2,132,-1
 647 466 l 1,133,-1
 310 466 l 1,134,-1
 320 508 l 1,135,-1
 245 508 l 1,136,-1
 317 820 l 1,0,-1
EndSplineSet
EndChar

StartChar: uniFEA3
Encoding: 65187 65187 371
Width: 1213
VWidth: 1639
GlyphClass: 2
Flags: HW
AnchorPoint: "GposMark2BaseAnchorClassErabAbove_01_02" 580 970 basechar 0
AnchorPoint: "GposMark2BaseAnchorClassErabBelow_01_02" 580 -217 basechar 0
LayerCount: 2
Fore
SplineSet
378 820 m 1,0,-1
 935 820 l 2,1,2
 1057 820 1057 820 1077 817 c 0,3,4
 1139 806 1139 806 1169 769 c 0,5,6
 1186 746 1186 746 1190 682 c 0,7,8
 1191 672 1191 672 1191 666 c 0,9,10
 1192 658 1192 658 1196 643 c 0,11,12
 1201 625 1201 625 1202 615 c 0,13,14
 1204 572 1204 572 1185 487 c 2,15,-1
 1057 -67 l 1,16,-1
 -44 -66 l 1,17,-1
 -24 23 l 1,18,-1
 1002 21 l 1,19,-1
 1112 495 l 2,20,21
 1140 615 1140 615 1136 656 c 0,22,23
 1132 693 1132 693 1117 718 c 0,24,25
 1080 774 1080 774 958 774 c 0,26,27
 950 774 950 774 934 774 c 0,28,29
 919 774 919 774 911 774 c 2,30,-1
 410 774 l 1,31,-1
 360 554 l 1,32,-1
 736 554 l 2,33,34
 818 554 818 554 835 549 c 0,35,36
 863 539 863 539 874 517 c 0,37,38
 887 488 887 488 870 413 c 2,39,-1
 831 243 l 1,40,-1
 27 243 l 1,41,-1
 38 289 l 1,42,-1
 799 289 l 1,43,44
 802 301 802 301 808 326 c 0,45,46
 824 387 824 387 826 415 c 0,47,48
 829 450 829 450 822 462 c 0,49,50
 818 466 818 466 792 466 c 2,51,-1
 708 466 l 1,52,-1
 371 466 l 1,53,-1
 381 508 l 1,54,-1
 306 508 l 1,55,-1
 378 820 l 1,0,-1
EndSplineSet
EndChar

StartChar: uniFEA4
Encoding: 65188 65188 372
Width: 1138
VWidth: 1639
GlyphClass: 2
Flags: HW
AnchorPoint: "GposMark2BaseAnchorClassErabAbove_01_02" 594.5 968 basechar 0
AnchorPoint: "GposMark2BaseAnchorClassErabBelow_01_02" 594.5 -217 basechar 0
LayerCount: 2
Fore
SplineSet
378 818 m 1,0,-1
 944 818 l 2,1,2
 1062 818 1062 818 1091 812 c 0,3,4
 1145 799 1145 799 1169 763 c 0,5,6
 1181 743 1181 743 1186 680 c 0,7,8
 1187 670 1187 670 1188 663 c 0,9,10
 1189 653 1189 653 1194 633 c 0,11,12
 1200 603 1200 603 1200 587 c 0,13,14
 1199 562 1199 562 1178 471 c 2,15,-1
 1136 289 l 1,16,-1
 1233 289 l 1,17,-1
 1223 243 l 1,18,-1
 1050 243 l 1,19,-1
 1115 523 l 2,20,21
 1141 635 1141 635 1129 681 c 0,22,23
 1126 691 1126 691 1124 699 c 0,24,25
 1093 770 1093 770 964 772 c 0,26,27
 951 772 951 772 924 772 c 2,28,-1
 410 772 l 1,29,-1
 359 553 l 1,30,-1
 734 553 l 2,31,32
 816 553 816 553 833 547 c 0,33,34
 861 537 861 537 872 515 c 0,35,36
 887 486 887 486 869 410 c 2,37,-1
 831 243 l 1,38,-1
 27 243 l 1,39,-1
 38 289 l 1,40,-1
 799 289 l 1,41,42
 825 401 825 401 826 413 c 0,43,44
 829 448 829 448 822 461 c 0,45,46
 820 464 820 464 814.5 465 c 128,-1,47
 809 466 809 466 799 465 c 2,48,-1
 789 464 l 1,49,-1
 705 464 l 1,50,-1
 371 464 l 1,51,-1
 381 507 l 1,52,-1
 306 507 l 1,53,-1
 378 818 l 1,0,-1
-24 23 m 1,54,-1
 1172 23 l 1,55,-1
 1151 -67 l 1,56,-1
 -44 -66 l 1,57,-1
 -24 23 l 1,54,-1
EndSplineSet
EndChar

StartChar: afii57422
Encoding: 1582 1582 373
AltUni2: 00fea5.ffffffff.0
Width: 1008
VWidth: 1639
GlyphClass: 2
Flags: HW
AnchorPoint: "GposMark2BaseAnchorClassErabAbove_01_02" 509.5 1363 basechar 0
AnchorPoint: "GposMark2BaseAnchorClassErabBelow_01_02" 509.5 -1029 basechar 0
LayerCount: 2
Fore
SplineSet
825 1196 m 0,0,1
 952 1213 952 1213 982 1130 c 0,2,3
 984 1123 984 1123 984 1079 c 0,4,5
 984 1069 984 1069 985 1063 c 0,6,7
 986 1054 986 1054 992 1039 c 0,8,9
 1000 1014 1000 1014 999 999 c 0,10,11
 994 923 994 923 929 870 c 0,12,13
 896 843 896 843 860 836 c 1,14,15
 809 829 809 829 776 853 c 0,16,17
 772 856 772 856 767 864 c 0,18,19
 758 874 758 874 753.5 877.5 c 128,-1,20
 749 881 749 881 737 884 c 0,21,22
 728 887 728 887 724 889 c 0,23,24
 682 914 682 914 673 964 c 1,25,26
 671 987 671 987 681 1033 c 0,27,28
 693 1081 693 1081 703 1104 c 0,29,30
 736 1167 736 1167 803 1190 c 0,31,32
 815 1194 815 1194 825 1196 c 0,0,1
849 1148 m 0,33,34
 800 1141 800 1141 755 1089 c 0,35,36
 732 1061 732 1061 726 1036 c 0,37,38
 716 984 716 984 759 947 c 0,39,40
 766 942 766 942 772 938 c 0,41,42
 794 925 794 925 809 927 c 0,43,44
 860 934 860 934 904 985 c 0,45,46
 928 1013 928 1013 934 1038 c 0,47,48
 944 1087 944 1087 904 1126 c 0,49,50
 877 1151 877 1151 849 1148 c 0,33,34
317 820 m 1,51,-1
 871 820 l 2,52,53
 994 820 994 820 1000 819 c 0,54,55
 1071 810 1071 810 1103 772 c 0,56,57
 1123 747 1123 747 1126 682 c 0,58,59
 1127 672 1127 672 1127 666 c 0,60,61
 1128 657 1128 657 1133 639 c 0,62,63
 1138 617 1138 617 1139 605 c 0,64,65
 1140 571 1140 571 1121 490 c 2,66,-1
 993 -67 l 1,67,-1
 674 -67 l 2,68,69
 554 -67 554 -67 505 -83 c 0,70,71
 471 -95 471 -95 441 -113 c 0,72,73
 333 -178 333 -178 289 -292 c 0,74,75
 282 -311 282 -311 278 -330 c 0,76,77
 267 -382 267 -382 269 -394 c 0,78,79
 288 -471 288 -471 372 -506 c 0,80,81
 386 -512 386 -512 398 -515 c 0,82,83
 448 -524 448 -524 567 -522 c 1,84,-1
 856 -522 l 1,85,-1
 835 -610 l 1,86,-1
 867 -610 l 1,87,-1
 805 -879 l 1,88,-1
 485 -879 l 2,89,90
 330 -879 330 -879 294 -873 c 0,91,92
 282 -871 282 -871 272 -869 c 0,93,94
 212 -855 212 -855 127 -799 c 1,95,96
 35 -735 35 -735 1 -690 c 0,97,98
 -121 -528 -121 -528 -60 -261 c 0,99,100
 -27 -120 -27 -120 38 -20 c 0,101,102
 127 114 127 114 269 202 c 0,103,104
 374 265 374 265 480 282 c 0,105,106
 537 291 537 291 716 289 c 0,107,108
 728 289 728 289 738 289 c 1,109,110
 741 302 741 302 747 327 c 0,111,112
 763 389 763 389 766 418 c 1,113,114
 765 456 765 456 760 462 c 0,115,116
 758 465 758 465 752.5 466 c 128,-1,117
 747 467 747 467 738 467 c 2,118,-1
 730 466 l 1,119,-1
 644 466 l 1,120,-1
 310 466 l 1,121,-1
 320 508 l 1,122,-1
 245 508 l 1,123,-1
 317 820 l 1,51,-1
938 21 m 1,124,-1
 1048 495 l 2,125,126
 1075 613 1075 613 1074 649 c 0,127,128
 1072 689 1072 689 1056 717 c 0,129,130
 1021 775 1021 775 899 774 c 0,131,132
 891 774 891 774 875 774 c 0,133,134
 860 774 860 774 853 774 c 2,135,-1
 350 774 l 1,136,-1
 299 554 l 1,137,-1
 672 554 l 2,138,139
 753 554 753 554 771 549 c 0,140,141
 799 538 799 538 811 515 c 0,142,143
 825 484 825 484 808 410 c 2,144,-1
 770 243 l 1,145,146
 577 243 l 0,147,148
 542 241 542 241 512 236 c 0,149,150
 404 218 404 218 301 156 c 0,151,152
 222 108 222 108 154 38 c 0,153,154
 99 -19 99 -19 53 -93 c 1,155,156
 -67 -296 -67 -296 -14 -499 c 0,157,158
 15 -607 15 -607 88 -684 c 1,159,160
 176 -773 176 -773 315 -789 c 0,161,162
 335 -791 335 -791 469 -790 c 2,163,-1
 751 -790 l 1,164,-1
 802 -567 l 1,165,-1
 485 -567 l 2,166,167
 365 -567 365 -567 325 -553 c 0,168,169
 302 -544 302 -544 283 -531 c 0,170,171
 191 -465 191 -465 205 -321 c 0,172,173
 219 -179 219 -179 320 -76 c 0,174,175
 367 -30 367 -30 421 -5 c 0,176,177
 481 23 481 23 599 22 c 0,178,179
 617 22 617 22 627 21 c 2,180,-1
 938 21 l 1,124,-1
EndSplineSet
AlternateSubs2: "gsub_alternate_dfl_aalt_arab_FAR_Lookup_01_Subtable_01" uniFEA6 uniFEA7 afii57422 uniFEA8
Substitution2: "gsub_single_rtl_fina_arab_FAR_Lookup_01_Subtable_01" uniFEA6
Substitution2: "gsub_single_rtl_init_arab_FAR_Lookup_01_Subtable_01" uniFEA7
Substitution2: "gsub_single_rtl_medi_arab_FAR_Lookup_01_Subtable_01" uniFEA8
EndChar

StartChar: uniFEA6
Encoding: 65190 65190 374
Width: 962
VWidth: 1639
GlyphClass: 2
Flags: HW
AnchorPoint: "GposMark2BaseAnchorClassErabAbove_01_02" 541 1363 basechar 0
AnchorPoint: "GposMark2BaseAnchorClassErabBelow_01_02" 541 -1029 basechar 0
LayerCount: 2
Fore
SplineSet
827 1196 m 0,0,1
 954 1213 954 1213 984 1130 c 0,2,3
 986 1123 986 1123 985 1079 c 0,4,5
 985 1069 985 1069 987 1063 c 0,6,7
 988 1054 988 1054 993 1039 c 0,8,9
 1001 1014 1001 1014 1001 999 c 0,10,11
 996 923 996 923 931 870 c 0,12,13
 898 843 898 843 861 836 c 1,14,15
 810 829 810 829 778 853 c 0,16,17
 774 856 774 856 768 864 c 0,18,19
 759 874 759 874 754.5 877.5 c 128,-1,20
 750 881 750 881 738 884 c 0,21,22
 729 887 729 887 725 889 c 0,23,24
 683 914 683 914 674 964 c 1,25,26
 672 987 672 987 682 1033 c 0,27,28
 694 1081 694 1081 705 1104 c 0,29,30
 738 1167 738 1167 805 1190 c 0,31,32
 817 1194 817 1194 827 1196 c 0,0,1
851 1148 m 0,33,34
 802 1141 802 1141 757 1089 c 0,35,36
 734 1061 734 1061 727 1036 c 0,37,38
 717 984 717 984 761 947 c 0,39,40
 768 942 768 942 773 938 c 0,41,42
 795 925 795 925 810 927 c 0,43,44
 861 934 861 934 906 985 c 0,45,46
 930 1013 930 1013 935 1038 c 0,47,48
 945 1087 945 1087 905 1126 c 0,49,50
 879 1151 879 1151 851 1148 c 0,33,34
317 820 m 1,51,-1
 883 820 l 2,52,53
 1001 820 1001 820 1031 813 c 0,54,55
 1086 798 1086 798 1111 758 c 0,56,57
 1121 741 1121 741 1125 683 c 0,58,59
 1126 673 1126 673 1127 666 c 0,60,61
 1128 655 1128 655 1132 636 c 0,62,63
 1138 611 1138 611 1138 597 c 0,64,65
 1136 562 1136 562 1116 472 c 2,66,-1
 1073 289 l 1,67,-1
 1174 289 l 1,68,-1
 1163 243 l 1,69,-1
 988 243 l 1,70,-1
 1053 526 l 2,71,72
 1078 634 1078 634 1071 675 c 0,73,74
 1068 689 1068 689 1063 700 c 0,75,76
 1032 770 1032 770 907 774 c 0,77,78
 893 774 893 774 864 774 c 2,79,-1
 350 774 l 1,80,-1
 299 554 l 1,81,-1
 674 554 l 2,82,83
 756 554 756 554 773 549 c 0,84,85
 801 539 801 539 812 517 c 1,86,87
 825 486 825 486 807 412 c 2,88,-1
 768 243 l 1,89,90
 584 243 584 243 554 240 c 0,91,92
 521 237 521 237 493 231 c 0,93,94
 404 214 404 214 307 159 c 1,95,96
 227 110 227 110 161 44 c 0,97,98
 24 -92 24 -92 -16 -255 c 0,99,100
 -19 -266 -19 -266 -21 -274 c 0,101,102
 -60 -460 -60 -460 32 -611 c 0,103,104
 53 -644 53 -644 77 -671 c 0,105,106
 164 -766 164 -766 288 -786 c 0,107,108
 326 -791 326 -791 473 -790 c 2,109,-1
 728 -790 l 1,110,-1
 780 -567 l 1,111,-1
 479 -567 l 2,112,113
 362 -567 362 -567 323 -554 c 0,114,115
 302 -546 302 -546 286 -536 c 0,116,117
 191 -472 191 -472 204 -328 c 0,118,119
 216 -186 216 -186 317 -80 c 0,120,121
 357 -38 357 -38 405 -11 c 0,122,123
 474 26 474 26 607 22 c 0,124,125
 644 21 644 21 656 21 c 0,126,127
 732 21 732 21 884 22 c 0,128,129
 1036 23 1036 23 1113 23 c 1,130,-1
 1092 -67 l 1,131,-1
 704 -67 l 2,132,133
 577 -67 577 -67 565 -69 c 0,134,135
 518 -75 518 -75 481 -90 c 0,136,137
 367 -141 367 -141 305 -259 c 0,138,139
 290 -287 290 -287 281 -315 c 0,140,141
 264 -364 264 -364 267 -390 c 1,142,143
 278 -451 278 -451 352 -497 c 1,144,145
 397 -523 397 -523 515 -522 c 0,146,147
 527 -522 527 -522 534 -522 c 2,148,-1
 833 -522 l 1,149,-1
 812 -610 l 1,150,-1
 844 -610 l 1,151,-1
 782 -879 l 1,152,-1
 479 -879 l 2,153,154
 333 -879 333 -879 299 -873 c 0,155,156
 288 -871 288 -871 278 -869 c 0,157,158
 219 -857 219 -857 124 -797 c 1,159,160
 36 -737 36 -737 6 -699 c 0,161,162
 -62 -610 -62 -610 -80 -494 c 1,163,164
 -92 -402 -92 -402 -63 -272 c 0,165,166
 -38 -166 -38 -166 -6 -97 c 0,167,168
 78 79 78 79 251 191 c 0,169,170
 262 198 262 198 271 203 c 0,171,172
 406 284 406 284 609 288 c 0,173,174
 620 288 620 288 736 289 c 1,175,176
 739 301 739 301 746 326 c 0,177,178
 762 387 762 387 764 415 c 0,179,180
 767 450 767 450 760 462 c 0,181,182
 756 466 756 466 730 466 c 2,183,-1
 647 466 l 1,184,-1
 310 466 l 1,185,-1
 320 508 l 1,186,-1
 245 508 l 1,187,-1
 317 820 l 1,51,-1
EndSplineSet
EndChar

StartChar: uniFEA7
Encoding: 65191 65191 375
Width: 1213
VWidth: 1639
GlyphClass: 2
Flags: HW
AnchorPoint: "GposMark2BaseAnchorClassErabAbove_01_02" 580 1363 basechar 0
AnchorPoint: "GposMark2BaseAnchorClassErabBelow_01_02" 580 -217 basechar 0
LayerCount: 2
Fore
SplineSet
825 1196 m 0,0,1
 954 1213 954 1213 984 1130 c 0,2,3
 986 1123 986 1123 985 1079 c 0,4,5
 985 1069 985 1069 986 1063 c 0,6,7
 987 1055 987 1055 993 1040 c 0,8,9
 1001 1015 1001 1015 999 999 c 0,10,11
 994 922 994 922 928 868 c 0,12,13
 895 843 895 843 861 836 c 1,14,15
 812 829 812 829 775 854 c 0,16,17
 772 857 772 857 766 865 c 0,18,19
 758 875 758 875 755 877 c 0,20,21
 750 880 750 880 738 884 c 0,22,23
 726 888 726 888 721 891 c 0,24,25
 683 915 683 915 674 964 c 1,26,27
 672 989 672 989 682 1033 c 0,28,29
 694 1081 694 1081 705 1104 c 0,30,31
 738 1167 738 1167 804 1190 c 0,32,33
 815 1194 815 1194 825 1196 c 0,0,1
851 1148 m 0,34,35
 801 1141 801 1141 756 1089 c 0,36,37
 732 1062 732 1062 727 1036 c 0,38,39
 717 985 717 985 761 946 c 0,40,41
 768 940 768 940 774 936 c 0,42,43
 797 925 797 925 810 927 c 0,44,45
 860 934 860 934 905 985 c 0,46,47
 928 1013 928 1013 935 1038 c 0,48,49
 945 1087 945 1087 905 1126 c 0,50,51
 879 1151 879 1151 851 1148 c 0,34,35
378 820 m 1,52,-1
 935 820 l 2,53,54
 1057 820 1057 820 1077 817 c 0,55,56
 1139 806 1139 806 1169 769 c 0,57,58
 1186 746 1186 746 1190 682 c 0,59,60
 1191 672 1191 672 1191 666 c 0,61,62
 1192 658 1192 658 1196 643 c 0,63,64
 1201 625 1201 625 1202 615 c 0,65,66
 1204 572 1204 572 1185 487 c 2,67,-1
 1057 -67 l 1,68,-1
 -44 -66 l 1,69,-1
 -24 23 l 1,70,-1
 1002 21 l 1,71,-1
 1112 495 l 2,72,73
 1140 615 1140 615 1136 656 c 0,74,75
 1132 693 1132 693 1117 718 c 0,76,77
 1080 774 1080 774 958 774 c 0,78,79
 950 774 950 774 934 774 c 0,80,81
 919 774 919 774 911 774 c 2,82,-1
 410 774 l 1,83,-1
 360 554 l 1,84,-1
 736 554 l 2,85,86
 818 554 818 554 835 549 c 0,87,88
 863 539 863 539 874 517 c 0,89,90
 887 488 887 488 870 413 c 2,91,-1
 831 243 l 1,92,-1
 27 243 l 1,93,-1
 38 289 l 1,94,-1
 799 289 l 1,95,96
 802 301 802 301 808 326 c 0,97,98
 824 387 824 387 826 415 c 0,99,100
 829 450 829 450 822 462 c 0,101,102
 818 466 818 466 792 466 c 2,103,-1
 708 466 l 1,104,-1
 371 466 l 1,105,-1
 381 508 l 1,106,-1
 306 508 l 1,107,-1
 378 820 l 1,52,-1
EndSplineSet
EndChar

StartChar: uniFEA8
Encoding: 65192 65192 376
Width: 1136
VWidth: 1639
GlyphClass: 2
Flags: HW
AnchorPoint: "GposMark2BaseAnchorClassErabAbove_01_02" 594 1363 basechar 0
AnchorPoint: "GposMark2BaseAnchorClassErabBelow_01_02" 594 -217 basechar 0
LayerCount: 2
Fore
SplineSet
825 1196 m 0,0,1
 954 1213 954 1213 984 1130 c 0,2,3
 986 1123 986 1123 985 1079 c 0,4,5
 985 1069 985 1069 986 1063 c 0,6,7
 987 1055 987 1055 993 1040 c 0,8,9
 1001 1015 1001 1015 999 999 c 0,10,11
 994 922 994 922 928 868 c 0,12,13
 895 843 895 843 861 836 c 1,14,15
 812 829 812 829 775 854 c 0,16,17
 772 857 772 857 766 865 c 0,18,19
 758 875 758 875 755 877 c 0,20,21
 750 880 750 880 738 884 c 0,22,23
 726 888 726 888 721 891 c 0,24,25
 683 915 683 915 674 964 c 1,26,27
 672 989 672 989 682 1033 c 0,28,29
 694 1081 694 1081 705 1104 c 0,30,31
 738 1167 738 1167 804 1190 c 0,32,33
 815 1194 815 1194 825 1196 c 0,0,1
851 1148 m 0,34,35
 801 1141 801 1141 756 1089 c 0,36,37
 732 1062 732 1062 727 1036 c 0,38,39
 717 985 717 985 761 946 c 0,40,41
 768 940 768 940 774 936 c 0,42,43
 797 925 797 925 810 927 c 0,44,45
 860 934 860 934 905 985 c 0,46,47
 928 1013 928 1013 935 1038 c 0,48,49
 945 1087 945 1087 905 1126 c 0,50,51
 879 1151 879 1151 851 1148 c 0,34,35
378 818 m 1,52,-1
 944 818 l 2,53,54
 1062 818 1062 818 1091 812 c 0,55,56
 1145 799 1145 799 1169 763 c 0,57,58
 1181 743 1181 743 1186 680 c 0,59,60
 1187 670 1187 670 1188 663 c 0,61,62
 1189 653 1189 653 1194 633 c 0,63,64
 1200 603 1200 603 1200 587 c 0,65,66
 1199 562 1199 562 1178 471 c 2,67,-1
 1136 289 l 1,68,-1
 1232 289 l 1,69,-1
 1221 243 l 1,70,-1
 1050 243 l 1,71,-1
 1115 523 l 2,72,73
 1141 635 1141 635 1129 681 c 0,74,75
 1126 691 1126 691 1124 699 c 0,76,77
 1093 770 1093 770 964 772 c 0,78,79
 951 772 951 772 924 772 c 2,80,-1
 410 772 l 1,81,-1
 359 553 l 1,82,-1
 734 553 l 2,83,84
 816 553 816 553 833 547 c 0,85,86
 861 537 861 537 872 515 c 0,87,88
 887 486 887 486 869 410 c 2,89,-1
 831 243 l 1,90,-1
 27 243 l 1,91,-1
 38 289 l 1,92,-1
 799 289 l 1,93,94
 825 401 825 401 826 413 c 0,95,96
 829 448 829 448 822 461 c 0,97,98
 820 464 820 464 814.5 465 c 128,-1,99
 809 466 809 466 799 465 c 2,100,-1
 789 464 l 1,101,-1
 705 464 l 1,102,-1
 371 464 l 1,103,-1
 381 507 l 1,104,-1
 306 507 l 1,105,-1
 378 818 l 1,52,-1
-24 23 m 1,106,-1
 1170 23 l 1,107,-1
 1150 -67 l 1,108,-1
 -44 -66 l 1,109,-1
 -24 23 l 1,106,-1
EndSplineSet
EndChar

StartChar: afii57423
Encoding: 1583 1583 377
AltUni2: 00fea9.ffffffff.0
Width: 949
VWidth: 1639
GlyphClass: 4
Flags: HW
AnchorPoint: "GposMark2BaseAnchorClassErabAbove_01_02" 467 970 basechar 0
AnchorPoint: "GposMark2BaseAnchorClassErabBelow_01_02" 467 -217 basechar 0
LayerCount: 2
Fore
SplineSet
191 820 m 1,0,-1
 680 820 l 2,1,2
 799 820 799 820 828 813 c 0,3,4
 872 802 872 802 896 777 c 1,5,6
 923 746 923 746 927 697 c 0,7,8
 927 692 927 692 926 681 c 0,9,10
 925 669 925 669 925 664 c 0,11,12
 926 656 926 656 931 641 c 0,13,14
 937 619 937 619 938 607 c 0,15,16
 940 576 940 576 922 499 c 2,17,-1
 791 -67 l 1,18,-1
 59 -67 l 1,19,-1
 69 -25 l 1,20,-1
 -6 -25 l 1,21,-1
 67 289 l 1,22,-1
 536 289 l 1,23,24
 561 399 561 399 563 412 c 0,25,26
 567 449 567 449 560 462 c 1,27,28
 556 466 556 466 535 466 c 2,29,-1
 466 466 l 1,30,-1
 184 466 l 1,31,-1
 194 508 l 1,32,-1
 119 508 l 1,33,-1
 191 820 l 1,0,-1
737 21 m 1,34,-1
 848 500 l 2,35,36
 875 615 875 615 873 649 c 0,37,38
 871 687 871 687 857 712 c 0,39,40
 819 772 819 772 695 774 c 0,41,42
 684 774 684 774 659 774 c 2,43,-1
 223 774 l 1,44,-1
 172 554 l 1,45,-1
 491 554 l 2,46,47
 569 554 569 554 591 539 c 0,48,49
 605 528 605 528 612 512 c 0,50,51
 624 483 624 483 607 410 c 2,52,-1
 569 243 l 1,53,-1
 99 243 l 1,54,-1
 48 21 l 1,55,-1
 737 21 l 1,34,-1
EndSplineSet
AlternateSubs2: "gsub_alternate_dfl_aalt_arab_FAR_Lookup_01_Subtable_01" uniFEAA afii57423
Substitution2: "gsub_single_rtl_fina_arab_FAR_Lookup_01_Subtable_01" uniFEAA
EndChar

StartChar: uniFEAA
Encoding: 65194 65194 378
Width: 874
VWidth: 1639
GlyphClass: 2
Flags: HW
AnchorPoint: "GposMark2BaseAnchorClassErabAbove_01_02" 482 970 basechar 0
AnchorPoint: "GposMark2BaseAnchorClassErabBelow_01_02" 482 -217 basechar 0
LayerCount: 2
Fore
SplineSet
191 820 m 1,0,-1
 699 820 l 2,1,2
 819 820 819 820 860 801 c 0,3,4
 893 785 893 785 911 756 c 0,5,6
 922 737 922 737 924 680 c 0,7,8
 924 671 924 671 925 664 c 0,9,10
 926 656 926 656 931 641 c 0,11,12
 938 614 938 614 937 599 c 0,13,14
 936 561 936 561 915 471 c 2,15,-1
 873 289 l 1,16,-1
 970 289 l 1,17,-1
 959 243 l 1,18,-1
 788 243 l 1,19,-1
 853 525 l 2,20,21
 879 640 879 640 867 685 c 0,22,23
 865 693 865 693 863 699 c 0,24,25
 831 772 831 772 696 774 c 0,26,27
 687 774 687 774 677 774 c 2,28,-1
 223 774 l 1,29,-1
 172 554 l 1,30,-1
 491 554 l 2,31,32
 569 554 569 554 591 540 c 0,33,34
 605 530 605 530 612 515 c 0,35,36
 625 486 625 486 608 413 c 2,37,-1
 569 243 l 1,38,-1
 99 243 l 1,39,-1
 48 21 l 1,40,-1
 908 23 l 1,41,-1
 887 -67 l 1,42,-1
 59 -67 l 1,43,-1
 69 -25 l 1,44,-1
 -6 -25 l 1,45,-1
 67 289 l 1,46,-1
 536 289 l 1,47,48
 561 399 561 399 563 412 c 0,49,50
 567 449 567 449 560 462 c 1,51,52
 556 466 556 466 535 466 c 2,53,-1
 466 466 l 1,54,-1
 184 466 l 1,55,-1
 194 508 l 1,56,-1
 119 508 l 1,57,-1
 191 820 l 1,0,-1
EndSplineSet
EndChar

StartChar: afii57424
Encoding: 1584 1584 379
AltUni2: 00feab.ffffffff.0
Width: 949
VWidth: 1639
GlyphClass: 2
Flags: HW
AnchorPoint: "GposMark2BaseAnchorClassErabAbove_01_02" 467 1363 basechar 0
AnchorPoint: "GposMark2BaseAnchorClassErabBelow_01_02" 467 -217 basechar 0
LayerCount: 2
Fore
SplineSet
586 1196 m 0,0,1
 716 1213 716 1213 742 1128 c 0,2,3
 744 1121 744 1121 744 1079 c 0,4,5
 744 1069 744 1069 746 1063 c 0,6,7
 748 1055 748 1055 752 1041 c 0,8,9
 760 1016 760 1016 759 1002 c 0,10,11
 755 923 755 923 689 869 c 0,12,13
 656 843 656 843 620 836 c 1,14,15
 569 829 569 829 537 853 c 0,16,17
 533 856 533 856 527 864 c 0,18,19
 519 874 519 874 514 877 c 0,20,21
 510 879 510 879 500 882 c 0,22,23
 490 885 490 885 485 887 c 0,24,25
 442 913 442 913 435 964 c 0,26,27
 432 989 432 989 442 1035 c 0,28,29
 454 1083 454 1083 466 1105 c 0,30,31
 500 1168 500 1168 566 1191 c 0,32,33
 577 1194 577 1194 586 1196 c 0,0,1
610 1148 m 0,34,35
 561 1141 561 1141 516 1089 c 0,36,37
 493 1061 493 1061 486 1036 c 0,38,39
 476 984 476 984 520 947 c 0,40,41
 527 942 527 942 532 938 c 0,42,43
 554 925 554 925 569 927 c 0,44,45
 622 934 622 934 667 987 c 0,46,47
 687 1013 687 1013 694 1036 c 0,48,49
 706 1083 706 1083 667 1124 c 0,50,51
 640 1151 640 1151 610 1148 c 0,34,35
191 820 m 1,52,-1
 680 820 l 2,53,54
 799 820 799 820 828 813 c 0,55,56
 872 802 872 802 896 777 c 1,57,58
 923 746 923 746 927 697 c 0,59,60
 927 692 927 692 926 681 c 0,61,62
 925 669 925 669 925 664 c 0,63,64
 926 656 926 656 931 641 c 0,65,66
 937 619 937 619 938 607 c 0,67,68
 940 576 940 576 922 499 c 2,69,-1
 791 -67 l 1,70,-1
 59 -67 l 1,71,-1
 69 -25 l 1,72,-1
 -6 -25 l 1,73,-1
 67 289 l 1,74,-1
 536 289 l 1,75,76
 561 399 561 399 563 412 c 0,77,78
 567 449 567 449 560 462 c 1,79,80
 556 466 556 466 535 466 c 2,81,-1
 466 466 l 1,82,-1
 184 466 l 1,83,-1
 194 508 l 1,84,-1
 119 508 l 1,85,-1
 191 820 l 1,52,-1
737 21 m 1,86,-1
 848 500 l 2,87,88
 875 615 875 615 873 649 c 0,89,90
 871 687 871 687 857 712 c 0,91,92
 819 772 819 772 695 774 c 0,93,94
 684 774 684 774 659 774 c 2,95,-1
 223 774 l 1,96,-1
 172 554 l 1,97,-1
 491 554 l 2,98,99
 569 554 569 554 591 539 c 0,100,101
 605 528 605 528 612 512 c 0,102,103
 624 483 624 483 607 410 c 2,104,-1
 569 243 l 1,105,-1
 99 243 l 1,106,-1
 48 21 l 1,107,-1
 737 21 l 1,86,-1
EndSplineSet
AlternateSubs2: "gsub_alternate_dfl_aalt_arab_FAR_Lookup_01_Subtable_01" uniFEAC afii57424
Substitution2: "gsub_single_rtl_fina_arab_FAR_Lookup_01_Subtable_01" uniFEAC
EndChar

StartChar: uniFEAC
Encoding: 65196 65196 380
Width: 874
VWidth: 1639
GlyphClass: 2
Flags: HW
AnchorPoint: "GposMark2BaseAnchorClassErabAbove_01_02" 482 1363 basechar 0
AnchorPoint: "GposMark2BaseAnchorClassErabBelow_01_02" 482 -217 basechar 0
LayerCount: 2
Fore
SplineSet
586 1196 m 0,0,1
 716 1213 716 1213 742 1128 c 0,2,3
 744 1121 744 1121 744 1079 c 0,4,5
 744 1069 744 1069 746 1063 c 0,6,7
 748 1055 748 1055 752 1041 c 0,8,9
 760 1016 760 1016 759 1002 c 0,10,11
 755 923 755 923 689 869 c 0,12,13
 656 843 656 843 620 836 c 1,14,15
 569 829 569 829 537 853 c 0,16,17
 533 856 533 856 527 864 c 0,18,19
 519 874 519 874 514 877 c 0,20,21
 510 879 510 879 500 882 c 0,22,23
 490 885 490 885 485 887 c 0,24,25
 442 913 442 913 435 964 c 0,26,27
 432 989 432 989 442 1035 c 0,28,29
 454 1083 454 1083 466 1105 c 0,30,31
 500 1168 500 1168 566 1191 c 0,32,33
 577 1194 577 1194 586 1196 c 0,0,1
610 1148 m 0,34,35
 561 1141 561 1141 516 1089 c 0,36,37
 493 1061 493 1061 486 1036 c 0,38,39
 476 984 476 984 520 947 c 0,40,41
 527 942 527 942 532 938 c 0,42,43
 554 925 554 925 569 927 c 0,44,45
 622 934 622 934 667 987 c 0,46,47
 687 1013 687 1013 694 1036 c 0,48,49
 706 1083 706 1083 667 1124 c 0,50,51
 640 1151 640 1151 610 1148 c 0,34,35
191 820 m 1,52,-1
 699 820 l 2,53,54
 819 820 819 820 860 801 c 0,55,56
 893 785 893 785 911 756 c 0,57,58
 922 737 922 737 924 680 c 0,59,60
 924 671 924 671 925 664 c 0,61,62
 926 656 926 656 931 641 c 0,63,64
 938 614 938 614 937 599 c 0,65,66
 936 561 936 561 915 471 c 2,67,-1
 873 289 l 1,68,-1
 970 289 l 1,69,-1
 959 243 l 1,70,-1
 788 243 l 1,71,-1
 853 525 l 2,72,73
 879 640 879 640 867 685 c 0,74,75
 865 693 865 693 863 699 c 0,76,77
 831 772 831 772 696 774 c 0,78,79
 687 774 687 774 677 774 c 2,80,-1
 223 774 l 1,81,-1
 172 554 l 1,82,-1
 491 554 l 2,83,84
 569 554 569 554 591 540 c 0,85,86
 605 530 605 530 612 515 c 0,87,88
 625 486 625 486 608 413 c 2,89,-1
 569 243 l 1,90,-1
 99 243 l 1,91,-1
 48 21 l 1,92,-1
 908 23 l 1,93,-1
 887 -67 l 1,94,-1
 59 -67 l 1,95,-1
 69 -25 l 1,96,-1
 -6 -25 l 1,97,-1
 67 289 l 1,98,-1
 536 289 l 1,99,100
 561 399 561 399 563 412 c 0,101,102
 567 449 567 449 560 462 c 1,103,104
 556 466 556 466 535 466 c 2,105,-1
 466 466 l 1,106,-1
 184 466 l 1,107,-1
 194 508 l 1,108,-1
 119 508 l 1,109,-1
 191 820 l 1,52,-1
EndSplineSet
EndChar

StartChar: afii57425
Encoding: 1585 1585 381
AltUni2: 00fead.ffffffff.0
Width: 615
VWidth: 1639
GlyphClass: 4
Flags: HW
AnchorPoint: "GposMark2BaseAnchorClassErabAbove_01_02" 159.5 970 basechar 0
AnchorPoint: "GposMark2BaseAnchorClassErabBelow_01_02" 159.5 -778 basechar 0
LayerCount: 2
Fore
SplineSet
333 820 m 1,0,-1
 631 820 l 1,1,-1
 611 731 l 1,2,-1
 643 731 l 1,3,-1
 426 -207 l 2,4,5
 389 -368 389 -368 383 -388 c 0,6,7
 339 -519 339 -519 252 -581 c 0,8,9
 185 -628 185 -628 65 -628 c 0,10,11
 58 -628 58 -628 38 -628 c 2,12,-1
 -260 -628 l 1,13,-1
 -250 -585 l 1,14,-1
 -324 -585 l 1,15,-1
 -249 -259 l 1,16,17
 -216 -259 -216 -259 -151 -258 c 0,18,19
 -85 -257 -85 -257 -52 -257 c 0,20,21
 23 -257 23 -257 55 -234 c 0,22,23
 59 -231 59 -231 61 -230 c 0,24,25
 88 -206 88 -206 107 -149 c 1,26,27
 121 -102 121 -102 155 51 c 1,28,-1
 333 820 l 1,0,-1
578 774 m 1,29,-1
 365 774 l 1,30,-1
 187 5 l 2,31,32
 182 -15 182 -15 174 -56 c 0,33,34
 155 -150 155 -150 139 -195 c 0,35,36
 118 -253 118 -253 93 -276 c 1,37,38
 56 -304 56 -304 -20 -303 c 0,39,40
 -53 -303 -53 -303 -118 -304 c 0,41,42
 -184 -305 -184 -305 -217 -305 c 1,43,-1
 -271 -540 l 1,44,-1
 -12 -540 l 2,45,46
 103 -540 103 -540 157 -515 c 0,47,48
 180 -504 180 -504 199 -490 c 0,49,50
 299 -420 299 -420 343 -249 c 0,51,52
 349 -224 349 -224 360 -173 c 0,53,54
 367 -142 367 -142 370 -126 c 2,55,-1
 578 774 l 1,29,-1
EndSplineSet
AlternateSubs2: "gsub_alternate_dfl_aalt_arab_FAR_Lookup_01_Subtable_01" uniFEAE afii57425
Substitution2: "gsub_single_rtl_fina_arab_FAR_Lookup_01_Subtable_01" uniFEAE
EndChar

StartChar: uniFEAE
Encoding: 65198 65198 382
Width: 594
VWidth: 1639
GlyphClass: 2
Flags: HW
AnchorPoint: "GposMark2BaseAnchorClassErabAbove_01_02" 206.5 970 basechar 0
AnchorPoint: "GposMark2BaseAnchorClassErabBelow_01_02" 206.5 -778 basechar 0
LayerCount: 2
Fore
SplineSet
380 820 m 1,0,-1
 679 820 l 1,1,-1
 658 731 l 1,2,-1
 690 731 l 1,3,-1
 588 289 l 1,4,-1
 689 289 l 1,5,-1
 678 243 l 1,6,-1
 503 243 l 1,7,-1
 625 774 l 1,8,-1
 412 774 l 1,9,-1
 234 2 l 2,10,11
 229 -18 229 -18 221 -58 c 0,12,13
 201 -153 201 -153 186 -198 c 1,14,15
 165 -256 165 -256 140 -277 c 1,16,17
 103 -303 103 -303 29 -303 c 0,18,19
 -4 -303 -4 -303 -70 -304 c 0,20,21
 -137 -305 -137 -305 -170 -305 c 1,22,-1
 -224 -540 l 1,23,-1
 28 -540 l 2,24,25
 151 -540 151 -540 211 -511 c 0,26,27
 239 -497 239 -497 263 -477 c 0,28,29
 348 -409 348 -409 387 -256 c 0,30,31
 392 -237 392 -237 399 -208 c 2,32,-1
 452 21 l 1,33,-1
 627 23 l 1,34,-1
 607 -67 l 1,35,-1
 506 -67 l 1,36,-1
 453 -298 l 2,37,38
 419 -444 419 -444 371 -510 c 0,39,40
 351 -537 351 -537 329 -558 c 0,41,42
 256 -625 256 -625 126 -628 c 0,43,44
 111 -628 111 -628 90 -628 c 2,45,-1
 -212 -628 l 1,46,-1
 -202 -585 l 1,47,-1
 -277 -585 l 1,48,-1
 -202 -259 l 1,49,50
 -169 -259 -169 -259 -103 -258 c 0,51,52
 -37 -257 -37 -257 -5 -257 c 0,53,54
 70 -257 70 -257 102 -234 c 0,55,56
 106 -231 106 -231 109 -230 c 0,57,58
 136 -206 136 -206 155 -149 c 1,59,60
 169 -102 169 -102 202 51 c 1,61,-1
 380 820 l 1,0,-1
EndSplineSet
EndChar

StartChar: afii57426
Encoding: 1586 1586 383
AltUni2: 00feaf.ffffffff.0
Width: 615
VWidth: 1639
GlyphClass: 2
Flags: HW
AnchorPoint: "GposMark2BaseAnchorClassErabAbove_01_02" 188.5 1363 basechar 0
AnchorPoint: "GposMark2BaseAnchorClassErabBelow_01_02" 188.5 -778 basechar 0
LayerCount: 2
Fore
SplineSet
526 1196 m 1,0,1
 655 1213 655 1213 684 1128 c 0,2,3
 685 1124 685 1124 685 1079 c 0,4,5
 685 1069 685 1069 686 1063 c 0,6,7
 688 1054 688 1054 693 1037 c 0,8,9
 700 1014 700 1014 701 1000 c 0,10,11
 698 924 698 924 631 870 c 0,12,13
 596 843 596 843 559 836 c 1,14,15
 507 831 507 831 477 853 c 0,16,17
 473 856 473 856 468 864 c 0,18,19
 460 874 460 874 454 877 c 0,20,21
 450 881 450 881 437 884 c 0,22,23
 427 887 427 887 423 889 c 0,24,25
 384 915 384 915 375 958 c 1,26,27
 362 1040 362 1040 416 1120 c 1,28,29
 463 1185 463 1185 526 1196 c 1,0,1
550 1148 m 0,30,31
 501 1141 501 1141 457 1089 c 0,32,33
 434 1061 434 1061 428 1036 c 0,34,35
 416 985 416 985 463 945 c 0,36,37
 468 940 468 940 474 936 c 0,38,39
 497 925 497 925 510 927 c 0,40,41
 563 934 563 934 607 987 c 0,42,43
 627 1013 627 1013 634 1036 c 0,44,45
 646 1083 646 1083 607 1124 c 0,46,47
 580 1151 580 1151 550 1148 c 0,30,31
333 820 m 1,48,-1
 631 820 l 1,49,-1
 611 731 l 1,50,-1
 643 731 l 1,51,-1
 426 -207 l 2,52,53
 389 -368 389 -368 383 -388 c 0,54,55
 339 -519 339 -519 252 -581 c 0,56,57
 185 -628 185 -628 65 -628 c 0,58,59
 58 -628 58 -628 38 -628 c 2,60,-1
 -260 -628 l 1,61,-1
 -250 -585 l 1,62,-1
 -324 -585 l 1,63,-1
 -249 -259 l 1,64,65
 -216 -259 -216 -259 -151 -258 c 0,66,67
 -85 -257 -85 -257 -52 -257 c 0,68,69
 23 -257 23 -257 55 -234 c 0,70,71
 59 -231 59 -231 61 -230 c 0,72,73
 88 -206 88 -206 107 -149 c 1,74,75
 121 -102 121 -102 155 51 c 1,76,-1
 333 820 l 1,48,-1
578 774 m 1,77,-1
 365 774 l 1,78,-1
 187 5 l 2,79,80
 182 -15 182 -15 174 -56 c 0,81,82
 155 -150 155 -150 139 -195 c 0,83,84
 118 -253 118 -253 93 -276 c 1,85,86
 56 -304 56 -304 -20 -303 c 0,87,88
 -53 -303 -53 -303 -118 -304 c 0,89,90
 -184 -305 -184 -305 -217 -305 c 1,91,-1
 -271 -540 l 1,92,-1
 -12 -540 l 2,93,94
 103 -540 103 -540 157 -515 c 0,95,96
 180 -504 180 -504 199 -490 c 0,97,98
 299 -420 299 -420 343 -249 c 0,99,100
 349 -224 349 -224 360 -173 c 0,101,102
 367 -142 367 -142 370 -126 c 2,103,-1
 578 774 l 1,77,-1
EndSplineSet
AlternateSubs2: "gsub_alternate_dfl_aalt_arab_FAR_Lookup_01_Subtable_01" uniFEB0 afii57426
Substitution2: "gsub_single_rtl_fina_arab_FAR_Lookup_01_Subtable_01" uniFEB0
EndChar

StartChar: uniFEB0
Encoding: 65200 65200 384
Width: 594
VWidth: 1639
GlyphClass: 2
Flags: HW
AnchorPoint: "GposMark2BaseAnchorClassErabAbove_01_02" 231.5 1363 basechar 0
AnchorPoint: "GposMark2BaseAnchorClassErabBelow_01_02" 231.5 -778 basechar 0
LayerCount: 2
Fore
SplineSet
564 1196 m 0,0,1
 693 1213 693 1213 723 1130 c 0,2,3
 725 1123 725 1123 724 1079 c 0,4,5
 724 1069 724 1069 726 1063 c 0,6,7
 727 1054 727 1054 732 1039 c 0,8,9
 740 1015 740 1015 740 999 c 0,10,11
 735 923 735 923 670 870 c 0,12,13
 636 844 636 844 600 836 c 1,14,15
 547 829 547 829 516 854 c 0,16,17
 511 857 511 857 505 866 c 0,18,19
 498 874 498 874 494 877 c 0,20,21
 490 881 490 881 477 884 c 0,22,23
 468 887 468 887 464 889 c 0,24,25
 422 914 422 914 413 964 c 1,26,27
 411 989 411 989 421 1033 c 0,28,29
 433 1081 433 1081 444 1104 c 0,30,31
 477 1167 477 1167 543 1190 c 0,32,33
 554 1194 554 1194 564 1196 c 0,0,1
590 1148 m 0,34,35
 540 1141 540 1141 495 1089 c 0,36,37
 471 1062 471 1062 466 1036 c 0,38,39
 456 984 456 984 500 947 c 0,40,41
 507 942 507 942 512 938 c 0,42,43
 534 925 534 925 549 927 c 0,44,45
 600 934 600 934 645 985 c 0,46,47
 669 1013 669 1013 674 1038 c 0,48,49
 684 1087 684 1087 645 1126 c 0,50,51
 618 1151 618 1151 590 1148 c 0,34,35
380 820 m 1,52,-1
 679 820 l 1,53,-1
 658 731 l 1,54,-1
 690 731 l 1,55,-1
 588 289 l 1,56,-1
 689 289 l 1,57,-1
 678 243 l 1,58,-1
 503 243 l 1,59,-1
 625 774 l 1,60,-1
 412 774 l 1,61,-1
 234 2 l 2,62,63
 229 -18 229 -18 221 -58 c 0,64,65
 201 -153 201 -153 186 -198 c 1,66,67
 165 -256 165 -256 140 -277 c 1,68,69
 103 -303 103 -303 29 -303 c 0,70,71
 -4 -303 -4 -303 -70 -304 c 0,72,73
 -137 -305 -137 -305 -170 -305 c 1,74,-1
 -224 -540 l 1,75,-1
 28 -540 l 2,76,77
 151 -540 151 -540 211 -511 c 0,78,79
 239 -497 239 -497 263 -477 c 0,80,81
 348 -409 348 -409 387 -256 c 0,82,83
 392 -237 392 -237 399 -208 c 2,84,-1
 452 21 l 1,85,-1
 627 23 l 1,86,-1
 607 -67 l 1,87,-1
 506 -67 l 1,88,-1
 453 -298 l 2,89,90
 419 -444 419 -444 371 -510 c 0,91,92
 351 -537 351 -537 329 -558 c 0,93,94
 256 -625 256 -625 126 -628 c 0,95,96
 111 -628 111 -628 90 -628 c 2,97,-1
 -212 -628 l 1,98,-1
 -202 -585 l 1,99,-1
 -277 -585 l 1,100,-1
 -202 -259 l 1,101,102
 -169 -259 -169 -259 -103 -258 c 0,103,104
 -37 -257 -37 -257 -5 -257 c 0,105,106
 70 -257 70 -257 102 -234 c 0,107,108
 106 -231 106 -231 109 -230 c 0,109,110
 136 -206 136 -206 155 -149 c 1,111,112
 169 -102 169 -102 202 51 c 1,113,-1
 380 820 l 1,52,-1
EndSplineSet
EndChar

StartChar: afii57427
Encoding: 1587 1587 385
AltUni2: 00feb1.ffffffff.0
Width: 2197
VWidth: 1639
GlyphClass: 2
Flags: HW
AnchorPoint: "GposMark2BaseAnchorClassErabAbove_01_02" 1092 968 basechar 0
AnchorPoint: "GposMark2BaseAnchorClassErabBelow_01_02" 1092 -782 basechar 0
LayerCount: 2
Fore
SplineSet
189 818 m 1,0,-1
 485 818 l 1,1,-1
 465 730 l 1,2,-1
 497 730 l 1,3,-1
 361 143 l 1,4,-1
 321 -33 l 2,5,6
 303 -114 303 -114 303 -131 c 1,7,8
 305 -150 305 -150 329 -184 c 0,9,10
 387 -264 387 -264 468 -262 c 0,11,12
 570 -260 570 -260 667 -161 c 0,13,14
 717 -108 717 -108 743 -49 c 0,15,16
 754 -24 754 -24 774 66 c 2,17,-1
 815 244 l 1,18,-1
 947 818 l 1,19,-1
 1243 818 l 1,20,-1
 1223 730 l 1,21,-1
 1255 730 l 1,22,-1
 1153 289 l 1,23,-1
 1307 289 l 1,24,-1
 1429 818 l 1,25,-1
 1725 818 l 1,26,-1
 1705 730 l 1,27,-1
 1737 730 l 1,28,-1
 1635 289 l 1,29,30
 1715 289 1715 289 1733 293 c 0,31,32
 1756 300 1756 300 1770 312 c 0,33,34
 1807 344 1807 344 1827 436 c 0,35,36
 1830 452 1830 452 1832 459 c 2,37,-1
 1914 818 l 1,38,-1
 2212 818 l 1,39,-1
 2191 730 l 1,40,-1
 2223 730 l 1,41,-1
 2118 274 l 2,42,43
 2086 136 2086 136 2058 85 c 0,44,45
 2038 49 2038 49 2013 21 c 0,46,47
 1935 -62 1935 -62 1786 -67 c 0,48,49
 1768 -68 1768 -68 1716 -67 c 2,50,-1
 1071 -67 l 1,51,52
 1044 -181 1044 -181 983 -282 c 0,53,54
 939 -357 939 -357 859 -438 c 0,55,56
 682 -613 682 -613 467 -627 c 0,57,58
 381 -632 381 -632 304 -608 c 0,59,60
 259 -595 259 -595 183 -543 c 1,61,62
 72 -470 72 -470 25 -389 c 1,63,64
 -39 -271 -39 -271 -24 -128 c 0,65,66
 -19 -77 -19 -77 24 103 c 0,67,68
 27 115 27 115 29 125 c 2,69,-1
 189 818 l 1,0,-1
432 772 m 1,70,-1
 222 772 l 1,71,-1
 82 169 l 2,72,73
 36 -30 36 -30 32 -58 c 0,74,75
 30 -71 30 -71 29 -82 c 0,76,77
 15 -223 15 -223 77 -341 c 1,78,79
 124 -424 124 -424 199 -476 c 0,80,81
 290 -537 290 -537 407 -540 c 0,82,83
 599 -542 599 -542 780 -373 c 0,84,85
 946 -219 946 -219 1006 -18 c 0,86,87
 1012 2 1012 2 1017 21 c 1,88,-1
 1665 21 l 2,89,90
 1804 21 1804 21 1867 47 c 0,91,92
 1922 70 1922 70 1962 113 c 0,93,94
 2021 179 2021 179 2054 321 c 0,95,96
 2056 328 2056 328 2059 342 c 0,97,98
 2061 352 2061 352 2062 356 c 2,99,-1
 2159 772 l 1,100,-1
 1947 772 l 1,101,-1
 1861 403 l 2,102,103
 1841 317 1841 317 1825 292 c 0,104,105
 1811 271 1811 271 1793 259 c 0,106,107
 1786 254 1786 254 1775 251 c 128,-1,108
 1764 248 1764 248 1760 247 c 128,-1,109
 1756 246 1756 246 1741 245 c 2,110,-1
 1726 244 l 2,111,112
 1694 241 1694 241 1550 243 c 1,113,-1
 1672 772 l 1,114,-1
 1462 772 l 1,115,-1
 1339 243 l 1,116,-1
 1068 243 l 1,117,-1
 1190 772 l 1,118,-1
 980 772 l 1,119,-1
 833 138 l 1,120,-1
 802 3 l 2,121,122
 775 -111 775 -111 734 -166 c 0,123,124
 675 -245 675 -245 596 -282 c 0,125,126
 538 -310 538 -310 460 -310 c 0,127,128
 402 -310 402 -310 376 -303 c 0,129,130
 279 -275 279 -275 247 -174 c 0,131,132
 244 -163 244 -163 241 -153 c 0,133,134
 231 -99 231 -99 257 13 c 2,135,-1
 290 157 l 1,136,-1
 432 772 l 1,70,-1
EndSplineSet
AlternateSubs2: "gsub_alternate_dfl_aalt_arab_FAR_Lookup_01_Subtable_01" uniFEB2 uniFEB3 afii57427 uniFEB4
Substitution2: "gsub_single_rtl_fina_arab_FAR_Lookup_01_Subtable_01" uniFEB2
Substitution2: "gsub_single_rtl_init_arab_FAR_Lookup_01_Subtable_01" uniFEB3
Substitution2: "gsub_single_rtl_medi_arab_FAR_Lookup_01_Subtable_01" uniFEB4
EndChar

StartChar: uniFEB2
Encoding: 65202 65202 386
Width: 2125
VWidth: 1639
GlyphClass: 2
Flags: HW
AnchorPoint: "GposMark2BaseAnchorClassErabAbove_01_02" 1092 968 basechar 0
AnchorPoint: "GposMark2BaseAnchorClassErabBelow_01_02" 1092 -782 basechar 0
LayerCount: 2
Fore
SplineSet
189 818 m 1,0,-1
 485 818 l 1,1,-1
 465 730 l 1,2,-1
 497 730 l 1,3,-1
 361 143 l 1,4,-1
 321 -33 l 2,5,6
 303 -114 303 -114 303 -131 c 1,7,8
 305 -150 305 -150 329 -184 c 0,9,10
 387 -264 387 -264 468 -262 c 0,11,12
 570 -260 570 -260 667 -161 c 0,13,14
 717 -108 717 -108 743 -49 c 0,15,16
 754 -24 754 -24 774 66 c 2,17,-1
 815 244 l 1,18,-1
 947 818 l 1,19,-1
 1243 818 l 1,20,-1
 1223 730 l 1,21,-1
 1255 730 l 1,22,-1
 1153 289 l 1,23,-1
 1307 289 l 1,24,-1
 1429 818 l 1,25,-1
 1725 818 l 1,26,-1
 1705 730 l 1,27,-1
 1737 730 l 1,28,-1
 1635 289 l 1,29,30
 1715 289 1715 289 1733 293 c 0,31,32
 1756 300 1756 300 1770 312 c 0,33,34
 1807 344 1807 344 1827 436 c 0,35,36
 1830 452 1830 452 1832 459 c 2,37,-1
 1914 818 l 1,38,-1
 2212 818 l 1,39,-1
 2191 730 l 1,40,-1
 2223 730 l 1,41,-1
 2122 289 l 1,42,-1
 2221 289 l 1,43,-1
 2210 243 l 1,44,-1
 2036 243 l 1,45,-1
 2159 772 l 1,46,-1
 1947 772 l 1,47,-1
 1861 403 l 2,48,49
 1842 320 1842 320 1830 299 c 0,50,51
 1815 275 1815 275 1796 261 c 0,52,53
 1775 248 1775 248 1727 244 c 0,54,55
 1695 241 1695 241 1550 243 c 1,56,-1
 1672 772 l 1,57,-1
 1462 772 l 1,58,-1
 1339 243 l 1,59,-1
 1068 243 l 1,60,-1
 1190 772 l 1,61,-1
 980 772 l 1,62,-1
 833 138 l 1,63,-1
 802 3 l 2,64,65
 775 -111 775 -111 734 -167 c 1,66,67
 676 -244 676 -244 597 -282 c 0,68,69
 539 -310 539 -310 460 -310 c 0,70,71
 402 -310 402 -310 374 -303 c 0,72,73
 280 -275 280 -275 247 -177 c 0,74,75
 243 -165 243 -165 241 -154 c 0,76,77
 231 -100 231 -100 256 11 c 2,78,-1
 290 156 l 1,79,-1
 432 772 l 1,80,-1
 222 772 l 1,81,-1
 83 171 l 2,82,83
 37 -28 37 -28 33 -56 c 0,84,85
 31 -69 31 -69 29 -80 c 0,86,87
 15 -221 15 -221 78 -339 c 1,88,89
 126 -423 126 -423 200 -476 c 1,90,91
 299 -540 299 -540 408 -540 c 0,92,93
 600 -540 600 -540 781 -372 c 0,94,95
 947 -218 947 -218 1007 -16 c 0,96,97
 1013 4 1013 4 1017 21 c 1,98,-1
 2159 23 l 1,99,-1
 2139 -67 l 1,100,-1
 1071 -67 l 1,101,102
 1044 -181 1044 -181 983 -282 c 0,103,104
 939 -357 939 -357 859 -438 c 0,105,106
 682 -613 682 -613 467 -627 c 0,107,108
 381 -632 381 -632 304 -608 c 0,109,110
 259 -595 259 -595 183 -543 c 1,111,112
 72 -470 72 -470 25 -389 c 1,113,114
 -39 -271 -39 -271 -24 -128 c 0,115,116
 -19 -77 -19 -77 24 103 c 0,117,118
 27 115 27 115 29 125 c 2,119,-1
 189 818 l 1,0,-1
EndSplineSet
EndChar

StartChar: uniFEB3
Encoding: 65203 65203 387
Width: 1671
VWidth: 1639
GlyphClass: 2
Flags: HW
AnchorPoint: "GposMark2BaseAnchorClassErabAbove_01_02" 827 968 basechar 0
AnchorPoint: "GposMark2BaseAnchorClassErabBelow_01_02" 827 -217 basechar 0
LayerCount: 2
Fore
SplineSet
422 818 m 1,0,-1
 720 818 l 1,1,-1
 699 730 l 1,2,-1
 731 730 l 1,3,-1
 629 289 l 1,4,-1
 782 289 l 1,5,-1
 904 818 l 1,6,-1
 1200 818 l 1,7,-1
 1180 730 l 1,8,-1
 1212 730 l 1,9,-1
 1110 289 l 1,10,11
 1189 289 1189 289 1214 299 c 0,12,13
 1233 308 1233 308 1248 320 c 0,14,15
 1286 354 1286 354 1305 446 c 0,16,17
 1308 463 1308 463 1310 469 c 2,18,-1
 1391 818 l 1,19,-1
 1687 818 l 1,20,-1
 1666 730 l 1,21,-1
 1698 730 l 1,22,-1
 1592 269 l 2,23,24
 1561 134 1561 134 1532 83 c 0,25,26
 1510 44 1510 44 1481 15 c 0,27,28
 1404 -62 1404 -62 1259 -67 c 0,29,30
 1241 -67 1241 -67 1209 -67 c 2,31,-1
 1052 -67 l 2,32,33
 869 -67 869 -67 504 -66 c 0,34,35
 138 -65 138 -65 -44 -66 c 1,36,-1
 -24 23 l 1,37,38
 149 23 149 23 495 22 c 0,39,40
 842 21 842 21 1014 21 c 2,41,-1
 1152 21 l 2,42,43
 1291 21 1291 21 1356 53 c 0,44,45
 1396 73 1396 73 1427 105 c 0,46,47
 1493 172 1493 172 1528 315 c 0,48,49
 1531 326 1531 326 1536 351 c 2,50,-1
 1633 772 l 1,51,-1
 1423 772 l 1,52,-1
 1339 410 l 2,53,54
 1319 324 1319 324 1302 298 c 0,55,56
 1288 278 1288 278 1271 266 c 0,57,58
 1237 243 1237 243 1166 243 c 2,59,-1
 1024 243 l 1,60,-1
 1147 772 l 1,61,-1
 936 772 l 1,62,-1
 814 243 l 1,63,-1
 544 243 l 1,64,-1
 666 772 l 1,65,-1
 454 772 l 1,66,-1
 332 243 l 1,67,-1
 27 243 l 1,68,-1
 38 289 l 1,69,-1
 300 289 l 1,70,-1
 422 818 l 1,0,-1
EndSplineSet
EndChar

StartChar: uniFEB4
Encoding: 65204 65204 388
Width: 1623
VWidth: 1639
GlyphClass: 2
Flags: HW
AnchorPoint: "GposMark2BaseAnchorClassErabAbove_01_02" 837 970 basechar 0
AnchorPoint: "GposMark2BaseAnchorClassErabBelow_01_02" 837 -217 basechar 0
LayerCount: 2
Fore
SplineSet
433 820 m 1,0,-1
 731 820 l 1,1,-1
 710 731 l 1,2,-1
 742 731 l 1,3,-1
 640 289 l 1,4,-1
 792 289 l 1,5,-1
 915 820 l 1,6,-1
 1211 820 l 1,7,-1
 1191 731 l 1,8,-1
 1223 731 l 1,9,-1
 1120 289 l 1,10,-1
 1279 289 l 1,11,-1
 1402 820 l 1,12,-1
 1699 820 l 1,13,-1
 1679 731 l 1,14,-1
 1711 731 l 1,15,-1
 1608 289 l 1,16,-1
 1718 289 l 1,17,-1
 1708 243 l 1,18,-1
 1523 243 l 1,19,-1
 1646 774 l 1,20,-1
 1434 774 l 1,21,-1
 1311 243 l 1,22,-1
 1035 243 l 1,23,-1
 1158 774 l 1,24,-1
 947 774 l 1,25,-1
 825 243 l 1,26,-1
 555 243 l 1,27,-1
 677 774 l 1,28,-1
 465 774 l 1,29,-1
 343 243 l 1,30,-1
 27 243 l 1,31,-1
 38 289 l 1,32,-1
 311 289 l 1,33,-1
 433 820 l 1,0,-1
-24 23 m 1,34,-1
 1657 23 l 1,35,-1
 1636 -67 l 1,36,-1
 -44 -66 l 1,37,-1
 -24 23 l 1,34,-1
EndSplineSet
EndChar

StartChar: afii57428
Encoding: 1588 1588 389
AltUni2: 00feb5.ffffffff.0
Width: 2197
VWidth: 1639
GlyphClass: 2
Flags: HW
AnchorPoint: "GposMark2BaseAnchorClassErabAbove_01_02" 1092 1595 basechar 0
AnchorPoint: "GposMark2BaseAnchorClassErabBelow_01_02" 1092 -782 basechar 0
LayerCount: 2
Fore
SplineSet
1554 1199 m 1,0,1
 1541 1277 1541 1277 1581 1352 c 0,2,3
 1588 1364 1588 1364 1594 1373 c 0,4,5
 1649 1445 1649 1445 1746 1445 c 0,6,7
 1797 1444 1797 1444 1826 1427 c 1,8,9
 1863 1398 1863 1398 1865 1350 c 0,10,11
 1866 1344 1866 1344 1864 1331 c 0,12,13
 1863 1318 1863 1318 1864 1312 c 0,14,15
 1864 1305 1864 1305 1870 1290 c 0,16,17
 1874 1281 1874 1281 1876 1278 c 0,18,19
 1881 1247 1881 1247 1866 1197 c 1,20,21
 1923 1197 1923 1197 1946 1135 c 0,22,23
 1950 1123 1950 1123 1952 1112 c 0,24,25
 1953 1105 1953 1105 1950 1090 c 0,26,27
 1948 1075 1948 1075 1949 1068 c 0,28,29
 1950 1059 1950 1059 1957 1043 c 0,30,31
 1962 1032 1962 1032 1963 1027 c 0,32,33
 1969 993 1969 993 1950 945 c 0,34,35
 1919 873 1919 873 1846 846 c 0,36,37
 1801 831 1801 831 1763 843 c 1,38,39
 1742 852 1742 852 1721 877 c 0,40,41
 1716 881 1716 881 1686 892 c 1,42,43
 1668 903 1668 903 1651 927 c 1,44,45
 1641 904 1641 904 1615 881 c 0,46,47
 1548 825 1548 825 1481 841 c 0,48,49
 1469 845 1469 845 1438 873 c 0,50,51
 1433 878 1433 878 1429 881 c 0,52,53
 1426 883 1426 883 1399 891 c 1,54,55
 1369 910 1369 910 1356 941 c 1,56,57
 1344 975 1344 975 1357 1035 c 0,58,59
 1384 1145 1384 1145 1457 1182 c 0,60,61
 1462 1185 1462 1185 1468 1188 c 128,-1,62
 1474 1191 1474 1191 1480 1192.5 c 128,-1,63
 1486 1194 1486 1194 1490 1195 c 128,-1,64
 1494 1196 1494 1196 1501.5 1196.5 c 128,-1,65
 1509 1197 1509 1197 1511.5 1198 c 128,-1,66
 1514 1199 1514 1199 1522.5 1199 c 128,-1,67
 1531 1199 1531 1199 1532.5 1199 c 128,-1,68
 1534 1199 1534 1199 1544 1199 c 2,69,-1
 1554 1199 l 1,0,1
1732 1397 m 1,70,71
 1684 1394 1684 1394 1637 1341 c 0,72,73
 1611 1312 1611 1312 1604 1286 c 0,74,75
 1593 1238 1593 1238 1633 1197 c 0,76,77
 1658 1173 1658 1173 1684 1174 c 0,78,79
 1732 1177 1732 1177 1779 1230 c 0,80,81
 1805 1259 1805 1259 1812 1286 c 0,82,83
 1822 1336 1822 1336 1781 1375 c 0,84,85
 1757 1397 1757 1397 1732 1397 c 1,70,71
1529 1151 m 0,86,87
 1479 1146 1479 1146 1433 1094 c 0,88,89
 1409 1066 1409 1066 1403 1040 c 0,90,91
 1392 992 1392 992 1431 951 c 0,92,93
 1456 927 1456 927 1482 928 c 1,94,95
 1532 933 1532 933 1578 986 c 0,96,97
 1603 1015 1603 1015 1609 1041 c 0,98,99
 1619 1093 1619 1093 1573 1133 c 0,100,101
 1568 1137 1568 1137 1563 1140 c 0,102,103
 1541 1151 1541 1151 1529 1151 c 0,86,87
1817 1151 m 1,104,105
 1767 1146 1767 1146 1721 1094 c 0,106,107
 1697 1066 1697 1066 1691 1040 c 0,108,109
 1679 989 1679 989 1724 949 c 0,110,111
 1732 942 1732 942 1739 938 c 0,112,113
 1759 929 1759 929 1771 928 c 1,114,115
 1821 933 1821 933 1867 987 c 0,116,117
 1891 1015 1891 1015 1897 1040 c 0,118,119
 1909 1091 1909 1091 1866 1129 c 0,120,121
 1856 1137 1856 1137 1847 1141 c 0,122,123
 1830 1150 1830 1150 1817 1151 c 1,104,105
189 818 m 1,124,-1
 485 818 l 1,125,-1
 465 730 l 1,126,-1
 497 730 l 1,127,-1
 361 143 l 1,128,-1
 321 -33 l 2,129,130
 303 -114 303 -114 303 -131 c 1,131,132
 305 -150 305 -150 329 -184 c 0,133,134
 387 -264 387 -264 468 -262 c 0,135,136
 570 -260 570 -260 667 -161 c 0,137,138
 717 -108 717 -108 743 -49 c 0,139,140
 754 -24 754 -24 774 66 c 2,141,-1
 815 244 l 1,142,-1
 947 818 l 1,143,-1
 1243 818 l 1,144,-1
 1223 730 l 1,145,-1
 1255 730 l 1,146,-1
 1153 289 l 1,147,-1
 1307 289 l 1,148,-1
 1429 818 l 1,149,-1
 1725 818 l 1,150,-1
 1705 730 l 1,151,-1
 1737 730 l 1,152,-1
 1635 289 l 1,153,154
 1715 289 1715 289 1733 293 c 0,155,156
 1756 300 1756 300 1770 312 c 0,157,158
 1807 344 1807 344 1827 436 c 0,159,160
 1830 452 1830 452 1832 459 c 2,161,-1
 1914 818 l 1,162,-1
 2212 818 l 1,163,-1
 2191 730 l 1,164,-1
 2223 730 l 1,165,-1
 2118 274 l 2,166,167
 2086 136 2086 136 2058 85 c 0,168,169
 2038 49 2038 49 2013 21 c 0,170,171
 1935 -62 1935 -62 1786 -67 c 0,172,173
 1768 -68 1768 -68 1716 -67 c 2,174,-1
 1071 -67 l 1,175,176
 1044 -181 1044 -181 983 -282 c 0,177,178
 939 -357 939 -357 859 -438 c 0,179,180
 682 -613 682 -613 467 -627 c 0,181,182
 381 -632 381 -632 304 -608 c 0,183,184
 259 -595 259 -595 183 -543 c 1,185,186
 72 -470 72 -470 25 -389 c 1,187,188
 -39 -271 -39 -271 -24 -128 c 0,189,190
 -19 -77 -19 -77 24 103 c 0,191,192
 27 115 27 115 29 125 c 2,193,-1
 189 818 l 1,124,-1
432 772 m 1,194,-1
 222 772 l 1,195,-1
 82 169 l 2,196,197
 36 -30 36 -30 32 -58 c 0,198,199
 30 -71 30 -71 29 -82 c 0,200,201
 15 -223 15 -223 77 -341 c 1,202,203
 124 -424 124 -424 199 -476 c 0,204,205
 290 -537 290 -537 407 -540 c 0,206,207
 599 -542 599 -542 780 -373 c 0,208,209
 946 -219 946 -219 1006 -18 c 0,210,211
 1012 2 1012 2 1017 21 c 1,212,-1
 1665 21 l 2,213,214
 1804 21 1804 21 1867 47 c 0,215,216
 1922 70 1922 70 1962 113 c 0,217,218
 2021 179 2021 179 2054 321 c 0,219,220
 2056 328 2056 328 2059 342 c 0,221,222
 2061 352 2061 352 2062 356 c 2,223,-1
 2159 772 l 1,224,-1
 1947 772 l 1,225,-1
 1861 403 l 2,226,227
 1841 317 1841 317 1825 292 c 0,228,229
 1811 271 1811 271 1793 259 c 0,230,231
 1786 254 1786 254 1775 251 c 128,-1,232
 1764 248 1764 248 1760 247 c 128,-1,233
 1756 246 1756 246 1741 245 c 2,234,-1
 1726 244 l 2,235,236
 1694 241 1694 241 1550 243 c 1,237,-1
 1672 772 l 1,238,-1
 1462 772 l 1,239,-1
 1339 243 l 1,240,-1
 1068 243 l 1,241,-1
 1190 772 l 1,242,-1
 980 772 l 1,243,-1
 833 138 l 1,244,-1
 802 3 l 2,245,246
 775 -111 775 -111 734 -166 c 0,247,248
 675 -245 675 -245 596 -282 c 0,249,250
 538 -310 538 -310 460 -310 c 0,251,252
 402 -310 402 -310 376 -303 c 0,253,254
 279 -275 279 -275 247 -174 c 0,255,256
 244 -163 244 -163 241 -153 c 0,257,258
 231 -99 231 -99 257 13 c 2,259,-1
 290 157 l 1,260,-1
 432 772 l 1,194,-1
EndSplineSet
AlternateSubs2: "gsub_alternate_dfl_aalt_arab_FAR_Lookup_01_Subtable_01" uniFEB6 uniFEB7 afii57428 uniFEB8
Substitution2: "gsub_single_rtl_fina_arab_FAR_Lookup_01_Subtable_01" uniFEB6
Substitution2: "gsub_single_rtl_init_arab_FAR_Lookup_01_Subtable_01" uniFEB7
Substitution2: "gsub_single_rtl_medi_arab_FAR_Lookup_01_Subtable_01" uniFEB8
EndChar

StartChar: uniFEB6
Encoding: 65206 65206 390
Width: 2124
VWidth: 1639
GlyphClass: 2
Flags: HW
AnchorPoint: "GposMark2BaseAnchorClassErabAbove_01_02" 1092 1595 basechar 0
AnchorPoint: "GposMark2BaseAnchorClassErabBelow_01_02" 1092 -782 basechar 0
LayerCount: 2
Fore
SplineSet
1554 1199 m 1,0,1
 1541 1277 1541 1277 1581 1352 c 0,2,3
 1588 1364 1588 1364 1594 1373 c 0,4,5
 1649 1445 1649 1445 1746 1445 c 0,6,7
 1797 1444 1797 1444 1826 1427 c 1,8,9
 1863 1398 1863 1398 1865 1350 c 0,10,11
 1866 1344 1866 1344 1864 1331 c 0,12,13
 1863 1318 1863 1318 1864 1312 c 0,14,15
 1864 1305 1864 1305 1870 1290 c 0,16,17
 1874 1281 1874 1281 1876 1278 c 0,18,19
 1881 1247 1881 1247 1866 1197 c 1,20,21
 1923 1197 1923 1197 1946 1135 c 0,22,23
 1950 1123 1950 1123 1952 1112 c 0,24,25
 1953 1105 1953 1105 1950 1090 c 0,26,27
 1948 1075 1948 1075 1949 1068 c 0,28,29
 1950 1059 1950 1059 1957 1043 c 0,30,31
 1962 1032 1962 1032 1963 1027 c 0,32,33
 1969 993 1969 993 1950 945 c 0,34,35
 1919 873 1919 873 1846 846 c 0,36,37
 1801 831 1801 831 1763 843 c 1,38,39
 1742 852 1742 852 1721 877 c 0,40,41
 1716 881 1716 881 1686 892 c 1,42,43
 1668 903 1668 903 1651 927 c 1,44,45
 1641 904 1641 904 1615 881 c 0,46,47
 1548 825 1548 825 1481 841 c 0,48,49
 1469 845 1469 845 1438 873 c 0,50,51
 1433 878 1433 878 1429 881 c 0,52,53
 1426 883 1426 883 1399 891 c 1,54,55
 1369 910 1369 910 1356 941 c 1,56,57
 1344 975 1344 975 1357 1035 c 0,58,59
 1384 1145 1384 1145 1457 1182 c 0,60,61
 1462 1185 1462 1185 1468 1188 c 128,-1,62
 1474 1191 1474 1191 1480 1192.5 c 128,-1,63
 1486 1194 1486 1194 1490 1195 c 128,-1,64
 1494 1196 1494 1196 1501.5 1196.5 c 128,-1,65
 1509 1197 1509 1197 1511.5 1198 c 128,-1,66
 1514 1199 1514 1199 1522.5 1199 c 128,-1,67
 1531 1199 1531 1199 1532.5 1199 c 128,-1,68
 1534 1199 1534 1199 1544 1199 c 2,69,-1
 1554 1199 l 1,0,1
1732 1397 m 1,70,71
 1684 1394 1684 1394 1637 1341 c 0,72,73
 1611 1312 1611 1312 1604 1286 c 0,74,75
 1593 1238 1593 1238 1633 1197 c 0,76,77
 1658 1173 1658 1173 1684 1174 c 0,78,79
 1732 1177 1732 1177 1779 1230 c 0,80,81
 1805 1259 1805 1259 1812 1286 c 0,82,83
 1822 1336 1822 1336 1781 1375 c 0,84,85
 1757 1397 1757 1397 1732 1397 c 1,70,71
1529 1151 m 0,86,87
 1479 1146 1479 1146 1433 1094 c 0,88,89
 1409 1066 1409 1066 1403 1040 c 0,90,91
 1392 992 1392 992 1431 951 c 0,92,93
 1456 927 1456 927 1482 928 c 1,94,95
 1532 933 1532 933 1578 986 c 0,96,97
 1603 1015 1603 1015 1609 1041 c 0,98,99
 1619 1093 1619 1093 1573 1133 c 0,100,101
 1568 1137 1568 1137 1563 1140 c 0,102,103
 1541 1151 1541 1151 1529 1151 c 0,86,87
1817 1151 m 1,104,105
 1767 1146 1767 1146 1721 1094 c 0,106,107
 1697 1066 1697 1066 1691 1040 c 0,108,109
 1679 989 1679 989 1724 949 c 0,110,111
 1732 942 1732 942 1739 938 c 0,112,113
 1759 929 1759 929 1771 928 c 1,114,115
 1821 933 1821 933 1867 987 c 0,116,117
 1891 1015 1891 1015 1897 1040 c 0,118,119
 1909 1091 1909 1091 1866 1129 c 0,120,121
 1856 1137 1856 1137 1847 1141 c 0,122,123
 1830 1150 1830 1150 1817 1151 c 1,104,105
189 818 m 1,124,-1
 485 818 l 1,125,-1
 465 730 l 1,126,-1
 497 730 l 1,127,-1
 361 143 l 1,128,-1
 321 -33 l 2,129,130
 303 -114 303 -114 303 -131 c 1,131,132
 305 -150 305 -150 329 -184 c 0,133,134
 387 -264 387 -264 468 -262 c 0,135,136
 570 -260 570 -260 667 -161 c 0,137,138
 717 -108 717 -108 743 -49 c 0,139,140
 754 -24 754 -24 774 66 c 2,141,-1
 815 244 l 1,142,-1
 947 818 l 1,143,-1
 1243 818 l 1,144,-1
 1223 730 l 1,145,-1
 1255 730 l 1,146,-1
 1153 289 l 1,147,-1
 1307 289 l 1,148,-1
 1429 818 l 1,149,-1
 1725 818 l 1,150,-1
 1705 730 l 1,151,-1
 1737 730 l 1,152,-1
 1635 289 l 1,153,154
 1715 289 1715 289 1733 293 c 0,155,156
 1756 300 1756 300 1770 312 c 0,157,158
 1807 344 1807 344 1827 436 c 0,159,160
 1830 452 1830 452 1832 459 c 2,161,-1
 1914 818 l 1,162,-1
 2212 818 l 1,163,-1
 2191 730 l 1,164,-1
 2223 730 l 1,165,-1
 2122 289 l 1,166,-1
 2219 289 l 1,167,-1
 2209 243 l 1,168,-1
 2036 243 l 1,169,-1
 2159 772 l 1,170,-1
 1947 772 l 1,171,-1
 1861 403 l 2,172,173
 1842 320 1842 320 1830 299 c 0,174,175
 1815 275 1815 275 1796 261 c 0,176,177
 1775 248 1775 248 1727 244 c 0,178,179
 1695 241 1695 241 1550 243 c 1,180,-1
 1672 772 l 1,181,-1
 1462 772 l 1,182,-1
 1339 243 l 1,183,-1
 1068 243 l 1,184,-1
 1190 772 l 1,185,-1
 980 772 l 1,186,-1
 833 138 l 1,187,-1
 802 3 l 2,188,189
 775 -111 775 -111 734 -167 c 1,190,191
 676 -244 676 -244 597 -282 c 0,192,193
 539 -310 539 -310 460 -310 c 0,194,195
 402 -310 402 -310 374 -303 c 0,196,197
 280 -275 280 -275 247 -177 c 0,198,199
 243 -165 243 -165 241 -154 c 0,200,201
 231 -100 231 -100 256 11 c 2,202,-1
 290 156 l 1,203,-1
 432 772 l 1,204,-1
 222 772 l 1,205,-1
 83 171 l 2,206,207
 37 -28 37 -28 33 -56 c 0,208,209
 31 -69 31 -69 29 -80 c 0,210,211
 15 -221 15 -221 78 -339 c 1,212,213
 126 -423 126 -423 200 -476 c 1,214,215
 299 -540 299 -540 408 -540 c 0,216,217
 600 -540 600 -540 781 -372 c 0,218,219
 947 -218 947 -218 1007 -16 c 0,220,221
 1013 4 1013 4 1017 21 c 1,222,-1
 2158 23 l 1,223,-1
 2137 -67 l 1,224,-1
 1071 -67 l 1,225,226
 1044 -181 1044 -181 983 -282 c 0,227,228
 939 -357 939 -357 859 -438 c 0,229,230
 682 -613 682 -613 467 -627 c 0,231,232
 381 -632 381 -632 304 -608 c 0,233,234
 259 -595 259 -595 183 -543 c 1,235,236
 72 -470 72 -470 25 -389 c 1,237,238
 -39 -271 -39 -271 -24 -128 c 0,239,240
 -19 -77 -19 -77 24 103 c 0,241,242
 27 115 27 115 29 125 c 2,243,-1
 189 818 l 1,124,-1
EndSplineSet
EndChar

